<ttFont>
    <TTGlyph name="A" xMin="-5" yMin="0" xMax="619" yMax="690">
      <contour>
        <pt x="349" y="0" on="1"/>
        <pt x="349" y="75" on="1"/>
        <pt x="429" y="96" on="1"/>
        <pt x="393" y="218" on="1"/>
        <pt x="197" y="218" on="1"/>
        <pt x="159" y="92" on="1"/>
        <pt x="247" y="76" on="1"/>
        <pt x="247" y="0" on="1"/>
        <pt x="8" y="0" on="1"/>
        <pt x="-5" y="78" on="1"/>
        <pt x="50" y="96" on="1"/>
        <pt x="248" y="690" on="1"/>
        <pt x="372" y="690" on="1"/>
        <pt x="573" y="96" on="1"/>
        <pt x="619" y="78" on="1"/>
        <pt x="609" y="0" on="1"/>
      </contour>
      <contour>
        <pt x="228" y="323" on="1"/>
        <pt x="349" y="323" on="1"/>
        <pt x="296" y="548" on="1"/>
      </contour>
    </TTGlyph>
    <TTGlyph name="AE" xMin="-12" yMin="0" xMax="768" yMax="691">
      <contour>
        <pt x="1" y="0" on="1"/>
        <pt x="-12" y="78" on="1"/>
        <pt x="41" y="96" on="1"/>
        <pt x="266" y="691" on="1"/>
        <pt x="745" y="691" on="1"/>
        <pt x="765" y="487" on="1"/>
        <pt x="686" y="487" on="1"/>
        <pt x="646" y="586" on="1"/>
        <pt x="484" y="586" on="1"/>
        <pt x="484" y="408" on="1"/>
        <pt x="636" y="408" on="1"/>
        <pt x="636" y="303" on="1"/>
        <pt x="484" y="303" on="1"/>
        <pt x="484" y="105" on="1"/>
        <pt x="653" y="105" on="1"/>
        <pt x="690" y="204" on="1"/>
        <pt x="768" y="204" on="1"/>
        <pt x="747" y="0" on="1"/>
        <pt x="313" y="0" on="1"/>
        <pt x="298" y="88" on="1"/>
        <pt x="353" y="101" on="1"/>
        <pt x="353" y="260" on="1"/>
        <pt x="215" y="260" on="1"/>
        <pt x="152" y="92" on="1"/>
        <pt x="240" y="76" on="1"/>
        <pt x="240" y="0" on="1"/>
      </contour>
      <contour>
        <pt x="342" y="596" on="1"/>
        <pt x="255" y="365" on="1"/>
        <pt x="353" y="365" on="1"/>
        <pt x="353" y="595" on="1"/>
      </contour>
    </TTGlyph>
    <TTGlyph name="Aacute" xMin="-5" yMin="0" xMax="619" yMax="974">
      <contour>
        <pt x="349" y="0" on="1"/>
        <pt x="349" y="75" on="1"/>
        <pt x="429" y="96" on="1"/>
        <pt x="393" y="218" on="1"/>
        <pt x="197" y="218" on="1"/>
        <pt x="159" y="92" on="1"/>
        <pt x="247" y="76" on="1"/>
        <pt x="247" y="0" on="1"/>
        <pt x="8" y="0" on="1"/>
        <pt x="-5" y="78" on="1"/>
        <pt x="50" y="96" on="1"/>
        <pt x="248" y="691" on="1"/>
        <pt x="372" y="691" on="1"/>
        <pt x="573" y="96" on="1"/>
        <pt x="619" y="78" on="1"/>
        <pt x="609" y="0" on="1"/>
      </contour>
      <contour>
        <pt x="228" y="323" on="1"/>
        <pt x="349" y="323" on="1"/>
        <pt x="296" y="549" on="1"/>
      </contour>
      <contour>
        <pt x="187" y="795" on="1"/>
        <pt x="316" y="959" on="1"/>
        <pt x="353" y="974" on="1"/>
        <pt x="431" y="865" on="1"/>
        <pt x="234" y="741" on="1"/>
      </contour>
    </TTGlyph>
    <TTGlyph name="Acircumflex" xMin="-5" yMin="0" xMax="619" yMax="903">
      <contour>
        <pt x="115" y="737" on="1"/>
        <pt x="286" y="903" on="1"/>
        <pt x="323" y="903" on="1"/>
        <pt x="495" y="736" on="1"/>
        <pt x="487" y="724" on="1"/>
        <pt x="401" y="724" on="1"/>
        <pt x="304" y="782" on="1"/>
        <pt x="206" y="724" on="1"/>
        <pt x="121" y="724" on="1"/>
      </contour>
      <contour>
        <pt x="349" y="0" on="1"/>
        <pt x="349" y="75" on="1"/>
        <pt x="429" y="96" on="1"/>
        <pt x="393" y="218" on="1"/>
        <pt x="197" y="218" on="1"/>
        <pt x="159" y="92" on="1"/>
        <pt x="247" y="76" on="1"/>
        <pt x="247" y="0" on="1"/>
        <pt x="8" y="0" on="1"/>
        <pt x="-5" y="78" on="1"/>
        <pt x="50" y="96" on="1"/>
        <pt x="248" y="691" on="1"/>
        <pt x="372" y="691" on="1"/>
        <pt x="573" y="96" on="1"/>
        <pt x="619" y="78" on="1"/>
        <pt x="609" y="0" on="1"/>
      </contour>
      <contour>
        <pt x="228" y="323" on="1"/>
        <pt x="349" y="323" on="1"/>
        <pt x="296" y="549" on="1"/>
      </contour>
    </TTGlyph>
    <TTGlyph name="Adieresis" xMin="-5" yMin="0" xMax="619" yMax="873">
      <contour>
        <pt x="349" y="0" on="1"/>
        <pt x="349" y="75" on="1"/>
        <pt x="429" y="96" on="1"/>
        <pt x="393" y="218" on="1"/>
        <pt x="197" y="218" on="1"/>
        <pt x="159" y="92" on="1"/>
        <pt x="247" y="76" on="1"/>
        <pt x="247" y="0" on="1"/>
        <pt x="8" y="0" on="1"/>
        <pt x="-5" y="78" on="1"/>
        <pt x="50" y="96" on="1"/>
        <pt x="248" y="690" on="1"/>
        <pt x="372" y="690" on="1"/>
        <pt x="573" y="96" on="1"/>
        <pt x="619" y="78" on="1"/>
        <pt x="609" y="0" on="1"/>
      </contour>
      <contour>
        <pt x="228" y="323" on="1"/>
        <pt x="349" y="323" on="1"/>
        <pt x="296" y="548" on="1"/>
      </contour>
      <contour>
        <pt x="155" y="804" on="1"/>
        <pt x="155" y="833" on="0"/>
        <pt x="195" y="873" on="0"/>
        <pt x="252" y="873" on="0"/>
        <pt x="292" y="833" on="0"/>
        <pt x="292" y="804" on="1"/>
        <pt x="292" y="775" on="0"/>
        <pt x="252" y="736" on="0"/>
        <pt x="195" y="736" on="0"/>
        <pt x="155" y="775" on="0"/>
      </contour>
      <contour>
        <pt x="333" y="804" on="1"/>
        <pt x="333" y="833" on="0"/>
        <pt x="372" y="873" on="0"/>
        <pt x="401" y="873" on="1"/>
        <pt x="430" y="873" on="0"/>
        <pt x="468" y="833" on="0"/>
        <pt x="468" y="804" on="1"/>
        <pt x="468" y="775" on="0"/>
        <pt x="430" y="736" on="0"/>
        <pt x="401" y="736" on="1"/>
        <pt x="372" y="736" on="0"/>
        <pt x="333" y="775" on="0"/>
      </contour>
    </TTGlyph>
    <TTGlyph name="Agrave" xMin="-5" yMin="0" xMax="619" yMax="959">
      <contour>
        <pt x="349" y="0" on="1"/>
        <pt x="349" y="75" on="1"/>
        <pt x="429" y="96" on="1"/>
        <pt x="393" y="218" on="1"/>
        <pt x="197" y="218" on="1"/>
        <pt x="159" y="92" on="1"/>
        <pt x="247" y="76" on="1"/>
        <pt x="247" y="0" on="1"/>
        <pt x="8" y="0" on="1"/>
        <pt x="-5" y="78" on="1"/>
        <pt x="50" y="96" on="1"/>
        <pt x="248" y="691" on="1"/>
        <pt x="372" y="691" on="1"/>
        <pt x="573" y="96" on="1"/>
        <pt x="619" y="78" on="1"/>
        <pt x="609" y="0" on="1"/>
      </contour>
      <contour>
        <pt x="228" y="323" on="1"/>
        <pt x="349" y="323" on="1"/>
        <pt x="296" y="549" on="1"/>
      </contour>
      <contour>
        <pt x="377" y="724" on="1"/>
        <pt x="194" y="868" on="1"/>
        <pt x="271" y="959" on="1"/>
        <pt x="306" y="942" on="1"/>
        <pt x="418" y="765" on="1"/>
      </contour>
    </TTGlyph>
    <TTGlyph name="Aring" xMin="-7" yMin="0" xMax="617" yMax="846">
      <contour>
        <pt x="407" y="740" on="1"/>
        <pt x="407" y="695" on="0"/>
        <pt x="378" y="666" on="1"/>
        <pt x="571" y="96" on="1"/>
        <pt x="617" y="78" on="1"/>
        <pt x="607" y="0" on="1"/>
        <pt x="347" y="0" on="1"/>
        <pt x="347" y="75" on="1"/>
        <pt x="427" y="96" on="1"/>
        <pt x="391" y="218" on="1"/>
        <pt x="195" y="218" on="1"/>
        <pt x="157" y="92" on="1"/>
        <pt x="245" y="76" on="1"/>
        <pt x="245" y="0" on="1"/>
        <pt x="6" y="0" on="1"/>
        <pt x="-7" y="78" on="1"/>
        <pt x="48" y="96" on="1"/>
        <pt x="234" y="656" on="1"/>
        <pt x="195" y="686" on="0"/>
        <pt x="195" y="740" on="1"/>
        <pt x="195" y="785" on="0"/>
        <pt x="256" y="846" on="0"/>
        <pt x="301" y="846" on="1"/>
        <pt x="347" y="846" on="0"/>
        <pt x="376" y="816" on="1"/>
        <pt x="407" y="783" on="0"/>
      </contour>
      <contour>
        <pt x="226" y="323" on="1"/>
        <pt x="347" y="323" on="1"/>
        <pt x="294" y="549" on="1"/>
      </contour>
      <contour>
        <pt x="262" y="740" on="1"/>
        <pt x="262" y="722" on="0"/>
        <pt x="282" y="701" on="0"/>
        <pt x="319" y="701" on="0"/>
        <pt x="339" y="722" on="0"/>
        <pt x="339" y="740" on="1"/>
        <pt x="339" y="758" on="0"/>
        <pt x="319" y="779" on="0"/>
        <pt x="282" y="779" on="0"/>
        <pt x="262" y="758" on="0"/>
      </contour>
    </TTGlyph>
    <TTGlyph name="Atilde" xMin="-5" yMin="0" xMax="619" yMax="881">
      <contour>
        <pt x="433" y="881" on="1"/>
        <pt x="514" y="805" on="1"/>
        <pt x="492" y="775" on="0"/>
        <pt x="426" y="727" on="0"/>
        <pt x="368" y="727" on="0"/>
        <pt x="335" y="741" on="0"/>
        <pt x="305" y="758" on="0"/>
        <pt x="274" y="772" on="0"/>
        <pt x="224" y="772" on="0"/>
        <pt x="190" y="737" on="0"/>
        <pt x="184" y="718" on="1"/>
        <pt x="110" y="762" on="1"/>
        <pt x="110" y="781" on="1"/>
        <pt x="120" y="812" on="0"/>
        <pt x="144" y="833" on="1"/>
        <pt x="190" y="873" on="0"/>
        <pt x="242" y="873" on="1"/>
        <pt x="294" y="873" on="0"/>
        <pt x="360" y="831" on="1"/>
        <pt x="372" y="823" on="0"/>
        <pt x="379" y="823" on="1"/>
      </contour>
      <contour>
        <pt x="349" y="0" on="1"/>
        <pt x="349" y="75" on="1"/>
        <pt x="429" y="96" on="1"/>
        <pt x="393" y="218" on="1"/>
        <pt x="197" y="218" on="1"/>
        <pt x="159" y="92" on="1"/>
        <pt x="247" y="76" on="1"/>
        <pt x="247" y="0" on="1"/>
        <pt x="8" y="0" on="1"/>
        <pt x="-5" y="78" on="1"/>
        <pt x="50" y="96" on="1"/>
        <pt x="248" y="691" on="1"/>
        <pt x="372" y="691" on="1"/>
        <pt x="573" y="96" on="1"/>
        <pt x="619" y="78" on="1"/>
        <pt x="609" y="0" on="1"/>
      </contour>
      <contour>
        <pt x="228" y="323" on="1"/>
        <pt x="349" y="323" on="1"/>
        <pt x="296" y="549" on="1"/>
      </contour>
    </TTGlyph>
    <TTGlyph name="B" xMin="35" yMin="0" xMax="564" yMax="690">
      <contour>
        <pt x="55" y="0" on="1"/>
        <pt x="41" y="85" on="1"/>
        <pt x="105" y="100" on="1"/>
        <pt x="105" y="593" on="1"/>
        <pt x="35" y="600" on="1"/>
        <pt x="35" y="690" on="1"/>
        <pt x="312" y="690" on="1"/>
        <pt x="415" y="690" on="0"/>
        <pt x="477" y="638" on="1"/>
        <pt x="536" y="588" on="0"/>
        <pt x="536" y="509" on="1"/>
        <pt x="536" y="445" on="0"/>
        <pt x="496" y="400" on="1"/>
        <pt x="464" y="363" on="0"/>
        <pt x="424" y="353" on="1"/>
        <pt x="488" y="336" on="0"/>
        <pt x="564" y="258" on="0"/>
        <pt x="564" y="187" on="1"/>
        <pt x="564" y="49" on="0"/>
        <pt x="432" y="12" on="1"/>
        <pt x="391" y="0" on="0"/>
        <pt x="342" y="0" on="1"/>
      </contour>
      <contour>
        <pt x="427" y="199" on="1"/>
        <pt x="427" y="295" on="0"/>
        <pt x="294" y="295" on="1"/>
        <pt x="236" y="295" on="1"/>
        <pt x="236" y="105" on="1"/>
        <pt x="310" y="105" on="1"/>
        <pt x="392" y="105" on="0"/>
        <pt x="418" y="154" on="1"/>
        <pt x="427" y="172" on="0"/>
      </contour>
      <contour>
        <pt x="347" y="400" on="0"/>
        <pt x="399" y="452" on="0"/>
        <pt x="399" y="519" on="0"/>
        <pt x="380" y="553" on="0"/>
        <pt x="364" y="564" on="1"/>
        <pt x="332" y="585" on="0"/>
        <pt x="281" y="585" on="1"/>
        <pt x="236" y="585" on="1"/>
        <pt x="236" y="400" on="1"/>
        <pt x="295" y="400" on="1"/>
      </contour>
    </TTGlyph>
    <TTGlyph name="C" xMin="28" yMin="-4" xMax="564" yMax="691">
      <contour>
        <pt x="423" y="556" on="0"/>
        <pt x="412" y="580" on="0"/>
        <pt x="406" y="586" on="0"/>
        <pt x="326" y="586" on="0"/>
        <pt x="252" y="553" on="0"/>
        <pt x="224" y="522" on="1"/>
        <pt x="164" y="454" on="0"/>
        <pt x="162" y="348" on="1"/>
        <pt x="164" y="238" on="0"/>
        <pt x="220" y="170" on="1"/>
        <pt x="278" y="101" on="0"/>
        <pt x="370" y="101" on="1"/>
        <pt x="411" y="101" on="0"/>
        <pt x="493" y="131" on="0"/>
        <pt x="522" y="160" on="1"/>
        <pt x="564" y="71" on="1"/>
        <pt x="518" y="19" on="0"/>
        <pt x="425" y="2" on="1"/>
        <pt x="395" y="-4" on="0"/>
        <pt x="297" y="-4" on="0"/>
        <pt x="175" y="38" on="0"/>
        <pt x="129" y="80" on="1"/>
        <pt x="28" y="174" on="0"/>
        <pt x="28" y="334" on="1"/>
        <pt x="28" y="500" on="0"/>
        <pt x="132" y="600" on="1"/>
        <pt x="226" y="691" on="0"/>
        <pt x="358" y="691" on="1"/>
        <pt x="445" y="691" on="0"/>
        <pt x="527" y="667" on="1"/>
        <pt x="547" y="460" on="1"/>
        <pt x="466" y="460" on="1"/>
        <pt x="445" y="506" on="0"/>
      </contour>
    </TTGlyph>
    <TTGlyph name="Ccedilla" xMin="30" yMin="-286" xMax="566" yMax="691">
      <contour>
        <pt x="425" y="556" on="0"/>
        <pt x="414" y="580" on="0"/>
        <pt x="408" y="586" on="0"/>
        <pt x="328" y="586" on="0"/>
        <pt x="254" y="553" on="0"/>
        <pt x="226" y="522" on="1"/>
        <pt x="166" y="454" on="0"/>
        <pt x="166" y="348" on="1"/>
        <pt x="166" y="238" on="0"/>
        <pt x="222" y="170" on="1"/>
        <pt x="280" y="101" on="0"/>
        <pt x="372" y="101" on="1"/>
        <pt x="413" y="101" on="0"/>
        <pt x="495" y="131" on="0"/>
        <pt x="524" y="160" on="1"/>
        <pt x="566" y="71" on="1"/>
        <pt x="543" y="43" on="0"/>
        <pt x="454" y="4" on="0"/>
        <pt x="403" y="-2" on="1"/>
        <pt x="391" y="-41" on="1"/>
        <pt x="462" y="-55" on="0"/>
        <pt x="486" y="-109" on="1"/>
        <pt x="495" y="-129" on="0"/>
        <pt x="495" y="-182" on="0"/>
        <pt x="473" y="-229" on="0"/>
        <pt x="452" y="-247" on="1"/>
        <pt x="405" y="-286" on="0"/>
        <pt x="330" y="-286" on="1"/>
        <pt x="288" y="-286" on="0"/>
        <pt x="227" y="-268" on="0"/>
        <pt x="202" y="-259" on="1"/>
        <pt x="252" y="-162" on="1"/>
        <pt x="324" y="-210" on="1"/>
        <pt x="361" y="-210" on="0"/>
        <pt x="380" y="-183" on="1"/>
        <pt x="387" y="-173" on="0"/>
        <pt x="387" y="-136" on="0"/>
        <pt x="352" y="-102" on="0"/>
        <pt x="309" y="-102" on="1"/>
        <pt x="296" y="-101" on="1"/>
        <pt x="272" y="-82" on="1"/>
        <pt x="301" y="1" on="1"/>
        <pt x="182" y="20" on="0"/>
        <pt x="109" y="103" on="1"/>
        <pt x="30" y="193" on="0"/>
        <pt x="30" y="334" on="1"/>
        <pt x="30" y="500" on="0"/>
        <pt x="134" y="600" on="1"/>
        <pt x="228" y="691" on="0"/>
        <pt x="360" y="691" on="1"/>
        <pt x="447" y="691" on="0"/>
        <pt x="529" y="667" on="1"/>
        <pt x="549" y="460" on="1"/>
        <pt x="468" y="460" on="1"/>
        <pt x="447" y="506" on="0"/>
      </contour>
    </TTGlyph>
    <TTGlyph name="D" xMin="39" yMin="0" xMax="606" yMax="690">
      <contour>
        <pt x="39" y="88" on="1"/>
        <pt x="104" y="101" on="1"/>
        <pt x="104" y="594" on="1"/>
        <pt x="41" y="602" on="1"/>
        <pt x="41" y="690" on="1"/>
        <pt x="219" y="690" on="1"/>
        <pt x="500" y="690" on="0"/>
        <pt x="580" y="500" on="1"/>
        <pt x="606" y="437" on="0"/>
        <pt x="606" y="353" on="1"/>
        <pt x="606" y="183" on="0"/>
        <pt x="433" y="0" on="0"/>
        <pt x="262" y="0" on="1"/>
        <pt x="53" y="0" on="1"/>
      </contour>
      <contour>
        <pt x="235" y="105" on="1"/>
        <pt x="254" y="104" on="1"/>
        <pt x="360" y="104" on="0"/>
        <pt x="469" y="229" on="0"/>
        <pt x="469" y="469" on="0"/>
        <pt x="349" y="585" on="0"/>
        <pt x="235" y="585" on="1"/>
      </contour>
    </TTGlyph>
    <TTGlyph name="E" xMin="39" yMin="0" xMax="520" yMax="690">
      <contour>
        <pt x="497" y="690" on="1"/>
        <pt x="516" y="486" on="1"/>
        <pt x="438" y="486" on="1"/>
        <pt x="397" y="585" on="1"/>
        <pt x="235" y="585" on="1"/>
        <pt x="235" y="407" on="1"/>
        <pt x="387" y="407" on="1"/>
        <pt x="387" y="302" on="1"/>
        <pt x="235" y="302" on="1"/>
        <pt x="235" y="105" on="1"/>
        <pt x="404" y="105" on="1"/>
        <pt x="441" y="204" on="1"/>
        <pt x="520" y="204" on="1"/>
        <pt x="499" y="0" on="1"/>
        <pt x="53" y="0" on="1"/>
        <pt x="39" y="88" on="1"/>
        <pt x="104" y="101" on="1"/>
        <pt x="104" y="594" on="1"/>
        <pt x="41" y="601" on="1"/>
        <pt x="41" y="690" on="1"/>
      </contour>
    </TTGlyph>
    <TTGlyph name="Eacute" xMin="39" yMin="0" xMax="520" yMax="974">
      <contour>
        <pt x="497" y="690" on="1"/>
        <pt x="516" y="486" on="1"/>
        <pt x="438" y="486" on="1"/>
        <pt x="397" y="585" on="1"/>
        <pt x="235" y="585" on="1"/>
        <pt x="235" y="407" on="1"/>
        <pt x="387" y="407" on="1"/>
        <pt x="387" y="302" on="1"/>
        <pt x="235" y="302" on="1"/>
        <pt x="235" y="105" on="1"/>
        <pt x="404" y="105" on="1"/>
        <pt x="441" y="204" on="1"/>
        <pt x="520" y="204" on="1"/>
        <pt x="499" y="0" on="1"/>
        <pt x="53" y="0" on="1"/>
        <pt x="39" y="88" on="1"/>
        <pt x="104" y="101" on="1"/>
        <pt x="104" y="594" on="1"/>
        <pt x="41" y="601" on="1"/>
        <pt x="41" y="690" on="1"/>
      </contour>
      <contour>
        <pt x="205" y="795" on="1"/>
        <pt x="334" y="959" on="1"/>
        <pt x="371" y="974" on="1"/>
        <pt x="449" y="865" on="1"/>
        <pt x="252" y="741" on="1"/>
      </contour>
    </TTGlyph>
    <TTGlyph name="Ecircumflex" xMin="39" yMin="0" xMax="520" yMax="903">
      <contour>
        <pt x="92" y="737" on="1"/>
        <pt x="263" y="903" on="1"/>
        <pt x="300" y="903" on="1"/>
        <pt x="472" y="736" on="1"/>
        <pt x="465" y="724" on="1"/>
        <pt x="379" y="724" on="1"/>
        <pt x="281" y="782" on="1"/>
        <pt x="184" y="724" on="1"/>
        <pt x="99" y="724" on="1"/>
      </contour>
      <contour>
        <pt x="497" y="691" on="1"/>
        <pt x="516" y="487" on="1"/>
        <pt x="438" y="487" on="1"/>
        <pt x="397" y="586" on="1"/>
        <pt x="235" y="586" on="1"/>
        <pt x="235" y="408" on="1"/>
        <pt x="387" y="408" on="1"/>
        <pt x="387" y="303" on="1"/>
        <pt x="235" y="303" on="1"/>
        <pt x="235" y="105" on="1"/>
        <pt x="404" y="105" on="1"/>
        <pt x="441" y="204" on="1"/>
        <pt x="520" y="204" on="1"/>
        <pt x="499" y="0" on="1"/>
        <pt x="53" y="0" on="1"/>
        <pt x="39" y="88" on="1"/>
        <pt x="104" y="101" on="1"/>
        <pt x="104" y="595" on="1"/>
        <pt x="41" y="602" on="1"/>
        <pt x="41" y="691" on="1"/>
      </contour>
    </TTGlyph>
    <TTGlyph name="Edieresis" xMin="39" yMin="0" xMax="520" yMax="873">
      <contour>
        <pt x="497" y="691" on="1"/>
        <pt x="516" y="487" on="1"/>
        <pt x="438" y="487" on="1"/>
        <pt x="397" y="586" on="1"/>
        <pt x="235" y="586" on="1"/>
        <pt x="235" y="408" on="1"/>
        <pt x="387" y="408" on="1"/>
        <pt x="387" y="303" on="1"/>
        <pt x="235" y="303" on="1"/>
        <pt x="235" y="105" on="1"/>
        <pt x="404" y="105" on="1"/>
        <pt x="441" y="204" on="1"/>
        <pt x="520" y="204" on="1"/>
        <pt x="499" y="0" on="1"/>
        <pt x="53" y="0" on="1"/>
        <pt x="39" y="88" on="1"/>
        <pt x="104" y="101" on="1"/>
        <pt x="104" y="595" on="1"/>
        <pt x="41" y="602" on="1"/>
        <pt x="41" y="691" on="1"/>
      </contour>
      <contour>
        <pt x="131" y="804" on="1"/>
        <pt x="131" y="833" on="0"/>
        <pt x="171" y="873" on="0"/>
        <pt x="228" y="873" on="0"/>
        <pt x="268" y="833" on="0"/>
        <pt x="268" y="804" on="1"/>
        <pt x="268" y="775" on="0"/>
        <pt x="228" y="736" on="0"/>
        <pt x="171" y="736" on="0"/>
        <pt x="131" y="775" on="0"/>
      </contour>
      <contour>
        <pt x="309" y="804" on="1"/>
        <pt x="309" y="833" on="0"/>
        <pt x="348" y="873" on="0"/>
        <pt x="377" y="873" on="1"/>
        <pt x="406" y="873" on="0"/>
        <pt x="444" y="833" on="0"/>
        <pt x="444" y="804" on="1"/>
        <pt x="444" y="775" on="0"/>
        <pt x="406" y="736" on="0"/>
        <pt x="377" y="736" on="1"/>
        <pt x="348" y="736" on="0"/>
        <pt x="309" y="775" on="0"/>
      </contour>
    </TTGlyph>
    <TTGlyph name="Egrave" xMin="39" yMin="0" xMax="520" yMax="959">
      <contour>
        <pt x="497" y="691" on="1"/>
        <pt x="516" y="487" on="1"/>
        <pt x="438" y="487" on="1"/>
        <pt x="397" y="586" on="1"/>
        <pt x="235" y="586" on="1"/>
        <pt x="235" y="408" on="1"/>
        <pt x="387" y="408" on="1"/>
        <pt x="387" y="303" on="1"/>
        <pt x="235" y="303" on="1"/>
        <pt x="235" y="105" on="1"/>
        <pt x="404" y="105" on="1"/>
        <pt x="441" y="204" on="1"/>
        <pt x="520" y="204" on="1"/>
        <pt x="499" y="0" on="1"/>
        <pt x="53" y="0" on="1"/>
        <pt x="39" y="88" on="1"/>
        <pt x="104" y="101" on="1"/>
        <pt x="104" y="595" on="1"/>
        <pt x="41" y="602" on="1"/>
        <pt x="41" y="691" on="1"/>
      </contour>
      <contour>
        <pt x="353" y="724" on="1"/>
        <pt x="170" y="868" on="1"/>
        <pt x="247" y="959" on="1"/>
        <pt x="282" y="942" on="1"/>
        <pt x="394" y="765" on="1"/>
      </contour>
    </TTGlyph>
    <TTGlyph name="Eth" xMin="14" yMin="0" xMax="608" yMax="691">
      <contour>
        <pt x="41" y="88" on="1"/>
        <pt x="106" y="101" on="1"/>
        <pt x="106" y="309" on="1"/>
        <pt x="14" y="309" on="1"/>
        <pt x="14" y="391" on="1"/>
        <pt x="28" y="403" on="1"/>
        <pt x="106" y="403" on="1"/>
        <pt x="106" y="595" on="1"/>
        <pt x="43" y="603" on="1"/>
        <pt x="43" y="691" on="1"/>
        <pt x="222" y="691" on="1"/>
        <pt x="502" y="691" on="0"/>
        <pt x="582" y="502" on="1"/>
        <pt x="608" y="438" on="0"/>
        <pt x="608" y="354" on="1"/>
        <pt x="608" y="185" on="0"/>
        <pt x="434" y="0" on="0"/>
        <pt x="265" y="0" on="1"/>
        <pt x="48" y="0" on="1"/>
      </contour>
      <contour>
        <pt x="237" y="105" on="1"/>
        <pt x="256" y="104" on="1"/>
        <pt x="362" y="104" on="0"/>
        <pt x="472" y="230" on="0"/>
        <pt x="472" y="350" on="1"/>
        <pt x="472" y="586" on="0"/>
        <pt x="237" y="586" on="1"/>
        <pt x="237" y="403" on="1"/>
        <pt x="362" y="403" on="1"/>
        <pt x="369" y="403" on="0"/>
        <pt x="369" y="396" on="1"/>
        <pt x="369" y="309" on="1"/>
        <pt x="237" y="309" on="1"/>
      </contour>
    </TTGlyph>
    <TTGlyph name="Euro" xMin="31" yMin="-4" xMax="590" yMax="691">
      <contour>
        <pt x="590" y="65" on="1"/>
        <pt x="511" y="-4" on="0"/>
        <pt x="400" y="-4" on="1"/>
        <pt x="172" y="-4" on="0"/>
        <pt x="114" y="205" on="1"/>
        <pt x="31" y="205" on="1"/>
        <pt x="31" y="304" on="1"/>
        <pt x="99" y="304" on="1"/>
        <pt x="98" y="312" on="0"/>
        <pt x="98" y="321" on="1"/>
        <pt x="98" y="350" on="1"/>
        <pt x="31" y="350" on="1"/>
        <pt x="31" y="450" on="1"/>
        <pt x="109" y="450" on="1"/>
        <pt x="134" y="565" on="0"/>
        <pt x="212" y="630" on="1"/>
        <pt x="285" y="691" on="0"/>
        <pt x="389" y="691" on="1"/>
        <pt x="476" y="691" on="0"/>
        <pt x="558" y="667" on="1"/>
        <pt x="573" y="550" on="0"/>
        <pt x="578" y="491" on="1"/>
        <pt x="497" y="491" on="1"/>
        <pt x="445" y="580" on="1"/>
        <pt x="437" y="581" on="0"/>
        <pt x="418" y="586" on="0"/>
        <pt x="399" y="586" on="1"/>
        <pt x="275" y="586" on="0"/>
        <pt x="244" y="450" on="1"/>
        <pt x="486" y="450" on="1"/>
        <pt x="486" y="348" on="1"/>
        <pt x="233" y="348" on="1"/>
        <pt x="233" y="326" on="0"/>
        <pt x="235" y="304" on="1"/>
        <pt x="486" y="304" on="1"/>
        <pt x="486" y="205" on="1"/>
        <pt x="255" y="205" on="1"/>
        <pt x="293" y="101" on="0"/>
        <pt x="401" y="101" on="1"/>
        <pt x="452" y="101" on="0"/>
        <pt x="532" y="138" on="0"/>
        <pt x="553" y="156" on="1"/>
      </contour>
    </TTGlyph>
    <TTGlyph name="F" xMin="39" yMin="0" xMax="516" yMax="690">
      <contour>
        <pt x="398" y="0" on="1"/>
        <pt x="53" y="0" on="1"/>
        <pt x="39" y="88" on="1"/>
        <pt x="104" y="101" on="1"/>
        <pt x="104" y="594" on="1"/>
        <pt x="41" y="601" on="1"/>
        <pt x="41" y="690" on="1"/>
        <pt x="497" y="690" on="1"/>
        <pt x="516" y="485" on="1"/>
        <pt x="440" y="485" on="1"/>
        <pt x="397" y="585" on="1"/>
        <pt x="235" y="585" on="1"/>
        <pt x="235" y="407" on="1"/>
        <pt x="387" y="407" on="1"/>
        <pt x="387" y="302" on="1"/>
        <pt x="235" y="302" on="1"/>
        <pt x="235" y="105" on="1"/>
        <pt x="405" y="79" on="1"/>
      </contour>
    </TTGlyph>
    <TTGlyph name="G" xMin="27" yMin="-4" xMax="572" yMax="692">
      <contour>
        <pt x="411" y="98" on="1"/>
        <pt x="431" y="98" on="0"/>
        <pt x="441" y="100" on="1"/>
        <pt x="441" y="229" on="1"/>
        <pt x="338" y="243" on="1"/>
        <pt x="356" y="324" on="1"/>
        <pt x="572" y="324" on="1"/>
        <pt x="572" y="9" on="1"/>
        <pt x="481" y="-4" on="0"/>
        <pt x="310" y="-4" on="0"/>
        <pt x="182" y="36" on="0"/>
        <pt x="134" y="78" on="1"/>
        <pt x="27" y="170" on="0"/>
        <pt x="27" y="337" on="1"/>
        <pt x="27" y="501" on="0"/>
        <pt x="126" y="598" on="1"/>
        <pt x="222" y="692" on="0"/>
        <pt x="374" y="692" on="1"/>
        <pt x="455" y="692" on="0"/>
        <pt x="522" y="674" on="1"/>
        <pt x="539" y="669" on="0"/>
        <pt x="547" y="667" on="1"/>
        <pt x="565" y="461" on="1"/>
        <pt x="484" y="461" on="1"/>
        <pt x="433" y="584" on="1"/>
        <pt x="406" y="587" on="0"/>
        <pt x="330" y="587" on="0"/>
        <pt x="254" y="552" on="0"/>
        <pt x="226" y="519" on="1"/>
        <pt x="164" y="448" on="0"/>
        <pt x="164" y="337" on="1"/>
        <pt x="164" y="230" on="0"/>
        <pt x="227" y="165" on="1"/>
        <pt x="292" y="98" on="0"/>
      </contour>
    </TTGlyph>
    <TTGlyph name="H" xMin="40" yMin="0" xMax="667" yMax="690">
      <contour>
        <pt x="665" y="68" on="1"/>
        <pt x="664" y="15" on="1"/>
        <pt x="664" y="0" on="1"/>
        <pt x="418" y="0" on="1"/>
        <pt x="403" y="89" on="1"/>
        <pt x="461" y="102" on="1"/>
        <pt x="461" y="302" on="1"/>
        <pt x="236" y="302" on="1"/>
        <pt x="236" y="99" on="1"/>
        <pt x="299" y="87" on="1"/>
        <pt x="299" y="68" on="1"/>
        <pt x="300" y="15" on="1"/>
        <pt x="300" y="0" on="1"/>
        <pt x="55" y="0" on="1"/>
        <pt x="40" y="89" on="1"/>
        <pt x="105" y="102" on="1"/>
        <pt x="105" y="592" on="1"/>
        <pt x="42" y="599" on="1"/>
        <pt x="42" y="690" on="1"/>
        <pt x="286" y="690" on="1"/>
        <pt x="301" y="597" on="1"/>
        <pt x="236" y="585" on="1"/>
        <pt x="236" y="407" on="1"/>
        <pt x="461" y="407" on="1"/>
        <pt x="461" y="592" on="1"/>
        <pt x="405" y="599" on="1"/>
        <pt x="405" y="690" on="1"/>
        <pt x="652" y="690" on="1"/>
        <pt x="667" y="597" on="1"/>
        <pt x="592" y="585" on="1"/>
        <pt x="592" y="99" on="1"/>
        <pt x="665" y="87" on="1"/>
      </contour>
    </TTGlyph>
    <TTGlyph name="I" xMin="37" yMin="0" xMax="314" yMax="690">
      <contour>
        <pt x="312" y="68" on="1"/>
        <pt x="311" y="15" on="1"/>
        <pt x="311" y="0" on="1"/>
        <pt x="51" y="0" on="1"/>
        <pt x="37" y="89" on="1"/>
        <pt x="107" y="102" on="1"/>
        <pt x="107" y="592" on="1"/>
        <pt x="39" y="599" on="1"/>
        <pt x="39" y="690" on="1"/>
        <pt x="299" y="690" on="1"/>
        <pt x="314" y="597" on="1"/>
        <pt x="238" y="585" on="1"/>
        <pt x="238" y="99" on="1"/>
        <pt x="312" y="87" on="1"/>
      </contour>
    </TTGlyph>
    <TTGlyph name="Iacute" xMin="37" yMin="0" xMax="315" yMax="974">
      <contour>
        <pt x="312" y="68" on="1"/>
        <pt x="311" y="15" on="1"/>
        <pt x="311" y="0" on="1"/>
        <pt x="51" y="0" on="1"/>
        <pt x="37" y="89" on="1"/>
        <pt x="107" y="102" on="1"/>
        <pt x="107" y="593" on="1"/>
        <pt x="39" y="600" on="1"/>
        <pt x="39" y="691" on="1"/>
        <pt x="299" y="691" on="1"/>
        <pt x="314" y="598" on="1"/>
        <pt x="238" y="586" on="1"/>
        <pt x="238" y="99" on="1"/>
        <pt x="312" y="87" on="1"/>
      </contour>
      <contour>
        <pt x="71" y="795" on="1"/>
        <pt x="200" y="959" on="1"/>
        <pt x="237" y="974" on="1"/>
        <pt x="315" y="865" on="1"/>
        <pt x="118" y="741" on="1"/>
      </contour>
    </TTGlyph>
    <TTGlyph name="Icircumflex" xMin="-14" yMin="0" xMax="366" yMax="903">
      <contour>
        <pt x="312" y="68" on="1"/>
        <pt x="311" y="15" on="1"/>
        <pt x="311" y="0" on="1"/>
        <pt x="51" y="0" on="1"/>
        <pt x="37" y="89" on="1"/>
        <pt x="107" y="102" on="1"/>
        <pt x="107" y="593" on="1"/>
        <pt x="39" y="600" on="1"/>
        <pt x="39" y="691" on="1"/>
        <pt x="299" y="691" on="1"/>
        <pt x="314" y="598" on="1"/>
        <pt x="238" y="586" on="1"/>
        <pt x="238" y="99" on="1"/>
        <pt x="312" y="87" on="1"/>
      </contour>
      <contour>
        <pt x="-14" y="737" on="1"/>
        <pt x="157" y="903" on="1"/>
        <pt x="194" y="903" on="1"/>
        <pt x="366" y="736" on="1"/>
        <pt x="359" y="724" on="1"/>
        <pt x="273" y="724" on="1"/>
        <pt x="175" y="782" on="1"/>
        <pt x="77" y="724" on="1"/>
        <pt x="-8" y="724" on="1"/>
      </contour>
    </TTGlyph>
    <TTGlyph name="Idieresis" xMin="23" yMin="0" xMax="336" yMax="873">
      <contour>
        <pt x="312" y="68" on="1"/>
        <pt x="311" y="15" on="1"/>
        <pt x="311" y="0" on="1"/>
        <pt x="51" y="0" on="1"/>
        <pt x="37" y="89" on="1"/>
        <pt x="107" y="102" on="1"/>
        <pt x="107" y="593" on="1"/>
        <pt x="39" y="600" on="1"/>
        <pt x="39" y="691" on="1"/>
        <pt x="299" y="691" on="1"/>
        <pt x="314" y="598" on="1"/>
        <pt x="238" y="586" on="1"/>
        <pt x="238" y="99" on="1"/>
        <pt x="312" y="87" on="1"/>
      </contour>
      <contour>
        <pt x="23" y="804" on="1"/>
        <pt x="23" y="833" on="0"/>
        <pt x="63" y="873" on="0"/>
        <pt x="120" y="873" on="0"/>
        <pt x="160" y="833" on="0"/>
        <pt x="160" y="804" on="1"/>
        <pt x="160" y="775" on="0"/>
        <pt x="120" y="736" on="0"/>
        <pt x="63" y="736" on="0"/>
        <pt x="23" y="775" on="0"/>
      </contour>
      <contour>
        <pt x="201" y="804" on="1"/>
        <pt x="201" y="833" on="0"/>
        <pt x="240" y="873" on="0"/>
        <pt x="269" y="873" on="1"/>
        <pt x="298" y="873" on="0"/>
        <pt x="336" y="833" on="0"/>
        <pt x="336" y="804" on="1"/>
        <pt x="336" y="775" on="0"/>
        <pt x="298" y="736" on="0"/>
        <pt x="269" y="736" on="1"/>
        <pt x="240" y="736" on="0"/>
        <pt x="201" y="775" on="0"/>
      </contour>
    </TTGlyph>
    <TTGlyph name="Igrave" xMin="37" yMin="0" xMax="314" yMax="959">
      <contour>
        <pt x="312" y="68" on="1"/>
        <pt x="311" y="15" on="1"/>
        <pt x="311" y="0" on="1"/>
        <pt x="51" y="0" on="1"/>
        <pt x="37" y="89" on="1"/>
        <pt x="107" y="102" on="1"/>
        <pt x="107" y="593" on="1"/>
        <pt x="39" y="600" on="1"/>
        <pt x="39" y="691" on="1"/>
        <pt x="299" y="691" on="1"/>
        <pt x="314" y="598" on="1"/>
        <pt x="238" y="586" on="1"/>
        <pt x="238" y="99" on="1"/>
        <pt x="312" y="87" on="1"/>
      </contour>
      <contour>
        <pt x="241" y="724" on="1"/>
        <pt x="58" y="868" on="1"/>
        <pt x="135" y="959" on="1"/>
        <pt x="170" y="942" on="1"/>
        <pt x="282" y="765" on="1"/>
      </contour>
    </TTGlyph>
    <TTGlyph name="J" xMin="2" yMin="-4" xMax="372" yMax="690">
      <contour>
        <pt x="304" y="175" on="1"/>
        <pt x="304" y="71" on="0"/>
        <pt x="254" y="28" on="1"/>
        <pt x="217" y="-4" on="0"/>
        <pt x="159" y="-4" on="1"/>
        <pt x="94" y="-4" on="0"/>
        <pt x="31" y="37" on="1"/>
        <pt x="14" y="48" on="0"/>
        <pt x="2" y="59" on="1"/>
        <pt x="72" y="160" on="1"/>
        <pt x="101" y="137" on="0"/>
        <pt x="142" y="110" on="0"/>
        <pt x="156" y="110" on="1"/>
        <pt x="173" y="110" on="0"/>
        <pt x="173" y="136" on="1"/>
        <pt x="173" y="585" on="1"/>
        <pt x="93" y="597" on="1"/>
        <pt x="108" y="690" on="1"/>
        <pt x="372" y="690" on="1"/>
        <pt x="372" y="599" on="1"/>
        <pt x="304" y="592" on="1"/>
      </contour>
    </TTGlyph>
    <TTGlyph name="K" xMin="37" yMin="0" xMax="618" yMax="690">
      <contour>
        <pt x="304" y="68" on="1"/>
        <pt x="305" y="15" on="1"/>
        <pt x="305" y="0" on="1"/>
        <pt x="51" y="0" on="1"/>
        <pt x="37" y="89" on="1"/>
        <pt x="107" y="102" on="1"/>
        <pt x="107" y="592" on="1"/>
        <pt x="39" y="597" on="1"/>
        <pt x="39" y="690" on="1"/>
        <pt x="292" y="690" on="1"/>
        <pt x="307" y="600" on="1"/>
        <pt x="238" y="585" on="1"/>
        <pt x="238" y="345" on="1"/>
        <pt x="439" y="585" on="1"/>
        <pt x="362" y="601" on="1"/>
        <pt x="362" y="690" on="1"/>
        <pt x="614" y="690" on="1"/>
        <pt x="614" y="601" on="1"/>
        <pt x="575" y="593" on="1"/>
        <pt x="544" y="553" on="0"/>
        <pt x="512" y="516" on="1"/>
        <pt x="443" y="438" on="0"/>
        <pt x="402" y="391" on="1"/>
        <pt x="564" y="97" on="1"/>
        <pt x="618" y="87" on="1"/>
        <pt x="618" y="0" on="1"/>
        <pt x="460" y="0" on="1"/>
        <pt x="314" y="291" on="1"/>
        <pt x="275" y="247" on="0"/>
        <pt x="238" y="202" on="1"/>
        <pt x="238" y="99" on="1"/>
        <pt x="304" y="87" on="1"/>
      </contour>
    </TTGlyph>
    <TTGlyph name="L" xMin="39" yMin="0" xMax="520" yMax="690">
      <contour>
        <pt x="295" y="690" on="1"/>
        <pt x="310" y="599" on="1"/>
        <pt x="235" y="585" on="1"/>
        <pt x="235" y="105" on="1"/>
        <pt x="404" y="105" on="1"/>
        <pt x="441" y="204" on="1"/>
        <pt x="520" y="204" on="1"/>
        <pt x="499" y="0" on="1"/>
        <pt x="53" y="0" on="1"/>
        <pt x="39" y="88" on="1"/>
        <pt x="104" y="101" on="1"/>
        <pt x="104" y="594" on="1"/>
        <pt x="41" y="601" on="1"/>
        <pt x="41" y="690" on="1"/>
      </contour>
    </TTGlyph>
    <TTGlyph name="M" xMin="45" yMin="0" xMax="849" yMax="690">
      <contour>
        <pt x="250" y="87" on="1"/>
        <pt x="251" y="40" on="1"/>
        <pt x="251" y="0" on="1"/>
        <pt x="51" y="0" on="1"/>
        <pt x="45" y="87" on="1"/>
        <pt x="104" y="95" on="1"/>
        <pt x="104" y="590" on="1"/>
        <pt x="49" y="596" on="1"/>
        <pt x="49" y="690" on="1"/>
        <pt x="306" y="690" on="1"/>
        <pt x="450" y="178" on="1"/>
        <pt x="595" y="690" on="1"/>
        <pt x="834" y="690" on="1"/>
        <pt x="849" y="597" on="1"/>
        <pt x="794" y="585" on="1"/>
        <pt x="794" y="94" on="1"/>
        <pt x="845" y="87" on="1"/>
        <pt x="845" y="0" on="1"/>
        <pt x="633" y="0" on="1"/>
        <pt x="624" y="90" on="1"/>
        <pt x="668" y="103" on="1"/>
        <pt x="668" y="596" on="1"/>
        <pt x="501" y="13" on="1"/>
        <pt x="367" y="13" on="1"/>
        <pt x="204" y="589" on="1"/>
        <pt x="204" y="98" on="1"/>
      </contour>
    </TTGlyph>
    <TTGlyph name="N" xMin="37" yMin="0" xMax="697" yMax="690">
      <contour>
        <pt x="262" y="65" on="1"/>
        <pt x="261" y="13" on="1"/>
        <pt x="261" y="0" on="1"/>
        <pt x="53" y="0" on="1"/>
        <pt x="37" y="87" on="1"/>
        <pt x="106" y="100" on="1"/>
        <pt x="106" y="590" on="1"/>
        <pt x="42" y="597" on="1"/>
        <pt x="42" y="690" on="1"/>
        <pt x="298" y="690" on="1"/>
        <pt x="525" y="96" on="1"/>
        <pt x="525" y="592" on="1"/>
        <pt x="467" y="599" on="1"/>
        <pt x="467" y="690" on="1"/>
        <pt x="682" y="690" on="1"/>
        <pt x="697" y="597" on="1"/>
        <pt x="630" y="585" on="1"/>
        <pt x="630" y="0" on="1"/>
        <pt x="428" y="0" on="1"/>
        <pt x="211" y="562" on="1"/>
        <pt x="211" y="104" on="1"/>
        <pt x="262" y="88" on="1"/>
      </contour>
    </TTGlyph>
    <TTGlyph name="Ntilde" xMin="37" yMin="0" xMax="697" yMax="881">
      <contour>
        <pt x="262" y="65" on="1"/>
        <pt x="261" y="13" on="1"/>
        <pt x="261" y="0" on="1"/>
        <pt x="53" y="0" on="1"/>
        <pt x="37" y="87" on="1"/>
        <pt x="106" y="100" on="1"/>
        <pt x="106" y="590" on="1"/>
        <pt x="42" y="597" on="1"/>
        <pt x="42" y="690" on="1"/>
        <pt x="298" y="690" on="1"/>
        <pt x="525" y="96" on="1"/>
        <pt x="525" y="592" on="1"/>
        <pt x="467" y="599" on="1"/>
        <pt x="467" y="690" on="1"/>
        <pt x="682" y="690" on="1"/>
        <pt x="697" y="597" on="1"/>
        <pt x="630" y="585" on="1"/>
        <pt x="630" y="0" on="1"/>
        <pt x="428" y="0" on="1"/>
        <pt x="211" y="562" on="1"/>
        <pt x="211" y="104" on="1"/>
        <pt x="262" y="88" on="1"/>
      </contour>
      <contour>
        <pt x="486" y="881" on="1"/>
        <pt x="567" y="805" on="1"/>
        <pt x="545" y="775" on="0"/>
        <pt x="479" y="727" on="0"/>
        <pt x="421" y="727" on="0"/>
        <pt x="388" y="741" on="0"/>
        <pt x="358" y="758" on="0"/>
        <pt x="327" y="772" on="0"/>
        <pt x="277" y="772" on="0"/>
        <pt x="243" y="737" on="0"/>
        <pt x="237" y="718" on="1"/>
        <pt x="163" y="762" on="1"/>
        <pt x="163" y="781" on="1"/>
        <pt x="173" y="812" on="0"/>
        <pt x="197" y="833" on="1"/>
        <pt x="243" y="873" on="0"/>
        <pt x="295" y="873" on="1"/>
        <pt x="347" y="873" on="0"/>
        <pt x="412" y="831" on="1"/>
        <pt x="425" y="823" on="0"/>
        <pt x="432" y="823" on="1"/>
      </contour>
    </TTGlyph>
    <TTGlyph name="O" xMin="36" yMin="-4" xMax="619" yMax="693">
      <contour>
        <pt x="328" y="-4" on="1"/>
        <pt x="190" y="-4" on="0"/>
        <pt x="111" y="94" on="1"/>
        <pt x="36" y="187" on="0"/>
        <pt x="36" y="345" on="1"/>
        <pt x="36" y="503" on="0"/>
        <pt x="111" y="596" on="1"/>
        <pt x="189" y="693" on="0"/>
        <pt x="328" y="693" on="1"/>
        <pt x="468" y="693" on="0"/>
        <pt x="544" y="596" on="1"/>
        <pt x="619" y="502" on="0"/>
        <pt x="619" y="345" on="1"/>
        <pt x="619" y="188" on="0"/>
        <pt x="544" y="94" on="1"/>
        <pt x="467" y="-4" on="0"/>
      </contour>
      <contour>
        <pt x="173" y="343" on="1"/>
        <pt x="173" y="240" on="0"/>
        <pt x="215" y="171" on="1"/>
        <pt x="257" y="101" on="0"/>
        <pt x="328" y="101" on="1"/>
        <pt x="398" y="101" on="0"/>
        <pt x="440" y="171" on="1"/>
        <pt x="482" y="240" on="0"/>
        <pt x="482" y="343" on="1"/>
        <pt x="482" y="448" on="0"/>
        <pt x="440" y="517" on="1"/>
        <pt x="397" y="588" on="0"/>
        <pt x="328" y="588" on="1"/>
        <pt x="258" y="588" on="0"/>
        <pt x="215" y="517" on="1"/>
        <pt x="173" y="448" on="0"/>
      </contour>
    </TTGlyph>
    <TTGlyph name="OE" xMin="36" yMin="-1" xMax="844" yMax="691">
      <contour>
        <pt x="377" y="0" on="1"/>
        <pt x="328" y="-1" on="1"/>
        <pt x="189" y="-1" on="0"/>
        <pt x="111" y="96" on="1"/>
        <pt x="36" y="188" on="0"/>
        <pt x="36" y="345" on="1"/>
        <pt x="36" y="497" on="0"/>
        <pt x="117" y="595" on="1"/>
        <pt x="196" y="691" on="0"/>
        <pt x="318" y="691" on="1"/>
        <pt x="821" y="691" on="1"/>
        <pt x="840" y="487" on="1"/>
        <pt x="762" y="487" on="1"/>
        <pt x="721" y="586" on="1"/>
        <pt x="559" y="586" on="1"/>
        <pt x="559" y="408" on="1"/>
        <pt x="711" y="408" on="1"/>
        <pt x="711" y="303" on="1"/>
        <pt x="559" y="303" on="1"/>
        <pt x="559" y="105" on="1"/>
        <pt x="728" y="105" on="1"/>
        <pt x="765" y="204" on="1"/>
        <pt x="844" y="204" on="1"/>
        <pt x="823" y="0" on="1"/>
      </contour>
      <contour>
        <pt x="428" y="562" on="1"/>
        <pt x="404" y="586" on="0"/>
        <pt x="305" y="586" on="0"/>
        <pt x="239" y="549" on="0"/>
        <pt x="217" y="516" on="1"/>
        <pt x="173" y="450" on="0"/>
        <pt x="173" y="343" on="1"/>
        <pt x="173" y="174" on="0"/>
        <pt x="268" y="122" on="1"/>
        <pt x="301" y="104" on="0"/>
        <pt x="334" y="104" on="1"/>
        <pt x="398" y="104" on="0"/>
        <pt x="428" y="129" on="1"/>
      </contour>
    </TTGlyph>
    <TTGlyph name="Oacute" xMin="36" yMin="-4" xMax="619" yMax="974">
      <contour>
        <pt x="328" y="-4" on="1"/>
        <pt x="190" y="-4" on="0"/>
        <pt x="111" y="94" on="1"/>
        <pt x="36" y="187" on="0"/>
        <pt x="36" y="345" on="1"/>
        <pt x="36" y="503" on="0"/>
        <pt x="111" y="596" on="1"/>
        <pt x="189" y="693" on="0"/>
        <pt x="328" y="693" on="1"/>
        <pt x="468" y="693" on="0"/>
        <pt x="544" y="596" on="1"/>
        <pt x="619" y="502" on="0"/>
        <pt x="619" y="345" on="1"/>
        <pt x="619" y="188" on="0"/>
        <pt x="544" y="94" on="1"/>
        <pt x="467" y="-4" on="0"/>
      </contour>
      <contour>
        <pt x="173" y="343" on="1"/>
        <pt x="173" y="240" on="0"/>
        <pt x="215" y="171" on="1"/>
        <pt x="257" y="101" on="0"/>
        <pt x="328" y="101" on="1"/>
        <pt x="398" y="101" on="0"/>
        <pt x="440" y="171" on="1"/>
        <pt x="482" y="240" on="0"/>
        <pt x="482" y="343" on="1"/>
        <pt x="482" y="448" on="0"/>
        <pt x="440" y="517" on="1"/>
        <pt x="397" y="588" on="0"/>
        <pt x="328" y="588" on="1"/>
        <pt x="258" y="588" on="0"/>
        <pt x="215" y="517" on="1"/>
        <pt x="173" y="448" on="0"/>
      </contour>
      <contour>
        <pt x="229" y="795" on="1"/>
        <pt x="358" y="959" on="1"/>
        <pt x="395" y="974" on="1"/>
        <pt x="473" y="865" on="1"/>
        <pt x="276" y="741" on="1"/>
      </contour>
    </TTGlyph>
    <TTGlyph name="Ocircumflex" xMin="36" yMin="-4" xMax="619" yMax="903">
      <contour>
        <pt x="147" y="737" on="1"/>
        <pt x="318" y="903" on="1"/>
        <pt x="355" y="903" on="1"/>
        <pt x="527" y="736" on="1"/>
        <pt x="520" y="724" on="1"/>
        <pt x="434" y="724" on="1"/>
        <pt x="336" y="782" on="1"/>
        <pt x="238" y="724" on="1"/>
        <pt x="153" y="724" on="1"/>
      </contour>
      <contour>
        <pt x="328" y="-4" on="1"/>
        <pt x="190" y="-4" on="0"/>
        <pt x="111" y="94" on="1"/>
        <pt x="36" y="187" on="0"/>
        <pt x="36" y="345" on="1"/>
        <pt x="36" y="503" on="0"/>
        <pt x="111" y="596" on="1"/>
        <pt x="189" y="693" on="0"/>
        <pt x="328" y="693" on="1"/>
        <pt x="468" y="693" on="0"/>
        <pt x="544" y="596" on="1"/>
        <pt x="619" y="502" on="0"/>
        <pt x="619" y="345" on="1"/>
        <pt x="619" y="188" on="0"/>
        <pt x="544" y="94" on="1"/>
        <pt x="467" y="-4" on="0"/>
      </contour>
      <contour>
        <pt x="173" y="343" on="1"/>
        <pt x="173" y="240" on="0"/>
        <pt x="215" y="171" on="1"/>
        <pt x="257" y="101" on="0"/>
        <pt x="328" y="101" on="1"/>
        <pt x="398" y="101" on="0"/>
        <pt x="440" y="171" on="1"/>
        <pt x="482" y="240" on="0"/>
        <pt x="482" y="343" on="1"/>
        <pt x="482" y="448" on="0"/>
        <pt x="440" y="517" on="1"/>
        <pt x="397" y="588" on="0"/>
        <pt x="328" y="588" on="1"/>
        <pt x="258" y="588" on="0"/>
        <pt x="215" y="517" on="1"/>
        <pt x="173" y="448" on="0"/>
      </contour>
    </TTGlyph>
    <TTGlyph name="Odieresis" xMin="36" yMin="-4" xMax="619" yMax="873">
      <contour>
        <pt x="328" y="-4" on="1"/>
        <pt x="190" y="-4" on="0"/>
        <pt x="111" y="94" on="1"/>
        <pt x="36" y="187" on="0"/>
        <pt x="36" y="345" on="1"/>
        <pt x="36" y="503" on="0"/>
        <pt x="111" y="596" on="1"/>
        <pt x="189" y="693" on="0"/>
        <pt x="328" y="693" on="1"/>
        <pt x="468" y="693" on="0"/>
        <pt x="544" y="596" on="1"/>
        <pt x="619" y="502" on="0"/>
        <pt x="619" y="345" on="1"/>
        <pt x="619" y="188" on="0"/>
        <pt x="544" y="94" on="1"/>
        <pt x="467" y="-4" on="0"/>
      </contour>
      <contour>
        <pt x="173" y="343" on="1"/>
        <pt x="173" y="240" on="0"/>
        <pt x="215" y="171" on="1"/>
        <pt x="257" y="101" on="0"/>
        <pt x="328" y="101" on="1"/>
        <pt x="398" y="101" on="0"/>
        <pt x="440" y="171" on="1"/>
        <pt x="482" y="240" on="0"/>
        <pt x="482" y="343" on="1"/>
        <pt x="482" y="448" on="0"/>
        <pt x="440" y="517" on="1"/>
        <pt x="397" y="588" on="0"/>
        <pt x="328" y="588" on="1"/>
        <pt x="258" y="588" on="0"/>
        <pt x="215" y="517" on="1"/>
        <pt x="173" y="448" on="0"/>
      </contour>
      <contour>
        <pt x="174" y="804" on="1"/>
        <pt x="174" y="833" on="0"/>
        <pt x="214" y="873" on="0"/>
        <pt x="271" y="873" on="0"/>
        <pt x="311" y="833" on="0"/>
        <pt x="311" y="804" on="1"/>
        <pt x="311" y="775" on="0"/>
        <pt x="271" y="736" on="0"/>
        <pt x="214" y="736" on="0"/>
        <pt x="174" y="775" on="0"/>
      </contour>
      <contour>
        <pt x="352" y="804" on="1"/>
        <pt x="352" y="833" on="0"/>
        <pt x="391" y="873" on="0"/>
        <pt x="420" y="873" on="1"/>
        <pt x="449" y="873" on="0"/>
        <pt x="487" y="833" on="0"/>
        <pt x="487" y="804" on="1"/>
        <pt x="487" y="775" on="0"/>
        <pt x="449" y="736" on="0"/>
        <pt x="420" y="736" on="1"/>
        <pt x="391" y="736" on="0"/>
        <pt x="352" y="775" on="0"/>
      </contour>
    </TTGlyph>
    <TTGlyph name="Ograve" xMin="36" yMin="-4" xMax="619" yMax="959">
      <contour>
        <pt x="328" y="-4" on="1"/>
        <pt x="190" y="-4" on="0"/>
        <pt x="111" y="94" on="1"/>
        <pt x="36" y="187" on="0"/>
        <pt x="36" y="345" on="1"/>
        <pt x="36" y="503" on="0"/>
        <pt x="111" y="596" on="1"/>
        <pt x="189" y="693" on="0"/>
        <pt x="328" y="693" on="1"/>
        <pt x="468" y="693" on="0"/>
        <pt x="544" y="596" on="1"/>
        <pt x="619" y="502" on="0"/>
        <pt x="619" y="345" on="1"/>
        <pt x="619" y="188" on="0"/>
        <pt x="544" y="94" on="1"/>
        <pt x="467" y="-4" on="0"/>
      </contour>
      <contour>
        <pt x="173" y="343" on="1"/>
        <pt x="173" y="240" on="0"/>
        <pt x="215" y="171" on="1"/>
        <pt x="257" y="101" on="0"/>
        <pt x="328" y="101" on="1"/>
        <pt x="398" y="101" on="0"/>
        <pt x="440" y="171" on="1"/>
        <pt x="482" y="240" on="0"/>
        <pt x="482" y="343" on="1"/>
        <pt x="482" y="448" on="0"/>
        <pt x="440" y="517" on="1"/>
        <pt x="397" y="588" on="0"/>
        <pt x="328" y="588" on="1"/>
        <pt x="258" y="588" on="0"/>
        <pt x="215" y="517" on="1"/>
        <pt x="173" y="448" on="0"/>
      </contour>
      <contour>
        <pt x="388" y="724" on="1"/>
        <pt x="205" y="868" on="1"/>
        <pt x="282" y="959" on="1"/>
        <pt x="317" y="942" on="1"/>
        <pt x="429" y="765" on="1"/>
      </contour>
    </TTGlyph>
    <TTGlyph name="Oslash" xMin="36" yMin="-63" xMax="619" yMax="757">
      <contour>
        <pt x="515" y="627" on="1"/>
        <pt x="619" y="533" on="0"/>
        <pt x="619" y="345" on="1"/>
        <pt x="619" y="188" on="0"/>
        <pt x="544" y="94" on="1"/>
        <pt x="467" y="-4" on="0"/>
        <pt x="328" y="-4" on="1"/>
        <pt x="278" y="-4" on="0"/>
        <pt x="234" y="10" on="1"/>
        <pt x="201" y="-63" on="1"/>
        <pt x="76" y="-63" on="1"/>
        <pt x="72" y="-40" on="1"/>
        <pt x="125" y="77" on="1"/>
        <pt x="36" y="170" on="0"/>
        <pt x="36" y="345" on="1"/>
        <pt x="36" y="503" on="0"/>
        <pt x="111" y="596" on="1"/>
        <pt x="189" y="693" on="0"/>
        <pt x="328" y="693" on="1"/>
        <pt x="368" y="693" on="0"/>
        <pt x="403" y="684" on="1"/>
        <pt x="436" y="757" on="1"/>
        <pt x="563" y="757" on="1"/>
        <pt x="563" y="733" on="1"/>
      </contour>
      <contour>
        <pt x="453" y="492" on="1"/>
        <pt x="280" y="111" on="1"/>
        <pt x="301" y="101" on="0"/>
        <pt x="363" y="101" on="0"/>
        <pt x="420" y="138" on="0"/>
        <pt x="440" y="171" on="1"/>
        <pt x="482" y="240" on="0"/>
        <pt x="482" y="429" on="0"/>
      </contour>
      <contour>
        <pt x="195" y="484" on="0"/>
        <pt x="173" y="394" on="0"/>
        <pt x="173" y="275" on="0"/>
        <pt x="191" y="221" on="1"/>
        <pt x="357" y="584" on="1"/>
        <pt x="344" y="588" on="0"/>
        <pt x="292" y="588" on="0"/>
        <pt x="235" y="550" on="0"/>
      </contour>
    </TTGlyph>
    <TTGlyph name="Otilde" xMin="36" yMin="-4" xMax="619" yMax="881">
      <contour>
        <pt x="443" y="881" on="1"/>
        <pt x="524" y="805" on="1"/>
        <pt x="503" y="775" on="0"/>
        <pt x="437" y="727" on="0"/>
        <pt x="378" y="727" on="0"/>
        <pt x="345" y="741" on="0"/>
        <pt x="315" y="758" on="0"/>
        <pt x="284" y="772" on="0"/>
        <pt x="234" y="772" on="0"/>
        <pt x="201" y="737" on="0"/>
        <pt x="194" y="718" on="1"/>
        <pt x="121" y="762" on="1"/>
        <pt x="121" y="781" on="1"/>
        <pt x="132" y="813" on="0"/>
        <pt x="154" y="833" on="1"/>
        <pt x="200" y="873" on="0"/>
        <pt x="252" y="873" on="1"/>
        <pt x="305" y="873" on="0"/>
        <pt x="370" y="831" on="1"/>
        <pt x="383" y="823" on="0"/>
        <pt x="390" y="823" on="1"/>
      </contour>
      <contour>
        <pt x="328" y="-4" on="1"/>
        <pt x="190" y="-4" on="0"/>
        <pt x="111" y="94" on="1"/>
        <pt x="36" y="187" on="0"/>
        <pt x="36" y="345" on="1"/>
        <pt x="36" y="503" on="0"/>
        <pt x="111" y="596" on="1"/>
        <pt x="189" y="693" on="0"/>
        <pt x="328" y="693" on="1"/>
        <pt x="468" y="693" on="0"/>
        <pt x="544" y="596" on="1"/>
        <pt x="619" y="502" on="0"/>
        <pt x="619" y="345" on="1"/>
        <pt x="619" y="188" on="0"/>
        <pt x="544" y="94" on="1"/>
        <pt x="467" y="-4" on="0"/>
      </contour>
      <contour>
        <pt x="173" y="343" on="1"/>
        <pt x="173" y="240" on="0"/>
        <pt x="215" y="171" on="1"/>
        <pt x="257" y="101" on="0"/>
        <pt x="328" y="101" on="1"/>
        <pt x="398" y="101" on="0"/>
        <pt x="440" y="171" on="1"/>
        <pt x="482" y="240" on="0"/>
        <pt x="482" y="343" on="1"/>
        <pt x="482" y="448" on="0"/>
        <pt x="440" y="517" on="1"/>
        <pt x="397" y="588" on="0"/>
        <pt x="328" y="588" on="1"/>
        <pt x="258" y="588" on="0"/>
        <pt x="215" y="517" on="1"/>
        <pt x="173" y="448" on="0"/>
      </contour>
    </TTGlyph>
    <TTGlyph name="P" xMin="37" yMin="0" xMax="571" yMax="690">
      <contour>
        <pt x="238" y="327" on="1"/>
        <pt x="403" y="327" on="0"/>
        <pt x="426" y="406" on="1"/>
        <pt x="434" y="431" on="0"/>
        <pt x="434" y="463" on="1"/>
        <pt x="434" y="519" on="0"/>
        <pt x="366" y="585" on="0"/>
        <pt x="293" y="585" on="1"/>
        <pt x="238" y="585" on="1"/>
      </contour>
      <contour>
        <pt x="37" y="86" on="1"/>
        <pt x="107" y="100" on="1"/>
        <pt x="107" y="592" on="1"/>
        <pt x="39" y="599" on="1"/>
        <pt x="39" y="690" on="1"/>
        <pt x="289" y="690" on="1"/>
        <pt x="498" y="690" on="0"/>
        <pt x="554" y="556" on="1"/>
        <pt x="571" y="513" on="0"/>
        <pt x="571" y="460" on="1"/>
        <pt x="571" y="350" on="0"/>
        <pt x="500" y="288" on="1"/>
        <pt x="425" y="222" on="0"/>
        <pt x="285" y="222" on="1"/>
        <pt x="238" y="222" on="1"/>
        <pt x="238" y="114" on="1"/>
        <pt x="238" y="106" on="0"/>
        <pt x="247" y="103" on="0"/>
        <pt x="267" y="100" on="0"/>
        <pt x="304" y="96" on="0"/>
        <pt x="342" y="90" on="0"/>
        <pt x="378" y="85" on="0"/>
        <pt x="390" y="83" on="1"/>
        <pt x="384" y="0" on="1"/>
        <pt x="51" y="0" on="1"/>
      </contour>
    </TTGlyph>
    <TTGlyph name="Q" xMin="36" yMin="-227" xMax="619" yMax="693">
      <contour>
        <pt x="314" y="-15" on="1"/>
        <pt x="522" y="-91" on="1"/>
        <pt x="529" y="-129" on="1"/>
        <pt x="435" y="-227" on="1"/>
        <pt x="259" y="-72" on="1"/>
      </contour>
      <contour>
        <pt x="328" y="-4" on="1"/>
        <pt x="190" y="-4" on="0"/>
        <pt x="111" y="94" on="1"/>
        <pt x="36" y="187" on="0"/>
        <pt x="36" y="345" on="1"/>
        <pt x="36" y="503" on="0"/>
        <pt x="111" y="596" on="1"/>
        <pt x="189" y="693" on="0"/>
        <pt x="328" y="693" on="1"/>
        <pt x="468" y="693" on="0"/>
        <pt x="544" y="596" on="1"/>
        <pt x="619" y="502" on="0"/>
        <pt x="619" y="345" on="1"/>
        <pt x="619" y="188" on="0"/>
        <pt x="544" y="94" on="1"/>
        <pt x="467" y="-4" on="0"/>
      </contour>
      <contour>
        <pt x="173" y="343" on="1"/>
        <pt x="173" y="240" on="0"/>
        <pt x="215" y="171" on="1"/>
        <pt x="257" y="101" on="0"/>
        <pt x="328" y="101" on="1"/>
        <pt x="398" y="101" on="0"/>
        <pt x="440" y="171" on="1"/>
        <pt x="482" y="240" on="0"/>
        <pt x="482" y="343" on="1"/>
        <pt x="482" y="448" on="0"/>
        <pt x="440" y="517" on="1"/>
        <pt x="397" y="588" on="0"/>
        <pt x="328" y="588" on="1"/>
        <pt x="258" y="588" on="0"/>
        <pt x="215" y="517" on="1"/>
        <pt x="173" y="448" on="0"/>
      </contour>
    </TTGlyph>
    <TTGlyph name="R" xMin="38" yMin="0" xMax="584" yMax="690">
      <contour>
        <pt x="572" y="465" on="1"/>
        <pt x="572" y="321" on="0"/>
        <pt x="433" y="264" on="1"/>
        <pt x="521" y="97" on="1"/>
        <pt x="584" y="87" on="1"/>
        <pt x="584" y="0" on="1"/>
        <pt x="415" y="0" on="1"/>
        <pt x="311" y="234" on="1"/>
        <pt x="276" y="231" on="0"/>
        <pt x="238" y="231" on="1"/>
        <pt x="238" y="95" on="1"/>
        <pt x="290" y="87" on="1"/>
        <pt x="290" y="0" on="1"/>
        <pt x="47" y="0" on="1"/>
        <pt x="38" y="85" on="1"/>
        <pt x="107" y="99" on="1"/>
        <pt x="107" y="592" on="1"/>
        <pt x="39" y="599" on="1"/>
        <pt x="39" y="690" on="1"/>
        <pt x="284" y="690" on="1"/>
        <pt x="427" y="690" on="0"/>
        <pt x="502" y="627" on="1"/>
        <pt x="572" y="567" on="0"/>
      </contour>
      <contour>
        <pt x="238" y="337" on="1"/>
        <pt x="244" y="336" on="0"/>
        <pt x="253" y="336" on="1"/>
        <pt x="271" y="336" on="1"/>
        <pt x="354" y="336" on="0"/>
        <pt x="398" y="373" on="1"/>
        <pt x="437" y="406" on="0"/>
        <pt x="437" y="462" on="1"/>
        <pt x="437" y="525" on="0"/>
        <pt x="396" y="552" on="1"/>
        <pt x="349" y="584" on="0"/>
        <pt x="238" y="584" on="1"/>
      </contour>
    </TTGlyph>
    <TTGlyph name="S" xMin="36" yMin="-4" xMax="489" yMax="692">
      <contour>
        <pt x="333" y="130" on="0"/>
        <pt x="352" y="161" on="0"/>
        <pt x="352" y="203" on="0"/>
        <pt x="337" y="232" on="0"/>
        <pt x="321" y="244" on="1"/>
        <pt x="302" y="259" on="0"/>
        <pt x="187" y="313" on="0"/>
        <pt x="121" y="349" on="0"/>
        <pt x="96" y="372" on="1"/>
        <pt x="44" y="423" on="0"/>
        <pt x="44" y="504" on="1"/>
        <pt x="44" y="588" on="0"/>
        <pt x="112" y="642" on="1"/>
        <pt x="177" y="692" on="0"/>
        <pt x="278" y="692" on="1"/>
        <pt x="372" y="692" on="0"/>
        <pt x="468" y="665" on="1"/>
        <pt x="483" y="475" on="1"/>
        <pt x="399" y="475" on="1"/>
        <pt x="350" y="581" on="1"/>
        <pt x="311" y="587" on="0"/>
        <pt x="229" y="587" on="0"/>
        <pt x="180" y="543" on="0"/>
        <pt x="180" y="491" on="0"/>
        <pt x="206" y="460" on="0"/>
        <pt x="226" y="448" on="1"/>
        <pt x="250" y="433" on="0"/>
        <pt x="359" y="382" on="0"/>
        <pt x="425" y="341" on="0"/>
        <pt x="446" y="317" on="1"/>
        <pt x="489" y="270" on="0"/>
        <pt x="489" y="145" on="0"/>
        <pt x="445" y="67" on="0"/>
        <pt x="410" y="42" on="1"/>
        <pt x="344" y="-4" on="0"/>
        <pt x="240" y="-4" on="1"/>
        <pt x="148" y="-4" on="0"/>
        <pt x="36" y="41" on="1"/>
        <pt x="56" y="234" on="1"/>
        <pt x="140" y="227" on="1"/>
        <pt x="148" y="116" on="1"/>
        <pt x="161" y="113" on="0"/>
        <pt x="206" y="101" on="0"/>
        <pt x="258" y="101" on="0"/>
        <pt x="300" y="110" on="0"/>
      </contour>
    </TTGlyph>
    <TTGlyph name="T" xMin="10" yMin="0" xMax="606" yMax="690">
      <contour>
        <pt x="128" y="80" on="1"/>
        <pt x="243" y="102" on="1"/>
        <pt x="243" y="585" on="1"/>
        <pt x="130" y="585" on="1"/>
        <pt x="87" y="485" on="1"/>
        <pt x="10" y="485" on="1"/>
        <pt x="29" y="690" on="1"/>
        <pt x="584" y="690" on="1"/>
        <pt x="606" y="486" on="1"/>
        <pt x="530" y="486" on="1"/>
        <pt x="486" y="585" on="1"/>
        <pt x="372" y="585" on="1"/>
        <pt x="372" y="102" on="1"/>
        <pt x="488" y="80" on="1"/>
        <pt x="478" y="0" on="1"/>
        <pt x="138" y="0" on="1"/>
      </contour>
    </TTGlyph>
    <TTGlyph name="Thorn" xMin="40" yMin="0" xMax="545" yMax="691">
      <contour>
        <pt x="240" y="558" on="1"/>
        <pt x="276" y="559" on="1"/>
        <pt x="407" y="559" on="0"/>
        <pt x="478" y="502" on="1"/>
        <pt x="545" y="447" on="0"/>
        <pt x="545" y="352" on="1"/>
        <pt x="545" y="257" on="0"/>
        <pt x="479" y="203" on="1"/>
        <pt x="409" y="146" on="0"/>
        <pt x="279" y="146" on="1"/>
        <pt x="260" y="146" on="1"/>
        <pt x="251" y="146" on="0"/>
        <pt x="240" y="147" on="1"/>
        <pt x="240" y="99" on="1"/>
        <pt x="354" y="87" on="1"/>
        <pt x="354" y="0" on="1"/>
        <pt x="40" y="0" on="1"/>
        <pt x="40" y="89" on="1"/>
        <pt x="108" y="102" on="1"/>
        <pt x="108" y="593" on="1"/>
        <pt x="40" y="600" on="1"/>
        <pt x="40" y="691" on="1"/>
        <pt x="301" y="691" on="1"/>
        <pt x="315" y="598" on="1"/>
        <pt x="240" y="586" on="1"/>
      </contour>
      <contour>
        <pt x="409" y="352" on="1"/>
        <pt x="409" y="400" on="0"/>
        <pt x="377" y="422" on="1"/>
        <pt x="337" y="451" on="0"/>
        <pt x="240" y="453" on="1"/>
        <pt x="240" y="251" on="1"/>
        <pt x="381" y="251" on="0"/>
        <pt x="402" y="312" on="1"/>
        <pt x="409" y="331" on="0"/>
      </contour>
    </TTGlyph>
    <TTGlyph name="U" xMin="21" yMin="-4" xMax="643" yMax="690">
      <contour>
        <pt x="353" y="101" on="1"/>
        <pt x="479" y="101" on="0"/>
        <pt x="479" y="251" on="1"/>
        <pt x="479" y="593" on="1"/>
        <pt x="415" y="602" on="1"/>
        <pt x="415" y="690" on="1"/>
        <pt x="643" y="690" on="1"/>
        <pt x="643" y="599" on="1"/>
        <pt x="584" y="586" on="1"/>
        <pt x="584" y="248" on="1"/>
        <pt x="584" y="131" on="0"/>
        <pt x="466" y="-4" on="0"/>
        <pt x="353" y="-4" on="1"/>
        <pt x="208" y="-4" on="0"/>
        <pt x="146" y="62" on="1"/>
        <pt x="88" y="124" on="0"/>
        <pt x="88" y="248" on="1"/>
        <pt x="88" y="592" on="1"/>
        <pt x="21" y="601" on="1"/>
        <pt x="21" y="690" on="1"/>
        <pt x="290" y="690" on="1"/>
        <pt x="290" y="602" on="1"/>
        <pt x="219" y="591" on="1"/>
        <pt x="219" y="250" on="1"/>
        <pt x="219" y="175" on="0"/>
        <pt x="278" y="101" on="0"/>
      </contour>
    </TTGlyph>
    <TTGlyph name="Uacute" xMin="21" yMin="-4" xMax="643" yMax="974">
      <contour>
        <pt x="353" y="101" on="1"/>
        <pt x="479" y="101" on="0"/>
        <pt x="479" y="251" on="1"/>
        <pt x="479" y="594" on="1"/>
        <pt x="415" y="603" on="1"/>
        <pt x="415" y="691" on="1"/>
        <pt x="643" y="691" on="1"/>
        <pt x="643" y="600" on="1"/>
        <pt x="584" y="587" on="1"/>
        <pt x="584" y="248" on="1"/>
        <pt x="584" y="131" on="0"/>
        <pt x="466" y="-4" on="0"/>
        <pt x="353" y="-4" on="1"/>
        <pt x="208" y="-4" on="0"/>
        <pt x="146" y="62" on="1"/>
        <pt x="88" y="124" on="0"/>
        <pt x="88" y="248" on="1"/>
        <pt x="88" y="593" on="1"/>
        <pt x="21" y="602" on="1"/>
        <pt x="21" y="691" on="1"/>
        <pt x="290" y="691" on="1"/>
        <pt x="290" y="603" on="1"/>
        <pt x="219" y="592" on="1"/>
        <pt x="219" y="250" on="1"/>
        <pt x="219" y="175" on="0"/>
        <pt x="278" y="101" on="0"/>
      </contour>
      <contour>
        <pt x="247" y="795" on="1"/>
        <pt x="376" y="959" on="1"/>
        <pt x="413" y="974" on="1"/>
        <pt x="491" y="865" on="1"/>
        <pt x="294" y="741" on="1"/>
      </contour>
    </TTGlyph>
    <TTGlyph name="Ucircumflex" xMin="21" yMin="-4" xMax="643" yMax="903">
      <contour>
        <pt x="151" y="737" on="1"/>
        <pt x="322" y="903" on="1"/>
        <pt x="359" y="903" on="1"/>
        <pt x="531" y="736" on="1"/>
        <pt x="524" y="724" on="1"/>
        <pt x="438" y="724" on="1"/>
        <pt x="340" y="782" on="1"/>
        <pt x="242" y="724" on="1"/>
        <pt x="157" y="724" on="1"/>
      </contour>
      <contour>
        <pt x="353" y="101" on="1"/>
        <pt x="479" y="101" on="0"/>
        <pt x="479" y="251" on="1"/>
        <pt x="479" y="594" on="1"/>
        <pt x="415" y="603" on="1"/>
        <pt x="415" y="691" on="1"/>
        <pt x="643" y="691" on="1"/>
        <pt x="643" y="600" on="1"/>
        <pt x="584" y="587" on="1"/>
        <pt x="584" y="248" on="1"/>
        <pt x="584" y="131" on="0"/>
        <pt x="466" y="-4" on="0"/>
        <pt x="353" y="-4" on="1"/>
        <pt x="208" y="-4" on="0"/>
        <pt x="146" y="62" on="1"/>
        <pt x="88" y="124" on="0"/>
        <pt x="88" y="248" on="1"/>
        <pt x="88" y="593" on="1"/>
        <pt x="21" y="602" on="1"/>
        <pt x="21" y="691" on="1"/>
        <pt x="290" y="691" on="1"/>
        <pt x="290" y="603" on="1"/>
        <pt x="219" y="592" on="1"/>
        <pt x="219" y="250" on="1"/>
        <pt x="219" y="175" on="0"/>
        <pt x="278" y="101" on="0"/>
      </contour>
    </TTGlyph>
    <TTGlyph name="Udieresis" xMin="21" yMin="-4" xMax="643" yMax="873">
      <contour>
        <pt x="353" y="101" on="1"/>
        <pt x="479" y="101" on="0"/>
        <pt x="479" y="251" on="1"/>
        <pt x="479" y="593" on="1"/>
        <pt x="415" y="602" on="1"/>
        <pt x="415" y="690" on="1"/>
        <pt x="643" y="690" on="1"/>
        <pt x="643" y="599" on="1"/>
        <pt x="584" y="586" on="1"/>
        <pt x="584" y="248" on="1"/>
        <pt x="584" y="131" on="0"/>
        <pt x="466" y="-4" on="0"/>
        <pt x="353" y="-4" on="1"/>
        <pt x="208" y="-4" on="0"/>
        <pt x="146" y="62" on="1"/>
        <pt x="88" y="124" on="0"/>
        <pt x="88" y="248" on="1"/>
        <pt x="88" y="592" on="1"/>
        <pt x="21" y="601" on="1"/>
        <pt x="21" y="690" on="1"/>
        <pt x="290" y="690" on="1"/>
        <pt x="290" y="602" on="1"/>
        <pt x="219" y="591" on="1"/>
        <pt x="219" y="250" on="1"/>
        <pt x="219" y="175" on="0"/>
        <pt x="278" y="101" on="0"/>
      </contour>
      <contour>
        <pt x="193" y="804" on="1"/>
        <pt x="193" y="833" on="0"/>
        <pt x="233" y="873" on="0"/>
        <pt x="290" y="873" on="0"/>
        <pt x="330" y="833" on="0"/>
        <pt x="330" y="804" on="1"/>
        <pt x="330" y="775" on="0"/>
        <pt x="290" y="736" on="0"/>
        <pt x="233" y="736" on="0"/>
        <pt x="193" y="775" on="0"/>
      </contour>
      <contour>
        <pt x="371" y="804" on="1"/>
        <pt x="371" y="833" on="0"/>
        <pt x="410" y="873" on="0"/>
        <pt x="439" y="873" on="1"/>
        <pt x="468" y="873" on="0"/>
        <pt x="506" y="833" on="0"/>
        <pt x="506" y="804" on="1"/>
        <pt x="506" y="775" on="0"/>
        <pt x="468" y="736" on="0"/>
        <pt x="439" y="736" on="1"/>
        <pt x="410" y="736" on="0"/>
        <pt x="371" y="775" on="0"/>
      </contour>
    </TTGlyph>
    <TTGlyph name="Ugrave" xMin="21" yMin="-4" xMax="643" yMax="959">
      <contour>
        <pt x="353" y="101" on="1"/>
        <pt x="479" y="101" on="0"/>
        <pt x="479" y="251" on="1"/>
        <pt x="479" y="594" on="1"/>
        <pt x="415" y="603" on="1"/>
        <pt x="415" y="691" on="1"/>
        <pt x="643" y="691" on="1"/>
        <pt x="643" y="600" on="1"/>
        <pt x="584" y="587" on="1"/>
        <pt x="584" y="248" on="1"/>
        <pt x="584" y="131" on="0"/>
        <pt x="466" y="-4" on="0"/>
        <pt x="353" y="-4" on="1"/>
        <pt x="208" y="-4" on="0"/>
        <pt x="146" y="62" on="1"/>
        <pt x="88" y="124" on="0"/>
        <pt x="88" y="248" on="1"/>
        <pt x="88" y="593" on="1"/>
        <pt x="21" y="602" on="1"/>
        <pt x="21" y="691" on="1"/>
        <pt x="290" y="691" on="1"/>
        <pt x="290" y="603" on="1"/>
        <pt x="219" y="592" on="1"/>
        <pt x="219" y="250" on="1"/>
        <pt x="219" y="175" on="0"/>
        <pt x="278" y="101" on="0"/>
      </contour>
      <contour>
        <pt x="395" y="724" on="1"/>
        <pt x="212" y="868" on="1"/>
        <pt x="289" y="959" on="1"/>
        <pt x="324" y="942" on="1"/>
        <pt x="436" y="765" on="1"/>
      </contour>
    </TTGlyph>
    <TTGlyph name="V" xMin="4" yMin="0" xMax="635" yMax="690">
      <contour>
        <pt x="244" y="690" on="1"/>
        <pt x="258" y="611" on="1"/>
        <pt x="181" y="594" on="1"/>
        <pt x="338" y="130" on="1"/>
        <pt x="341" y="141" on="0"/>
        <pt x="352" y="172" on="1"/>
        <pt x="377" y="245" on="0"/>
        <pt x="408" y="339" on="1"/>
        <pt x="441" y="437" on="1"/>
        <pt x="457" y="485" on="0"/>
        <pt x="485" y="568" on="0"/>
        <pt x="493" y="594" on="1"/>
        <pt x="402" y="612" on="1"/>
        <pt x="402" y="690" on="1"/>
        <pt x="635" y="690" on="1"/>
        <pt x="635" y="601" on="1"/>
        <pt x="598" y="594" on="1"/>
        <pt x="391" y="0" on="1"/>
        <pt x="250" y="0" on="1"/>
        <pt x="40" y="594" on="1"/>
        <pt x="4" y="601" on="1"/>
        <pt x="4" y="690" on="1"/>
      </contour>
    </TTGlyph>
    <TTGlyph name="W" xMin="16" yMin="0" xMax="988" yMax="690">
      <contour>
        <pt x="988" y="690" on="1"/>
        <pt x="988" y="602" on="1"/>
        <pt x="910" y="582" on="1"/>
        <pt x="800" y="0" on="1"/>
        <pt x="632" y="0" on="1"/>
        <pt x="491" y="506" on="1"/>
        <pt x="355" y="0" on="1"/>
        <pt x="181" y="0" on="1"/>
        <pt x="71" y="587" on="1"/>
        <pt x="16" y="600" on="1"/>
        <pt x="16" y="690" on="1"/>
        <pt x="260" y="690" on="1"/>
        <pt x="277" y="611" on="1"/>
        <pt x="207" y="601" on="1"/>
        <pt x="289" y="143" on="1"/>
        <pt x="443" y="677" on="1"/>
        <pt x="585" y="677" on="1"/>
        <pt x="734" y="129" on="1"/>
        <pt x="812" y="601" on="1"/>
        <pt x="728" y="614" on="1"/>
        <pt x="739" y="690" on="1"/>
      </contour>
    </TTGlyph>
    <TTGlyph name="X" xMin="13" yMin="0" xMax="577" yMax="690">
      <contour>
        <pt x="577" y="690" on="1"/>
        <pt x="577" y="600" on="1"/>
        <pt x="536" y="592" on="1"/>
        <pt x="370" y="334" on="1"/>
        <pt x="433" y="225" on="0"/>
        <pt x="513" y="93" on="1"/>
        <pt x="577" y="71" on="1"/>
        <pt x="577" y="0" on="1"/>
        <pt x="306" y="0" on="1"/>
        <pt x="306" y="71" on="1"/>
        <pt x="363" y="77" on="1"/>
        <pt x="273" y="232" on="1"/>
        <pt x="183" y="76" on="1"/>
        <pt x="238" y="70" on="1"/>
        <pt x="238" y="0" on="1"/>
        <pt x="13" y="0" on="1"/>
        <pt x="13" y="71" on="1"/>
        <pt x="59" y="79" on="1"/>
        <pt x="216" y="331" on="1"/>
        <pt x="66" y="591" on="1"/>
        <pt x="24" y="603" on="1"/>
        <pt x="24" y="690" on="1"/>
        <pt x="277" y="690" on="1"/>
        <pt x="291" y="612" on="1"/>
        <pt x="221" y="597" on="1"/>
        <pt x="235" y="572" on="0"/>
        <pt x="283" y="488" on="0"/>
        <pt x="312" y="436" on="1"/>
        <pt x="412" y="595" on="1"/>
        <pt x="354" y="613" on="1"/>
        <pt x="354" y="690" on="1"/>
      </contour>
    </TTGlyph>
    <TTGlyph name="Y" xMin="-2" yMin="0" xMax="582" yMax="690">
      <contour>
        <pt x="242" y="690" on="1"/>
        <pt x="257" y="611" on="1"/>
        <pt x="186" y="597" on="1"/>
        <pt x="310" y="381" on="1"/>
        <pt x="422" y="600" on="1"/>
        <pt x="361" y="611" on="1"/>
        <pt x="361" y="690" on="1"/>
        <pt x="582" y="690" on="1"/>
        <pt x="582" y="602" on="1"/>
        <pt x="538" y="591" on="1"/>
        <pt x="360" y="251" on="1"/>
        <pt x="360" y="96" on="1"/>
        <pt x="475" y="73" on="1"/>
        <pt x="466" y="0" on="1"/>
        <pt x="125" y="0" on="1"/>
        <pt x="115" y="73" on="1"/>
        <pt x="229" y="96" on="1"/>
        <pt x="229" y="252" on="1"/>
        <pt x="38" y="591" on="1"/>
        <pt x="-2" y="601" on="1"/>
        <pt x="-2" y="690" on="1"/>
      </contour>
    </TTGlyph>
    <TTGlyph name="Yacute" xMin="-2" yMin="0" xMax="582" yMax="974">
      <contour>
        <pt x="242" y="691" on="1"/>
        <pt x="257" y="612" on="1"/>
        <pt x="186" y="598" on="1"/>
        <pt x="310" y="382" on="1"/>
        <pt x="422" y="601" on="1"/>
        <pt x="361" y="612" on="1"/>
        <pt x="361" y="691" on="1"/>
        <pt x="582" y="691" on="1"/>
        <pt x="582" y="603" on="1"/>
        <pt x="538" y="592" on="1"/>
        <pt x="360" y="251" on="1"/>
        <pt x="360" y="96" on="1"/>
        <pt x="475" y="73" on="1"/>
        <pt x="466" y="0" on="1"/>
        <pt x="125" y="0" on="1"/>
        <pt x="115" y="73" on="1"/>
        <pt x="229" y="96" on="1"/>
        <pt x="229" y="252" on="1"/>
        <pt x="38" y="592" on="1"/>
        <pt x="-2" y="602" on="1"/>
        <pt x="-2" y="691" on="1"/>
      </contour>
      <contour>
        <pt x="232" y="795" on="1"/>
        <pt x="361" y="959" on="1"/>
        <pt x="398" y="974" on="1"/>
        <pt x="476" y="865" on="1"/>
        <pt x="279" y="741" on="1"/>
      </contour>
    </TTGlyph>
    <TTGlyph name="Z" xMin="28" yMin="0" xMax="527" yMax="690">
      <contour>
        <pt x="28" y="79" on="1"/>
        <pt x="365" y="585" on="1"/>
        <pt x="144" y="585" on="1"/>
        <pt x="125" y="475" on="1"/>
        <pt x="47" y="475" on="1"/>
        <pt x="47" y="690" on="1"/>
        <pt x="507" y="690" on="1"/>
        <pt x="527" y="597" on="1"/>
        <pt x="478" y="513" on="0"/>
        <pt x="289" y="232" on="0"/>
        <pt x="230" y="142" on="0"/>
        <pt x="205" y="105" on="1"/>
        <pt x="420" y="105" on="1"/>
        <pt x="438" y="215" on="1"/>
        <pt x="518" y="215" on="1"/>
        <pt x="518" y="0" on="1"/>
        <pt x="47" y="0" on="1"/>
      </contour>
    </TTGlyph>
    <TTGlyph name="a" xMin="29" yMin="-4" xMax="446" yMax="491">
      <contour>
        <pt x="286" y="44" on="1"/>
        <pt x="238" y="-4" on="0"/>
        <pt x="174" y="-4" on="1"/>
        <pt x="106" y="-4" on="0"/>
        <pt x="66" y="34" on="1"/>
        <pt x="29" y="70" on="0"/>
        <pt x="29" y="173" on="0"/>
        <pt x="75" y="233" on="0"/>
        <pt x="110" y="252" on="1"/>
        <pt x="176" y="286" on="0"/>
        <pt x="274" y="288" on="1"/>
        <pt x="274" y="367" on="1"/>
        <pt x="274" y="378" on="0"/>
        <pt x="243" y="397" on="0"/>
        <pt x="222" y="397" on="1"/>
        <pt x="188" y="397" on="0"/>
        <pt x="180" y="394" on="1"/>
        <pt x="154" y="320" on="1"/>
        <pt x="30" y="374" on="1"/>
        <pt x="50" y="423" on="0"/>
        <pt x="102" y="456" on="1"/>
        <pt x="157" y="491" on="0"/>
        <pt x="223" y="491" on="1"/>
        <pt x="338" y="491" on="0"/>
        <pt x="380" y="406" on="1"/>
        <pt x="395" y="376" on="0"/>
        <pt x="395" y="330" on="1"/>
        <pt x="395" y="105" on="1"/>
        <pt x="395" y="83" on="0"/>
        <pt x="413" y="83" on="1"/>
        <pt x="428" y="85" on="1"/>
        <pt x="446" y="29" on="1"/>
        <pt x="408" y="-4" on="0"/>
        <pt x="366" y="-4" on="1"/>
        <pt x="310" y="-4" on="0"/>
      </contour>
      <contour>
        <pt x="274" y="204" on="1"/>
        <pt x="153" y="198" on="0"/>
        <pt x="153" y="138" on="1"/>
        <pt x="153" y="121" on="0"/>
        <pt x="175" y="92" on="0"/>
        <pt x="226" y="92" on="0"/>
        <pt x="266" y="122" on="0"/>
        <pt x="274" y="139" on="1"/>
      </contour>
    </TTGlyph>
    <TTGlyph name="aacute" xMin="29" yMin="-4" xMax="446" yMax="736">
      <contour>
        <pt x="286" y="44" on="1"/>
        <pt x="238" y="-4" on="0"/>
        <pt x="174" y="-4" on="1"/>
        <pt x="106" y="-4" on="0"/>
        <pt x="66" y="34" on="1"/>
        <pt x="29" y="70" on="0"/>
        <pt x="29" y="173" on="0"/>
        <pt x="75" y="233" on="0"/>
        <pt x="110" y="252" on="1"/>
        <pt x="176" y="286" on="0"/>
        <pt x="274" y="288" on="1"/>
        <pt x="274" y="367" on="1"/>
        <pt x="274" y="378" on="0"/>
        <pt x="243" y="397" on="0"/>
        <pt x="222" y="397" on="1"/>
        <pt x="188" y="397" on="0"/>
        <pt x="180" y="394" on="1"/>
        <pt x="154" y="320" on="1"/>
        <pt x="30" y="374" on="1"/>
        <pt x="50" y="423" on="0"/>
        <pt x="102" y="456" on="1"/>
        <pt x="157" y="491" on="0"/>
        <pt x="223" y="491" on="1"/>
        <pt x="338" y="491" on="0"/>
        <pt x="380" y="406" on="1"/>
        <pt x="395" y="376" on="0"/>
        <pt x="395" y="330" on="1"/>
        <pt x="395" y="105" on="1"/>
        <pt x="395" y="83" on="0"/>
        <pt x="413" y="83" on="1"/>
        <pt x="428" y="85" on="1"/>
        <pt x="446" y="29" on="1"/>
        <pt x="408" y="-4" on="0"/>
        <pt x="366" y="-4" on="1"/>
        <pt x="310" y="-4" on="0"/>
      </contour>
      <contour>
        <pt x="274" y="204" on="1"/>
        <pt x="153" y="198" on="0"/>
        <pt x="153" y="138" on="1"/>
        <pt x="153" y="121" on="0"/>
        <pt x="175" y="92" on="0"/>
        <pt x="226" y="92" on="0"/>
        <pt x="266" y="122" on="0"/>
        <pt x="274" y="139" on="1"/>
      </contour>
      <contour>
        <pt x="112" y="561" on="1"/>
        <pt x="238" y="722" on="1"/>
        <pt x="274" y="736" on="1"/>
        <pt x="351" y="630" on="1"/>
        <pt x="158" y="509" on="1"/>
      </contour>
    </TTGlyph>
    <TTGlyph name="acircumflex" xMin="29" yMin="-4" xMax="446" yMax="700">
      <contour>
        <pt x="79" y="541" on="1"/>
        <pt x="213" y="700" on="1"/>
        <pt x="245" y="700" on="1"/>
        <pt x="379" y="540" on="1"/>
        <pt x="373" y="529" on="1"/>
        <pt x="295" y="529" on="1"/>
        <pt x="228" y="581" on="1"/>
        <pt x="161" y="529" on="1"/>
        <pt x="84" y="529" on="1"/>
      </contour>
      <contour>
        <pt x="286" y="44" on="1"/>
        <pt x="238" y="-4" on="0"/>
        <pt x="174" y="-4" on="1"/>
        <pt x="106" y="-4" on="0"/>
        <pt x="66" y="34" on="1"/>
        <pt x="29" y="70" on="0"/>
        <pt x="29" y="173" on="0"/>
        <pt x="75" y="233" on="0"/>
        <pt x="110" y="252" on="1"/>
        <pt x="176" y="286" on="0"/>
        <pt x="274" y="288" on="1"/>
        <pt x="274" y="367" on="1"/>
        <pt x="274" y="378" on="0"/>
        <pt x="243" y="397" on="0"/>
        <pt x="222" y="397" on="1"/>
        <pt x="188" y="397" on="0"/>
        <pt x="180" y="394" on="1"/>
        <pt x="154" y="320" on="1"/>
        <pt x="30" y="374" on="1"/>
        <pt x="50" y="423" on="0"/>
        <pt x="102" y="456" on="1"/>
        <pt x="157" y="491" on="0"/>
        <pt x="223" y="491" on="1"/>
        <pt x="338" y="491" on="0"/>
        <pt x="380" y="406" on="1"/>
        <pt x="395" y="376" on="0"/>
        <pt x="395" y="330" on="1"/>
        <pt x="395" y="105" on="1"/>
        <pt x="395" y="83" on="0"/>
        <pt x="413" y="83" on="1"/>
        <pt x="428" y="85" on="1"/>
        <pt x="446" y="29" on="1"/>
        <pt x="408" y="-4" on="0"/>
        <pt x="366" y="-4" on="1"/>
        <pt x="310" y="-4" on="0"/>
      </contour>
      <contour>
        <pt x="274" y="204" on="1"/>
        <pt x="153" y="198" on="0"/>
        <pt x="153" y="138" on="1"/>
        <pt x="153" y="121" on="0"/>
        <pt x="175" y="92" on="0"/>
        <pt x="226" y="92" on="0"/>
        <pt x="266" y="122" on="0"/>
        <pt x="274" y="139" on="1"/>
      </contour>
    </TTGlyph>
    <TTGlyph name="acute" xMin="52" yMin="459" xMax="296" yMax="692">
      <contour>
        <pt x="52" y="513" on="1"/>
        <pt x="181" y="677" on="1"/>
        <pt x="218" y="692" on="1"/>
        <pt x="296" y="583" on="1"/>
        <pt x="99" y="459" on="1"/>
      </contour>
    </TTGlyph>
    <TTGlyph name="adieresis" xMin="29" yMin="-4" xMax="446" yMax="696">
      <contour>
        <pt x="70" y="634" on="1"/>
        <pt x="70" y="660" on="0"/>
        <pt x="106" y="696" on="0"/>
        <pt x="132" y="696" on="1"/>
        <pt x="158" y="696" on="0"/>
        <pt x="194" y="660" on="0"/>
        <pt x="194" y="634" on="1"/>
        <pt x="194" y="608" on="0"/>
        <pt x="158" y="572" on="0"/>
        <pt x="132" y="572" on="1"/>
        <pt x="106" y="572" on="0"/>
        <pt x="70" y="608" on="0"/>
      </contour>
      <contour>
        <pt x="231" y="634" on="1"/>
        <pt x="231" y="660" on="0"/>
        <pt x="267" y="696" on="0"/>
        <pt x="293" y="696" on="1"/>
        <pt x="319" y="696" on="0"/>
        <pt x="355" y="660" on="0"/>
        <pt x="355" y="634" on="1"/>
        <pt x="355" y="608" on="0"/>
        <pt x="319" y="572" on="0"/>
        <pt x="293" y="572" on="1"/>
        <pt x="267" y="572" on="0"/>
        <pt x="231" y="608" on="0"/>
      </contour>
      <contour>
        <pt x="286" y="44" on="1"/>
        <pt x="238" y="-4" on="0"/>
        <pt x="174" y="-4" on="1"/>
        <pt x="106" y="-4" on="0"/>
        <pt x="66" y="34" on="1"/>
        <pt x="29" y="70" on="0"/>
        <pt x="29" y="173" on="0"/>
        <pt x="75" y="233" on="0"/>
        <pt x="110" y="252" on="1"/>
        <pt x="176" y="286" on="0"/>
        <pt x="274" y="288" on="1"/>
        <pt x="274" y="367" on="1"/>
        <pt x="274" y="378" on="0"/>
        <pt x="243" y="397" on="0"/>
        <pt x="222" y="397" on="1"/>
        <pt x="188" y="397" on="0"/>
        <pt x="180" y="394" on="1"/>
        <pt x="154" y="320" on="1"/>
        <pt x="30" y="374" on="1"/>
        <pt x="50" y="423" on="0"/>
        <pt x="102" y="456" on="1"/>
        <pt x="157" y="491" on="0"/>
        <pt x="223" y="491" on="1"/>
        <pt x="338" y="491" on="0"/>
        <pt x="380" y="406" on="1"/>
        <pt x="395" y="376" on="0"/>
        <pt x="395" y="330" on="1"/>
        <pt x="395" y="105" on="1"/>
        <pt x="395" y="83" on="0"/>
        <pt x="413" y="83" on="1"/>
        <pt x="428" y="85" on="1"/>
        <pt x="446" y="29" on="1"/>
        <pt x="408" y="-4" on="0"/>
        <pt x="366" y="-4" on="1"/>
        <pt x="310" y="-4" on="0"/>
      </contour>
      <contour>
        <pt x="274" y="204" on="1"/>
        <pt x="153" y="198" on="0"/>
        <pt x="153" y="138" on="1"/>
        <pt x="153" y="121" on="0"/>
        <pt x="175" y="92" on="0"/>
        <pt x="226" y="92" on="0"/>
        <pt x="266" y="122" on="0"/>
        <pt x="274" y="139" on="1"/>
      </contour>
    </TTGlyph>
    <TTGlyph name="ae" xMin="29" yMin="-4" xMax="667" yMax="491">
      <contour>
        <pt x="356" y="442" on="1"/>
        <pt x="414" y="491" on="0"/>
        <pt x="499" y="491" on="1"/>
        <pt x="565" y="491" on="0"/>
        <pt x="614" y="454" on="1"/>
        <pt x="667" y="414" on="0"/>
        <pt x="667" y="354" on="1"/>
        <pt x="667" y="269" on="0"/>
        <pt x="602" y="230" on="1"/>
        <pt x="548" y="197" on="0"/>
        <pt x="453" y="197" on="1"/>
        <pt x="453" y="197" on="0"/>
        <pt x="426" y="197" on="1"/>
        <pt x="413" y="197" on="0"/>
        <pt x="402" y="198" on="1"/>
        <pt x="408" y="153" on="0"/>
        <pt x="463" y="91" on="0"/>
        <pt x="517" y="91" on="1"/>
        <pt x="567" y="91" on="0"/>
        <pt x="620" y="125" on="1"/>
        <pt x="634" y="134" on="0"/>
        <pt x="643" y="143" on="1"/>
        <pt x="666" y="56" on="1"/>
        <pt x="640" y="22" on="0"/>
        <pt x="561" y="2" on="1"/>
        <pt x="534" y="-4" on="0"/>
        <pt x="503" y="-4" on="1"/>
        <pt x="387" y="-4" on="0"/>
        <pt x="325" y="75" on="1"/>
        <pt x="299" y="42" on="0"/>
        <pt x="219" y="-4" on="0"/>
        <pt x="139" y="-4" on="0"/>
        <pt x="85" y="16" on="0"/>
        <pt x="66" y="34" on="1"/>
        <pt x="29" y="70" on="0"/>
        <pt x="29" y="173" on="0"/>
        <pt x="75" y="233" on="0"/>
        <pt x="110" y="252" on="1"/>
        <pt x="176" y="286" on="0"/>
        <pt x="274" y="288" on="1"/>
        <pt x="274" y="367" on="1"/>
        <pt x="274" y="378" on="0"/>
        <pt x="243" y="397" on="0"/>
        <pt x="222" y="397" on="1"/>
        <pt x="188" y="397" on="0"/>
        <pt x="180" y="394" on="1"/>
        <pt x="154" y="320" on="1"/>
        <pt x="30" y="374" on="1"/>
        <pt x="50" y="423" on="0"/>
        <pt x="102" y="456" on="1"/>
        <pt x="157" y="491" on="0"/>
        <pt x="223" y="491" on="1"/>
        <pt x="309" y="491" on="0"/>
      </contour>
      <contour>
        <pt x="403" y="282" on="1"/>
        <pt x="408" y="281" on="0"/>
        <pt x="418" y="281" on="1"/>
        <pt x="436" y="281" on="1"/>
        <pt x="508" y="281" on="0"/>
        <pt x="536" y="317" on="1"/>
        <pt x="546" y="330" on="0"/>
        <pt x="546" y="373" on="0"/>
        <pt x="521" y="397" on="0"/>
        <pt x="483" y="397" on="0"/>
        <pt x="449" y="378" on="0"/>
        <pt x="436" y="362" on="1"/>
        <pt x="407" y="330" on="0"/>
      </contour>
      <contour>
        <pt x="274" y="204" on="1"/>
        <pt x="153" y="198" on="0"/>
        <pt x="153" y="138" on="1"/>
        <pt x="153" y="121" on="0"/>
        <pt x="175" y="92" on="0"/>
        <pt x="227" y="92" on="0"/>
        <pt x="267" y="123" on="0"/>
        <pt x="274" y="140" on="1"/>
      </contour>
    </TTGlyph>
    <TTGlyph name="agrave" xMin="29" yMin="-4" xMax="446" yMax="736">
      <contour>
        <pt x="413" y="83" on="1"/>
        <pt x="395" y="83" on="0"/>
        <pt x="395" y="105" on="1"/>
        <pt x="395" y="330" on="1"/>
        <pt x="395" y="413" on="0"/>
        <pt x="341" y="456" on="1"/>
        <pt x="297" y="491" on="0"/>
        <pt x="223" y="491" on="1"/>
        <pt x="157" y="491" on="0"/>
        <pt x="102" y="456" on="1"/>
        <pt x="50" y="423" on="0"/>
        <pt x="30" y="374" on="1"/>
        <pt x="154" y="320" on="1"/>
        <pt x="180" y="394" on="1"/>
        <pt x="188" y="397" on="0"/>
        <pt x="243" y="397" on="0"/>
        <pt x="274" y="378" on="0"/>
        <pt x="274" y="367" on="1"/>
        <pt x="274" y="288" on="1"/>
        <pt x="114" y="284" on="0"/>
        <pt x="52" y="203" on="1"/>
        <pt x="29" y="173" on="0"/>
        <pt x="29" y="101" on="0"/>
        <pt x="48" y="52" on="0"/>
        <pt x="66" y="34" on="1"/>
        <pt x="106" y="-4" on="0"/>
        <pt x="174" y="-4" on="1"/>
        <pt x="238" y="-4" on="0"/>
        <pt x="286" y="44" on="1"/>
        <pt x="310" y="-4" on="0"/>
        <pt x="366" y="-4" on="1"/>
        <pt x="408" y="-4" on="0"/>
        <pt x="446" y="29" on="1"/>
        <pt x="428" y="85" on="1"/>
      </contour>
      <contour>
        <pt x="266" y="122" on="0"/>
        <pt x="226" y="92" on="0"/>
        <pt x="175" y="92" on="0"/>
        <pt x="153" y="121" on="0"/>
        <pt x="153" y="157" on="0"/>
        <pt x="177" y="182" on="0"/>
        <pt x="195" y="190" on="1"/>
        <pt x="223" y="201" on="0"/>
        <pt x="274" y="204" on="1"/>
        <pt x="274" y="139" on="1"/>
      </contour>
      <contour>
        <pt x="282" y="509" on="1"/>
        <pt x="89" y="630" on="1"/>
        <pt x="166" y="736" on="1"/>
        <pt x="202" y="722" on="1"/>
        <pt x="328" y="561" on="1"/>
      </contour>
    </TTGlyph>
    <TTGlyph name="ampersand" xMin="28" yMin="-4" xMax="718" yMax="735">
      <contour>
        <pt x="439" y="587" on="1"/>
        <pt x="439" y="480" on="0"/>
        <pt x="322" y="378" on="1"/>
        <pt x="334" y="364" on="0"/>
        <pt x="357" y="336" on="0"/>
        <pt x="372" y="320" on="1"/>
        <pt x="415" y="272" on="0"/>
        <pt x="447" y="240" on="1"/>
        <pt x="463" y="274" on="0"/>
        <pt x="471" y="314" on="1"/>
        <pt x="424" y="314" on="1"/>
        <pt x="403" y="399" on="1"/>
        <pt x="594" y="399" on="1"/>
        <pt x="609" y="383" on="1"/>
        <pt x="593" y="267" on="0"/>
        <pt x="535" y="165" on="1"/>
        <pt x="531" y="157" on="1"/>
        <pt x="582" y="108" on="0"/>
        <pt x="598" y="99" on="1"/>
        <pt x="642" y="148" on="1"/>
        <pt x="718" y="52" on="1"/>
        <pt x="704" y="33" on="0"/>
        <pt x="648" y="-2" on="0"/>
        <pt x="593" y="-2" on="1"/>
        <pt x="501" y="-2" on="0"/>
        <pt x="446" y="53" on="1"/>
        <pt x="375" y="-4" on="0"/>
        <pt x="274" y="-4" on="1"/>
        <pt x="171" y="-4" on="0"/>
        <pt x="104" y="46" on="1"/>
        <pt x="28" y="104" on="0"/>
        <pt x="28" y="321" on="0"/>
        <pt x="144" y="400" on="1"/>
        <pt x="88" y="482" on="0"/>
        <pt x="88" y="555" on="1"/>
        <pt x="88" y="674" on="0"/>
        <pt x="182" y="718" on="1"/>
        <pt x="219" y="735" on="0"/>
        <pt x="276" y="735" on="1"/>
        <pt x="354" y="735" on="0"/>
        <pt x="439" y="653" on="0"/>
      </contour>
      <contour>
        <pt x="208" y="320" on="1"/>
        <pt x="159" y="271" on="0"/>
        <pt x="159" y="210" on="1"/>
        <pt x="159" y="163" on="0"/>
        <pt x="192" y="130" on="1"/>
        <pt x="226" y="96" on="0"/>
        <pt x="325" y="96" on="0"/>
        <pt x="367" y="130" on="1"/>
        <pt x="304" y="195" on="0"/>
        <pt x="252" y="265" on="1"/>
      </contour>
      <contour>
        <pt x="252" y="471" on="1"/>
        <pt x="316" y="530" on="0"/>
        <pt x="316" y="580" on="1"/>
        <pt x="316" y="604" on="0"/>
        <pt x="288" y="635" on="0"/>
        <pt x="237" y="635" on="0"/>
        <pt x="208" y="601" on="0"/>
        <pt x="208" y="578" on="1"/>
        <pt x="208" y="537" on="0"/>
      </contour>
    </TTGlyph>
    <TTGlyph name="aring" xMin="29" yMin="-4" xMax="446" yMax="737">
      <contour>
        <pt x="118" y="630" on="1"/>
        <pt x="118" y="653" on="0"/>
        <pt x="134" y="692" on="0"/>
        <pt x="148" y="706" on="1"/>
        <pt x="179" y="737" on="0"/>
        <pt x="269" y="737" on="0"/>
        <pt x="330" y="676" on="0"/>
        <pt x="330" y="586" on="0"/>
        <pt x="269" y="525" on="0"/>
        <pt x="179" y="525" on="0"/>
        <pt x="118" y="586" on="0"/>
      </contour>
      <contour>
        <pt x="181" y="631" on="1"/>
        <pt x="181" y="611" on="0"/>
        <pt x="204" y="588" on="0"/>
        <pt x="224" y="588" on="1"/>
        <pt x="244" y="588" on="0"/>
        <pt x="267" y="611" on="0"/>
        <pt x="267" y="631" on="1"/>
        <pt x="267" y="651" on="0"/>
        <pt x="244" y="674" on="0"/>
        <pt x="224" y="674" on="1"/>
        <pt x="204" y="674" on="0"/>
        <pt x="181" y="651" on="0"/>
      </contour>
      <contour>
        <pt x="286" y="44" on="1"/>
        <pt x="238" y="-4" on="0"/>
        <pt x="174" y="-4" on="1"/>
        <pt x="106" y="-4" on="0"/>
        <pt x="66" y="34" on="1"/>
        <pt x="29" y="70" on="0"/>
        <pt x="29" y="173" on="0"/>
        <pt x="75" y="233" on="0"/>
        <pt x="110" y="252" on="1"/>
        <pt x="176" y="286" on="0"/>
        <pt x="274" y="288" on="1"/>
        <pt x="274" y="367" on="1"/>
        <pt x="274" y="378" on="0"/>
        <pt x="243" y="397" on="0"/>
        <pt x="222" y="397" on="1"/>
        <pt x="188" y="397" on="0"/>
        <pt x="180" y="394" on="1"/>
        <pt x="154" y="320" on="1"/>
        <pt x="30" y="374" on="1"/>
        <pt x="50" y="423" on="0"/>
        <pt x="102" y="456" on="1"/>
        <pt x="157" y="491" on="0"/>
        <pt x="223" y="491" on="1"/>
        <pt x="338" y="491" on="0"/>
        <pt x="380" y="406" on="1"/>
        <pt x="395" y="376" on="0"/>
        <pt x="395" y="330" on="1"/>
        <pt x="395" y="105" on="1"/>
        <pt x="395" y="83" on="0"/>
        <pt x="413" y="83" on="1"/>
        <pt x="428" y="85" on="1"/>
        <pt x="446" y="29" on="1"/>
        <pt x="408" y="-4" on="0"/>
        <pt x="366" y="-4" on="1"/>
        <pt x="310" y="-4" on="0"/>
      </contour>
      <contour>
        <pt x="274" y="204" on="1"/>
        <pt x="153" y="198" on="0"/>
        <pt x="153" y="138" on="1"/>
        <pt x="153" y="121" on="0"/>
        <pt x="175" y="92" on="0"/>
        <pt x="226" y="92" on="0"/>
        <pt x="266" y="122" on="0"/>
        <pt x="274" y="139" on="1"/>
      </contour>
    </TTGlyph>
    <TTGlyph name="asciicircum" xMin="82" yMin="548" xMax="462" yMax="726">
      <contour>
        <pt x="82" y="561" on="1"/>
        <pt x="253" y="726" on="1"/>
        <pt x="290" y="726" on="1"/>
        <pt x="462" y="560" on="1"/>
        <pt x="455" y="548" on="1"/>
        <pt x="369" y="548" on="1"/>
        <pt x="271" y="616" on="1"/>
        <pt x="173" y="548" on="1"/>
        <pt x="88" y="548" on="1"/>
      </contour>
    </TTGlyph>
    <TTGlyph name="asciitilde" xMin="20" yMin="534" xMax="424" yMax="697">
      <contour>
        <pt x="343" y="697" on="1"/>
        <pt x="424" y="622" on="1"/>
        <pt x="366" y="543" on="0"/>
        <pt x="303" y="543" on="1"/>
        <pt x="270" y="543" on="0"/>
        <pt x="230" y="566" on="1"/>
        <pt x="215" y="574" on="0"/>
        <pt x="184" y="588" on="0"/>
        <pt x="134" y="588" on="0"/>
        <pt x="100" y="554" on="0"/>
        <pt x="94" y="534" on="1"/>
        <pt x="20" y="579" on="1"/>
        <pt x="20" y="597" on="1"/>
        <pt x="30" y="628" on="0"/>
        <pt x="54" y="649" on="1"/>
        <pt x="100" y="689" on="0"/>
        <pt x="152" y="689" on="1"/>
        <pt x="204" y="689" on="0"/>
        <pt x="270" y="647" on="1"/>
        <pt x="282" y="639" on="0"/>
        <pt x="289" y="639" on="1"/>
      </contour>
    </TTGlyph>
    <TTGlyph name="asterisk" xMin="27" yMin="400" xMax="339" yMax="736">
      <contour>
        <pt x="206" y="608" on="1"/>
        <pt x="289" y="679" on="1"/>
        <pt x="339" y="635" on="1"/>
        <pt x="329" y="602" on="1"/>
        <pt x="225" y="568" on="1"/>
        <pt x="334" y="532" on="1"/>
        <pt x="319" y="468" on="1"/>
        <pt x="287" y="459" on="1"/>
        <pt x="206" y="528" on="1"/>
        <pt x="227" y="421" on="1"/>
        <pt x="164" y="400" on="1"/>
        <pt x="141" y="424" on="1"/>
        <pt x="161" y="527" on="1"/>
        <pt x="80" y="456" on="1"/>
        <pt x="27" y="501" on="1"/>
        <pt x="38" y="533" on="1"/>
        <pt x="137" y="566" on="1"/>
        <pt x="35" y="602" on="1"/>
        <pt x="48" y="669" on="1"/>
        <pt x="81" y="677" on="1"/>
        <pt x="161" y="607" on="1"/>
        <pt x="140" y="715" on="1"/>
        <pt x="204" y="736" on="1"/>
        <pt x="227" y="712" on="1"/>
      </contour>
      <contour>
        <pt x="178" y="559" on="1"/>
        <pt x="189" y="560" on="1"/>
        <pt x="193" y="567" on="1"/>
        <pt x="188" y="576" on="1"/>
        <pt x="179" y="575" on="1"/>
        <pt x="174" y="566" on="1"/>
      </contour>
    </TTGlyph>
    <TTGlyph name="at" xMin="32" yMin="-92" xMax="850" yMax="729">
      <contour>
        <pt x="548" y="132" on="1"/>
        <pt x="506" y="101" on="0"/>
        <pt x="436" y="101" on="1"/>
        <pt x="361" y="101" on="0"/>
        <pt x="305" y="146" on="1"/>
        <pt x="235" y="204" on="0"/>
        <pt x="235" y="308" on="1"/>
        <pt x="235" y="425" on="0"/>
        <pt x="319" y="484" on="1"/>
        <pt x="380" y="526" on="0"/>
        <pt x="523" y="526" on="0"/>
        <pt x="575" y="500" on="1"/>
        <pt x="602" y="509" on="1"/>
        <pt x="635" y="498" on="1"/>
        <pt x="635" y="244" on="1"/>
        <pt x="635" y="216" on="0"/>
        <pt x="653" y="205" on="0"/>
        <pt x="673" y="205" on="0"/>
        <pt x="695" y="224" on="0"/>
        <pt x="705" y="244" on="1"/>
        <pt x="729" y="292" on="0"/>
        <pt x="729" y="423" on="0"/>
        <pt x="691" y="512" on="0"/>
        <pt x="655" y="544" on="1"/>
        <pt x="578" y="612" on="0"/>
        <pt x="449" y="612" on="1"/>
        <pt x="327" y="612" on="0"/>
        <pt x="243" y="536" on="1"/>
        <pt x="153" y="453" on="0"/>
        <pt x="153" y="320" on="1"/>
        <pt x="153" y="182" on="0"/>
        <pt x="242" y="100" on="1"/>
        <pt x="325" y="23" on="0"/>
        <pt x="460" y="23" on="1"/>
        <pt x="540" y="23" on="0"/>
        <pt x="586" y="44" on="1"/>
        <pt x="609" y="40" on="1"/>
        <pt x="573" y="-76" on="1"/>
        <pt x="521" y="-92" on="0"/>
        <pt x="360" y="-92" on="0"/>
        <pt x="211" y="-38" on="0"/>
        <pt x="99" y="67" on="0"/>
        <pt x="32" y="221" on="0"/>
        <pt x="32" y="422" on="0"/>
        <pt x="106" y="574" on="0"/>
        <pt x="227" y="677" on="0"/>
        <pt x="381" y="729" on="0"/>
        <pt x="461" y="729" on="1"/>
        <pt x="541" y="729" on="0"/>
        <pt x="683" y="677" on="0"/>
        <pt x="789" y="582" on="0"/>
        <pt x="850" y="450" on="0"/>
        <pt x="850" y="312" on="0"/>
        <pt x="818" y="213" on="0"/>
        <pt x="790" y="177" on="1"/>
        <pt x="732" y="100" on="0"/>
        <pt x="645" y="100" on="1"/>
        <pt x="580" y="100" on="0"/>
      </contour>
      <contour>
        <pt x="459" y="186" on="1"/>
        <pt x="488" y="186" on="0"/>
        <pt x="515" y="205" on="1"/>
        <pt x="514" y="212" on="0"/>
        <pt x="514" y="218" on="1"/>
        <pt x="514" y="432" on="1"/>
        <pt x="492" y="442" on="0"/>
        <pt x="464" y="442" on="1"/>
        <pt x="414" y="442" on="0"/>
        <pt x="359" y="377" on="0"/>
        <pt x="359" y="252" on="0"/>
        <pt x="412" y="186" on="0"/>
      </contour>
    </TTGlyph>
    <TTGlyph name="atilde" xMin="29" yMin="-4" xMax="446" yMax="697">
      <contour>
        <pt x="388" y="627" on="1"/>
        <pt x="337" y="554" on="0"/>
        <pt x="287" y="554" on="1"/>
        <pt x="262" y="554" on="0"/>
        <pt x="212" y="582" on="0"/>
        <pt x="185" y="595" on="0"/>
        <pt x="143" y="595" on="0"/>
        <pt x="114" y="564" on="0"/>
        <pt x="109" y="547" on="1"/>
        <pt x="45" y="589" on="1"/>
        <pt x="46" y="608" on="1"/>
        <pt x="66" y="658" on="0"/>
        <pt x="117" y="681" on="1"/>
        <pt x="137" y="690" on="0"/>
        <pt x="184" y="690" on="0"/>
        <pt x="220" y="677" on="0"/>
        <pt x="250" y="662" on="0"/>
        <pt x="272" y="647" on="0"/>
        <pt x="278" y="646" on="1"/>
        <pt x="314" y="697" on="1"/>
      </contour>
      <contour>
        <pt x="286" y="44" on="1"/>
        <pt x="238" y="-4" on="0"/>
        <pt x="174" y="-4" on="1"/>
        <pt x="106" y="-4" on="0"/>
        <pt x="66" y="34" on="1"/>
        <pt x="29" y="70" on="0"/>
        <pt x="29" y="173" on="0"/>
        <pt x="75" y="233" on="0"/>
        <pt x="110" y="252" on="1"/>
        <pt x="176" y="286" on="0"/>
        <pt x="274" y="288" on="1"/>
        <pt x="274" y="367" on="1"/>
        <pt x="274" y="378" on="0"/>
        <pt x="243" y="397" on="0"/>
        <pt x="222" y="397" on="1"/>
        <pt x="188" y="397" on="0"/>
        <pt x="180" y="394" on="1"/>
        <pt x="154" y="320" on="1"/>
        <pt x="30" y="374" on="1"/>
        <pt x="50" y="423" on="0"/>
        <pt x="102" y="456" on="1"/>
        <pt x="157" y="491" on="0"/>
        <pt x="223" y="491" on="1"/>
        <pt x="338" y="491" on="0"/>
        <pt x="380" y="406" on="1"/>
        <pt x="395" y="376" on="0"/>
        <pt x="395" y="330" on="1"/>
        <pt x="395" y="105" on="1"/>
        <pt x="395" y="83" on="0"/>
        <pt x="413" y="83" on="1"/>
        <pt x="428" y="85" on="1"/>
        <pt x="446" y="29" on="1"/>
        <pt x="408" y="-4" on="0"/>
        <pt x="366" y="-4" on="1"/>
        <pt x="310" y="-4" on="0"/>
      </contour>
      <contour>
        <pt x="274" y="204" on="1"/>
        <pt x="153" y="198" on="0"/>
        <pt x="153" y="138" on="1"/>
        <pt x="153" y="121" on="0"/>
        <pt x="175" y="92" on="0"/>
        <pt x="226" y="92" on="0"/>
        <pt x="266" y="122" on="0"/>
        <pt x="274" y="139" on="1"/>
      </contour>
    </TTGlyph>
    <TTGlyph name="b" xMin="1" yMin="-4" xMax="468" yMax="736">
      <contour>
        <pt x="184" y="472" on="1"/>
        <pt x="222" y="491" on="0"/>
        <pt x="316" y="491" on="0"/>
        <pt x="388" y="458" on="0"/>
        <pt x="414" y="427" on="1"/>
        <pt x="468" y="363" on="0"/>
        <pt x="468" y="251" on="1"/>
        <pt x="468" y="115" on="0"/>
        <pt x="398" y="50" on="1"/>
        <pt x="339" y="-4" on="0"/>
        <pt x="245" y="-4" on="1"/>
        <pt x="188" y="-4" on="0"/>
        <pt x="149" y="17" on="1"/>
        <pt x="96" y="-4" on="1"/>
        <pt x="64" y="23" on="1"/>
        <pt x="64" y="651" on="1"/>
        <pt x="12" y="648" on="1"/>
        <pt x="1" y="716" on="1"/>
        <pt x="150" y="736" on="1"/>
        <pt x="184" y="701" on="1"/>
      </contour>
      <contour>
        <pt x="184" y="103" on="1"/>
        <pt x="204" y="90" on="0"/>
        <pt x="286" y="90" on="0"/>
        <pt x="344" y="165" on="0"/>
        <pt x="344" y="324" on="0"/>
        <pt x="289" y="397" on="0"/>
        <pt x="209" y="397" on="0"/>
        <pt x="184" y="379" on="1"/>
      </contour>
    </TTGlyph>
    <TTGlyph name="backslash" xMin="20" yMin="0" xMax="466" yMax="690">
      <contour>
        <pt x="21" y="676" on="1"/>
        <pt x="20" y="690" on="1"/>
        <pt x="148" y="690" on="1"/>
        <pt x="466" y="13" on="1"/>
        <pt x="463" y="0" on="1"/>
        <pt x="338" y="0" on="1"/>
      </contour>
    </TTGlyph>
    <TTGlyph name="bar" xMin="75" yMin="-201" xMax="195" yMax="689">
      <contour>
        <pt x="195" y="689" on="1"/>
        <pt x="195" y="-201" on="1"/>
        <pt x="75" y="-201" on="1"/>
        <pt x="75" y="689" on="1"/>
      </contour>
    </TTGlyph>
    <TTGlyph name="braceleft" xMin="2" yMin="-162" xMax="376" yMax="713">
      <contour>
        <pt x="109" y="49" on="1"/>
        <pt x="113" y="140" on="1"/>
        <pt x="113" y="184" on="0"/>
        <pt x="78" y="210" on="1"/>
        <pt x="46" y="234" on="0"/>
        <pt x="2" y="234" on="1"/>
        <pt x="2" y="316" on="1"/>
        <pt x="46" y="316" on="0"/>
        <pt x="78" y="340" on="1"/>
        <pt x="113" y="366" on="0"/>
        <pt x="113" y="408" on="1"/>
        <pt x="109" y="503" on="1"/>
        <pt x="109" y="600" on="0"/>
        <pt x="142" y="650" on="1"/>
        <pt x="183" y="713" on="0"/>
        <pt x="285" y="713" on="1"/>
        <pt x="340" y="713" on="0"/>
        <pt x="376" y="698" on="1"/>
        <pt x="340" y="582" on="1"/>
        <pt x="262" y="615" on="1"/>
        <pt x="242" y="607" on="0"/>
        <pt x="232" y="546" on="0"/>
        <pt x="232" y="507" on="1"/>
        <pt x="233" y="426" on="1"/>
        <pt x="233" y="316" on="0"/>
        <pt x="180" y="290" on="1"/>
        <pt x="162" y="280" on="0"/>
        <pt x="137" y="277" on="1"/>
        <pt x="129" y="274" on="1"/>
        <pt x="188" y="267" on="0"/>
        <pt x="233" y="201" on="0"/>
        <pt x="233" y="124" on="1"/>
        <pt x="232" y="44" on="1"/>
        <pt x="232" y="-52" on="0"/>
        <pt x="262" y="-64" on="1"/>
        <pt x="340" y="-30" on="1"/>
        <pt x="376" y="-147" on="1"/>
        <pt x="340" y="-162" on="0"/>
        <pt x="229" y="-162" on="0"/>
        <pt x="161" y="-127" on="0"/>
        <pt x="142" y="-98" on="1"/>
        <pt x="109" y="-50" on="0"/>
      </contour>
    </TTGlyph>
    <TTGlyph name="braceright" xMin="-9" yMin="-162" xMax="366" yMax="713">
      <contour>
        <pt x="259" y="503" on="1"/>
        <pt x="255" y="408" on="1"/>
        <pt x="255" y="366" on="0"/>
        <pt x="290" y="340" on="1"/>
        <pt x="322" y="316" on="0"/>
        <pt x="366" y="316" on="1"/>
        <pt x="366" y="234" on="1"/>
        <pt x="322" y="234" on="0"/>
        <pt x="290" y="210" on="1"/>
        <pt x="255" y="184" on="0"/>
        <pt x="255" y="140" on="1"/>
        <pt x="259" y="49" on="1"/>
        <pt x="259" y="-50" on="0"/>
        <pt x="226" y="-98" on="1"/>
        <pt x="183" y="-162" on="0"/>
        <pt x="83" y="-162" on="1"/>
        <pt x="30" y="-162" on="0"/>
        <pt x="-9" y="-147" on="1"/>
        <pt x="28" y="-30" on="1"/>
        <pt x="106" y="-64" on="1"/>
        <pt x="125" y="-56" on="0"/>
        <pt x="136" y="6" on="0"/>
        <pt x="136" y="44" on="1"/>
        <pt x="135" y="124" on="1"/>
        <pt x="135" y="201" on="0"/>
        <pt x="180" y="267" on="0"/>
        <pt x="231" y="273" on="1"/>
        <pt x="239" y="276" on="1"/>
        <pt x="204" y="280" on="0"/>
        <pt x="169" y="299" on="0"/>
        <pt x="158" y="316" on="1"/>
        <pt x="135" y="351" on="0"/>
        <pt x="135" y="426" on="1"/>
        <pt x="136" y="507" on="1"/>
        <pt x="136" y="546" on="0"/>
        <pt x="126" y="607" on="0"/>
        <pt x="106" y="615" on="1"/>
        <pt x="28" y="582" on="1"/>
        <pt x="-9" y="698" on="1"/>
        <pt x="30" y="713" on="0"/>
        <pt x="138" y="713" on="0"/>
        <pt x="207" y="679" on="0"/>
        <pt x="226" y="650" on="1"/>
        <pt x="259" y="600" on="0"/>
      </contour>
    </TTGlyph>
    <TTGlyph name="bracketleft" xMin="74" yMin="-189" xMax="346" yMax="726">
      <contour>
        <pt x="194" y="640" on="1"/>
        <pt x="194" y="-102" on="1"/>
        <pt x="346" y="-102" on="1"/>
        <pt x="346" y="-181" on="1"/>
        <pt x="346" y="-189" on="0"/>
        <pt x="339" y="-189" on="1"/>
        <pt x="81" y="-189" on="1"/>
        <pt x="74" y="-177" on="1"/>
        <pt x="74" y="714" on="1"/>
        <pt x="81" y="726" on="1"/>
        <pt x="339" y="726" on="1"/>
        <pt x="346" y="726" on="0"/>
        <pt x="346" y="719" on="1"/>
        <pt x="346" y="640" on="1"/>
      </contour>
    </TTGlyph>
    <TTGlyph name="bracketright" xMin="-10" yMin="-179" xMax="262" yMax="726">
      <contour>
        <pt x="-10" y="640" on="1"/>
        <pt x="-10" y="719" on="1"/>
        <pt x="-10" y="726" on="0"/>
        <pt x="-4" y="726" on="1"/>
        <pt x="254" y="726" on="1"/>
        <pt x="262" y="714" on="1"/>
        <pt x="262" y="-167" on="1"/>
        <pt x="254" y="-179" on="1"/>
        <pt x="-4" y="-179" on="1"/>
        <pt x="-10" y="-179" on="0"/>
        <pt x="-10" y="-171" on="1"/>
        <pt x="-10" y="-92" on="1"/>
        <pt x="141" y="-92" on="1"/>
        <pt x="141" y="640" on="1"/>
      </contour>
    </TTGlyph>
    <TTGlyph name="brokenbar" xMin="77" yMin="-247" xMax="198" yMax="690">
      <contour>
        <pt x="77" y="286" on="1"/>
        <pt x="77" y="690" on="1"/>
        <pt x="198" y="690" on="1"/>
        <pt x="198" y="286" on="1"/>
      </contour>
      <contour>
        <pt x="77" y="-247" on="1"/>
        <pt x="77" y="152" on="1"/>
        <pt x="198" y="152" on="1"/>
        <pt x="198" y="-247" on="1"/>
      </contour>
    </TTGlyph>
    <TTGlyph name="bullet" xMin="35" yMin="282" xMax="238" yMax="485">
      <contour>
        <pt x="35" y="383" on="1"/>
        <pt x="35" y="424" on="0"/>
        <pt x="64" y="455" on="1"/>
        <pt x="93" y="485" on="0"/>
        <pt x="136" y="485" on="1"/>
        <pt x="178" y="485" on="0"/>
        <pt x="238" y="425" on="0"/>
        <pt x="238" y="383" on="1"/>
        <pt x="238" y="340" on="0"/>
        <pt x="208" y="312" on="1"/>
        <pt x="177" y="282" on="0"/>
        <pt x="136" y="282" on="1"/>
        <pt x="94" y="282" on="0"/>
        <pt x="35" y="341" on="0"/>
      </contour>
    </TTGlyph>
    <TTGlyph name="c" xMin="30" yMin="-4" xMax="415" yMax="491">
      <contour>
        <pt x="408" y="52" on="1"/>
        <pt x="354" y="-4" on="0"/>
        <pt x="249" y="-4" on="1"/>
        <pt x="162" y="-4" on="0"/>
        <pt x="102" y="52" on="1"/>
        <pt x="30" y="118" on="0"/>
        <pt x="30" y="233" on="1"/>
        <pt x="30" y="369" on="0"/>
        <pt x="102" y="437" on="1"/>
        <pt x="158" y="491" on="0"/>
        <pt x="248" y="491" on="1"/>
        <pt x="323" y="491" on="0"/>
        <pt x="372" y="452" on="1"/>
        <pt x="397" y="432" on="0"/>
        <pt x="415" y="402" on="1"/>
        <pt x="294" y="337" on="1"/>
        <pt x="251" y="397" on="1"/>
        <pt x="205" y="397" on="0"/>
        <pt x="154" y="311" on="0"/>
        <pt x="154" y="238" on="1"/>
        <pt x="154" y="137" on="0"/>
        <pt x="217" y="103" on="1"/>
        <pt x="239" y="91" on="0"/>
        <pt x="291" y="91" on="0"/>
        <pt x="327" y="102" on="0"/>
        <pt x="356" y="117" on="0"/>
        <pt x="376" y="134" on="0"/>
        <pt x="382" y="139" on="1"/>
        <pt x="384" y="132" on="0"/>
        <pt x="392" y="108" on="0"/>
        <pt x="400" y="82" on="0"/>
        <pt x="406" y="58" on="0"/>
      </contour>
    </TTGlyph>
    <TTGlyph name="ccedilla" xMin="31" yMin="-221" xMax="416" yMax="491">
      <contour>
        <pt x="267" y="-38" on="1"/>
        <pt x="343" y="-55" on="0"/>
        <pt x="343" y="-125" on="1"/>
        <pt x="343" y="-166" on="0"/>
        <pt x="277" y="-221" on="0"/>
        <pt x="216" y="-221" on="1"/>
        <pt x="168" y="-221" on="0"/>
        <pt x="125" y="-203" on="1"/>
        <pt x="159" y="-129" on="1"/>
        <pt x="214" y="-169" on="1"/>
        <pt x="241" y="-169" on="0"/>
        <pt x="258" y="-150" on="1"/>
        <pt x="266" y="-142" on="0"/>
        <pt x="266" y="-127" on="1"/>
        <pt x="266" y="-78" on="0"/>
        <pt x="196" y="-78" on="1"/>
        <pt x="184" y="-62" on="1"/>
        <pt x="205" y="0" on="1"/>
        <pt x="86" y="25" on="0"/>
        <pt x="46" y="138" on="1"/>
        <pt x="31" y="179" on="0"/>
        <pt x="31" y="308" on="0"/>
        <pt x="71" y="407" on="0"/>
        <pt x="102" y="437" on="1"/>
        <pt x="159" y="491" on="0"/>
        <pt x="249" y="491" on="1"/>
        <pt x="324" y="491" on="0"/>
        <pt x="374" y="452" on="1"/>
        <pt x="398" y="432" on="0"/>
        <pt x="416" y="402" on="1"/>
        <pt x="295" y="337" on="1"/>
        <pt x="252" y="397" on="1"/>
        <pt x="206" y="397" on="0"/>
        <pt x="155" y="311" on="0"/>
        <pt x="155" y="238" on="1"/>
        <pt x="155" y="137" on="0"/>
        <pt x="218" y="103" on="1"/>
        <pt x="240" y="91" on="0"/>
        <pt x="292" y="91" on="0"/>
        <pt x="328" y="102" on="0"/>
        <pt x="357" y="117" on="0"/>
        <pt x="377" y="134" on="0"/>
        <pt x="383" y="139" on="1"/>
        <pt x="385" y="132" on="0"/>
        <pt x="393" y="108" on="0"/>
        <pt x="401" y="82" on="0"/>
        <pt x="407" y="58" on="0"/>
        <pt x="409" y="52" on="1"/>
        <pt x="362" y="5" on="0"/>
        <pt x="279" y="-3" on="1"/>
      </contour>
    </TTGlyph>
    <TTGlyph name="cedilla" xMin="64" yMin="-286" xMax="357" yMax="15">
      <contour>
        <pt x="134" y="-82" on="1"/>
        <pt x="168" y="15" on="1"/>
        <pt x="271" y="15" on="1"/>
        <pt x="253" y="-41" on="1"/>
        <pt x="324" y="-55" on="0"/>
        <pt x="348" y="-109" on="1"/>
        <pt x="357" y="-129" on="0"/>
        <pt x="357" y="-182" on="0"/>
        <pt x="335" y="-229" on="0"/>
        <pt x="314" y="-247" on="1"/>
        <pt x="267" y="-286" on="0"/>
        <pt x="192" y="-286" on="1"/>
        <pt x="150" y="-286" on="0"/>
        <pt x="89" y="-268" on="0"/>
        <pt x="64" y="-259" on="1"/>
        <pt x="114" y="-162" on="1"/>
        <pt x="186" y="-210" on="1"/>
        <pt x="223" y="-210" on="0"/>
        <pt x="242" y="-183" on="1"/>
        <pt x="249" y="-173" on="0"/>
        <pt x="249" y="-136" on="0"/>
        <pt x="214" y="-102" on="0"/>
        <pt x="171" y="-102" on="1"/>
        <pt x="158" y="-101" on="1"/>
      </contour>
    </TTGlyph>
    <TTGlyph name="cent" xMin="27" yMin="-200" xMax="412" yMax="689">
      <contour>
        <pt x="405" y="52" on="1"/>
        <pt x="369" y="14" on="0"/>
        <pt x="303" y="1" on="1"/>
        <pt x="303" y="-200" on="1"/>
        <pt x="182" y="-200" on="1"/>
        <pt x="182" y="5" on="1"/>
        <pt x="75" y="36" on="0"/>
        <pt x="40" y="144" on="1"/>
        <pt x="27" y="183" on="0"/>
        <pt x="27" y="292" on="0"/>
        <pt x="53" y="379" on="0"/>
        <pt x="74" y="409" on="1"/>
        <pt x="115" y="465" on="0"/>
        <pt x="182" y="483" on="1"/>
        <pt x="182" y="689" on="1"/>
        <pt x="303" y="689" on="1"/>
        <pt x="303" y="484" on="1"/>
        <pt x="369" y="468" on="0"/>
        <pt x="403" y="416" on="1"/>
        <pt x="410" y="406" on="0"/>
        <pt x="412" y="402" on="1"/>
        <pt x="291" y="337" on="1"/>
        <pt x="248" y="397" on="1"/>
        <pt x="202" y="397" on="0"/>
        <pt x="151" y="311" on="0"/>
        <pt x="151" y="238" on="1"/>
        <pt x="151" y="137" on="0"/>
        <pt x="214" y="103" on="1"/>
        <pt x="236" y="91" on="0"/>
        <pt x="288" y="91" on="0"/>
        <pt x="324" y="102" on="0"/>
        <pt x="353" y="117" on="0"/>
        <pt x="373" y="134" on="0"/>
        <pt x="379" y="139" on="1"/>
        <pt x="381" y="132" on="0"/>
        <pt x="389" y="108" on="0"/>
        <pt x="397" y="82" on="0"/>
        <pt x="403" y="58" on="0"/>
      </contour>
    </TTGlyph>
    <TTGlyph name="colon" xMin="54" yMin="126" xMax="188" yMax="522">
      <contour>
        <pt x="54" y="193" on="1"/>
        <pt x="54" y="221" on="0"/>
        <pt x="94" y="259" on="0"/>
        <pt x="149" y="259" on="0"/>
        <pt x="188" y="221" on="0"/>
        <pt x="188" y="193" on="1"/>
        <pt x="188" y="165" on="0"/>
        <pt x="149" y="126" on="0"/>
        <pt x="94" y="126" on="0"/>
        <pt x="54" y="165" on="0"/>
      </contour>
      <contour>
        <pt x="94" y="388" on="0"/>
        <pt x="54" y="428" on="0"/>
        <pt x="54" y="483" on="0"/>
        <pt x="94" y="522" on="0"/>
        <pt x="149" y="522" on="0"/>
        <pt x="188" y="483" on="0"/>
        <pt x="188" y="428" on="0"/>
        <pt x="149" y="388" on="0"/>
      </contour>
    </TTGlyph>
    <TTGlyph name="comma" xMin="16" yMin="-173" xMax="186" yMax="133">
      <contour>
        <pt x="178" y="133" on="1"/>
        <pt x="186" y="101" on="0"/>
        <pt x="186" y="14" on="0"/>
        <pt x="170" y="-50" on="0"/>
        <pt x="158" y="-78" on="1"/>
        <pt x="136" y="-130" on="0"/>
        <pt x="103" y="-173" on="1"/>
        <pt x="19" y="-134" on="1"/>
        <pt x="16" y="-123" on="1"/>
        <pt x="67" y="-11" on="1"/>
        <pt x="41" y="114" on="1"/>
      </contour>
    </TTGlyph>
    <TTGlyph name="copyright" xMin="30" yMin="27" xMax="722" yMax="719">
      <contour>
        <pt x="30" y="373" on="1"/>
        <pt x="30" y="444" on="0"/>
        <pt x="84" y="570" on="0"/>
        <pt x="178" y="664" on="0"/>
        <pt x="304" y="719" on="0"/>
        <pt x="375" y="719" on="1"/>
        <pt x="446" y="719" on="0"/>
        <pt x="572" y="664" on="0"/>
        <pt x="667" y="570" on="0"/>
        <pt x="722" y="444" on="0"/>
        <pt x="722" y="373" on="1"/>
        <pt x="722" y="302" on="0"/>
        <pt x="667" y="176" on="0"/>
        <pt x="572" y="82" on="0"/>
        <pt x="446" y="27" on="0"/>
        <pt x="375" y="27" on="1"/>
        <pt x="304" y="27" on="0"/>
        <pt x="178" y="82" on="0"/>
        <pt x="84" y="176" on="0"/>
        <pt x="30" y="302" on="0"/>
      </contour>
      <contour>
        <pt x="160" y="374" on="1"/>
        <pt x="160" y="329" on="0"/>
        <pt x="194" y="250" on="0"/>
        <pt x="224" y="220" on="1"/>
        <pt x="287" y="157" on="0"/>
        <pt x="376" y="157" on="1"/>
        <pt x="466" y="157" on="0"/>
        <pt x="528" y="220" on="1"/>
        <pt x="591" y="285" on="0"/>
        <pt x="591" y="374" on="1"/>
        <pt x="591" y="461" on="0"/>
        <pt x="528" y="526" on="1"/>
        <pt x="466" y="589" on="0"/>
        <pt x="376" y="589" on="1"/>
        <pt x="287" y="589" on="0"/>
        <pt x="160" y="462" on="0"/>
      </contour>
      <contour>
        <pt x="297" y="336" on="0"/>
        <pt x="350" y="289" on="0"/>
        <pt x="413" y="289" on="0"/>
        <pt x="447" y="306" on="1"/>
        <pt x="482" y="220" on="1"/>
        <pt x="437" y="191" on="0"/>
        <pt x="350" y="191" on="0"/>
        <pt x="283" y="217" on="0"/>
        <pt x="258" y="240" on="1"/>
        <pt x="203" y="291" on="0"/>
        <pt x="203" y="371" on="1"/>
        <pt x="203" y="457" on="0"/>
        <pt x="258" y="510" on="1"/>
        <pt x="308" y="558" on="0"/>
        <pt x="387" y="558" on="1"/>
        <pt x="421" y="558" on="0"/>
        <pt x="454" y="552" on="1"/>
        <pt x="463" y="413" on="1"/>
        <pt x="408" y="413" on="1"/>
        <pt x="393" y="459" on="1"/>
        <pt x="388" y="460" on="0"/>
        <pt x="384" y="460" on="1"/>
        <pt x="377" y="460" on="1"/>
        <pt x="337" y="460" on="0"/>
        <pt x="297" y="411" on="0"/>
      </contour>
    </TTGlyph>
    <TTGlyph name="currency" xMin="44" yMin="98" xMax="542" yMax="600">
      <contour>
        <pt x="462" y="445" on="1"/>
        <pt x="489" y="399" on="0"/>
        <pt x="489" y="294" on="0"/>
        <pt x="464" y="250" on="1"/>
        <pt x="542" y="172" on="1"/>
        <pt x="467" y="98" on="1"/>
        <pt x="390" y="175" on="1"/>
        <pt x="345" y="150" on="0"/>
        <pt x="240" y="150" on="0"/>
        <pt x="196" y="175" on="1"/>
        <pt x="119" y="98" on="1"/>
        <pt x="44" y="172" on="1"/>
        <pt x="122" y="250" on="1"/>
        <pt x="97" y="294" on="0"/>
        <pt x="97" y="402" on="0"/>
        <pt x="123" y="446" on="1"/>
        <pt x="44" y="525" on="1"/>
        <pt x="119" y="600" on="1"/>
        <pt x="199" y="519" on="1"/>
        <pt x="245" y="543" on="0"/>
        <pt x="293" y="543" on="1"/>
        <pt x="341" y="543" on="0"/>
        <pt x="387" y="519" on="1"/>
        <pt x="467" y="600" on="1"/>
        <pt x="542" y="525" on="1"/>
      </contour>
      <contour>
        <pt x="201" y="346" on="1"/>
        <pt x="201" y="305" on="0"/>
        <pt x="251" y="254" on="0"/>
        <pt x="334" y="254" on="0"/>
        <pt x="384" y="305" on="0"/>
        <pt x="384" y="346" on="1"/>
        <pt x="384" y="387" on="0"/>
        <pt x="334" y="438" on="0"/>
        <pt x="251" y="438" on="0"/>
        <pt x="201" y="387" on="0"/>
      </contour>
    </TTGlyph>
    <TTGlyph name="d" xMin="31" yMin="-4" xMax="495" yMax="737">
      <contour>
        <pt x="246" y="491" on="1"/>
        <pt x="282" y="491" on="0"/>
        <pt x="314" y="478" on="1"/>
        <pt x="314" y="648" on="1"/>
        <pt x="263" y="648" on="1"/>
        <pt x="252" y="716" on="1"/>
        <pt x="400" y="737" on="1"/>
        <pt x="435" y="700" on="1"/>
        <pt x="435" y="105" on="1"/>
        <pt x="435" y="83" on="0"/>
        <pt x="454" y="83" on="1"/>
        <pt x="464" y="83" on="0"/>
        <pt x="476" y="89" on="1"/>
        <pt x="495" y="37" on="1"/>
        <pt x="478" y="14" on="0"/>
        <pt x="439" y="1" on="1"/>
        <pt x="424" y="-4" on="0"/>
        <pt x="406" y="-4" on="1"/>
        <pt x="350" y="-4" on="0"/>
        <pt x="327" y="38" on="1"/>
        <pt x="291" y="-4" on="0"/>
        <pt x="221" y="-4" on="1"/>
        <pt x="136" y="-4" on="0"/>
        <pt x="84" y="59" on="1"/>
        <pt x="31" y="124" on="0"/>
        <pt x="31" y="234" on="1"/>
        <pt x="31" y="370" on="0"/>
        <pt x="104" y="438" on="1"/>
        <pt x="161" y="491" on="0"/>
      </contour>
      <contour>
        <pt x="314" y="378" on="1"/>
        <pt x="292" y="398" on="0"/>
        <pt x="255" y="398" on="1"/>
        <pt x="187" y="398" on="0"/>
        <pt x="164" y="315" on="1"/>
        <pt x="155" y="283" on="0"/>
        <pt x="155" y="162" on="0"/>
        <pt x="202" y="91" on="0"/>
        <pt x="244" y="91" on="1"/>
        <pt x="265" y="91" on="0"/>
        <pt x="309" y="119" on="0"/>
        <pt x="314" y="140" on="1"/>
      </contour>
    </TTGlyph>
    <TTGlyph name="degree" xMin="28" yMin="401" xMax="318" yMax="724">
      <contour>
        <pt x="172" y="724" on="1"/>
        <pt x="236" y="724" on="0"/>
        <pt x="278" y="678" on="1"/>
        <pt x="318" y="634" on="0"/>
        <pt x="318" y="564" on="1"/>
        <pt x="318" y="491" on="0"/>
        <pt x="278" y="446" on="1"/>
        <pt x="236" y="401" on="0"/>
        <pt x="107" y="401" on="0"/>
        <pt x="28" y="491" on="0"/>
        <pt x="28" y="633" on="0"/>
        <pt x="108" y="724" on="0"/>
      </contour>
      <contour>
        <pt x="172" y="633" on="1"/>
        <pt x="133" y="633" on="0"/>
        <pt x="133" y="564" on="1"/>
        <pt x="133" y="491" on="0"/>
        <pt x="172" y="491" on="1"/>
        <pt x="195" y="491" on="0"/>
        <pt x="206" y="520" on="1"/>
        <pt x="213" y="536" on="0"/>
        <pt x="213" y="564" on="1"/>
        <pt x="213" y="606" on="0"/>
        <pt x="194" y="625" on="1"/>
        <pt x="186" y="633" on="0"/>
      </contour>
    </TTGlyph>
    <TTGlyph name="dieresis" xMin="52" yMin="463" xMax="365" yMax="600">
      <contour>
        <pt x="52" y="531" on="1"/>
        <pt x="52" y="560" on="0"/>
        <pt x="92" y="600" on="0"/>
        <pt x="149" y="600" on="0"/>
        <pt x="189" y="560" on="0"/>
        <pt x="189" y="531" on="1"/>
        <pt x="189" y="502" on="0"/>
        <pt x="149" y="463" on="0"/>
        <pt x="92" y="463" on="0"/>
        <pt x="52" y="502" on="0"/>
      </contour>
      <contour>
        <pt x="230" y="531" on="1"/>
        <pt x="230" y="560" on="0"/>
        <pt x="269" y="600" on="0"/>
        <pt x="298" y="600" on="1"/>
        <pt x="327" y="600" on="0"/>
        <pt x="365" y="560" on="0"/>
        <pt x="365" y="531" on="1"/>
        <pt x="365" y="502" on="0"/>
        <pt x="327" y="463" on="0"/>
        <pt x="298" y="463" on="1"/>
        <pt x="269" y="463" on="0"/>
        <pt x="230" y="502" on="0"/>
      </contour>
    </TTGlyph>
    <TTGlyph name="divide" xMin="32" yMin="17" xMax="387" yMax="471">
      <contour>
        <pt x="136" y="84" on="1"/>
        <pt x="136" y="112" on="0"/>
        <pt x="175" y="150" on="0"/>
        <pt x="203" y="150" on="1"/>
        <pt x="231" y="150" on="0"/>
        <pt x="269" y="112" on="0"/>
        <pt x="269" y="84" on="1"/>
        <pt x="269" y="56" on="0"/>
        <pt x="231" y="17" on="0"/>
        <pt x="203" y="17" on="1"/>
        <pt x="175" y="17" on="0"/>
        <pt x="136" y="56" on="0"/>
      </contour>
      <contour>
        <pt x="175" y="338" on="0"/>
        <pt x="136" y="378" on="0"/>
        <pt x="136" y="433" on="0"/>
        <pt x="175" y="471" on="0"/>
        <pt x="203" y="471" on="1"/>
        <pt x="231" y="471" on="0"/>
        <pt x="269" y="433" on="0"/>
        <pt x="269" y="378" on="0"/>
        <pt x="231" y="338" on="0"/>
        <pt x="203" y="338" on="1"/>
      </contour>
      <contour>
        <pt x="32" y="294" on="1"/>
        <pt x="387" y="294" on="1"/>
        <pt x="387" y="194" on="1"/>
        <pt x="32" y="194" on="1"/>
      </contour>
    </TTGlyph>
    <TTGlyph name="dollar" xMin="33" yMin="-154" xMax="481" yMax="807">
      <contour>
        <pt x="214" y="-154" on="1"/>
        <pt x="214" y="-2" on="1"/>
        <pt x="139" y="4" on="0"/>
        <pt x="47" y="42" on="1"/>
        <pt x="33" y="232" on="1"/>
        <pt x="120" y="232" on="1"/>
        <pt x="151" y="115" on="1"/>
        <pt x="193" y="101" on="0"/>
        <pt x="291" y="101" on="0"/>
        <pt x="344" y="147" on="0"/>
        <pt x="344" y="191" on="1"/>
        <pt x="344" y="242" on="0"/>
        <pt x="268" y="276" on="1"/>
        <pt x="247" y="286" on="0"/>
        <pt x="186" y="311" on="0"/>
        <pt x="117" y="347" on="0"/>
        <pt x="92" y="371" on="1"/>
        <pt x="37" y="422" on="0"/>
        <pt x="37" y="503" on="1"/>
        <pt x="37" y="579" on="0"/>
        <pt x="89" y="629" on="1"/>
        <pt x="138" y="676" on="0"/>
        <pt x="214" y="688" on="1"/>
        <pt x="214" y="807" on="1"/>
        <pt x="313" y="807" on="1"/>
        <pt x="313" y="692" on="1"/>
        <pt x="389" y="686" on="0"/>
        <pt x="452" y="661" on="1"/>
        <pt x="467" y="474" on="1"/>
        <pt x="383" y="474" on="1"/>
        <pt x="338" y="577" on="1"/>
        <pt x="309" y="588" on="0"/>
        <pt x="227" y="588" on="0"/>
        <pt x="174" y="552" on="0"/>
        <pt x="174" y="513" on="1"/>
        <pt x="174" y="476" on="0"/>
        <pt x="214" y="451" on="1"/>
        <pt x="234" y="439" on="0"/>
        <pt x="290" y="414" on="0"/>
        <pt x="324" y="397" on="1"/>
        <pt x="395" y="361" on="0"/>
        <pt x="481" y="268" on="0"/>
        <pt x="481" y="203" on="1"/>
        <pt x="481" y="117" on="0"/>
        <pt x="432" y="64" on="1"/>
        <pt x="389" y="17" on="0"/>
        <pt x="313" y="2" on="1"/>
        <pt x="313" y="-154" on="1"/>
      </contour>
    </TTGlyph>
    <TTGlyph name="e" xMin="30" yMin="-4" xMax="424" yMax="491">
      <contour>
        <pt x="156" y="198" on="1"/>
        <pt x="170" y="91" on="0"/>
        <pt x="277" y="91" on="1"/>
        <pt x="323" y="91" on="0"/>
        <pt x="379" y="126" on="0"/>
        <pt x="397" y="143" on="1"/>
        <pt x="420" y="56" on="1"/>
        <pt x="392" y="19" on="0"/>
        <pt x="314" y="2" on="1"/>
        <pt x="288" y="-4" on="0"/>
        <pt x="214" y="-4" on="0"/>
        <pt x="133" y="26" on="0"/>
        <pt x="101" y="56" on="1"/>
        <pt x="30" y="123" on="0"/>
        <pt x="30" y="239" on="1"/>
        <pt x="30" y="361" on="0"/>
        <pt x="102" y="431" on="1"/>
        <pt x="162" y="491" on="0"/>
        <pt x="253" y="491" on="1"/>
        <pt x="322" y="491" on="0"/>
        <pt x="370" y="458" on="1"/>
        <pt x="424" y="420" on="0"/>
        <pt x="424" y="354" on="1"/>
        <pt x="424" y="275" on="0"/>
        <pt x="359" y="234" on="1"/>
        <pt x="301" y="197" on="0"/>
        <pt x="207" y="197" on="1"/>
        <pt x="180" y="197" on="1"/>
        <pt x="167" y="197" on="0"/>
      </contour>
      <contour>
        <pt x="157" y="282" on="1"/>
        <pt x="162" y="281" on="0"/>
        <pt x="172" y="281" on="1"/>
        <pt x="190" y="281" on="1"/>
        <pt x="263" y="281" on="0"/>
        <pt x="291" y="317" on="1"/>
        <pt x="301" y="330" on="0"/>
        <pt x="301" y="373" on="0"/>
        <pt x="275" y="396" on="0"/>
        <pt x="237" y="396" on="0"/>
        <pt x="203" y="378" on="0"/>
        <pt x="190" y="362" on="1"/>
        <pt x="161" y="330" on="0"/>
      </contour>
    </TTGlyph>
    <TTGlyph name="eacute" xMin="30" yMin="-4" xMax="424" yMax="736">
      <contour>
        <pt x="156" y="198" on="1"/>
        <pt x="170" y="91" on="0"/>
        <pt x="277" y="91" on="1"/>
        <pt x="323" y="91" on="0"/>
        <pt x="379" y="126" on="0"/>
        <pt x="397" y="143" on="1"/>
        <pt x="420" y="56" on="1"/>
        <pt x="392" y="19" on="0"/>
        <pt x="314" y="2" on="1"/>
        <pt x="288" y="-4" on="0"/>
        <pt x="214" y="-4" on="0"/>
        <pt x="133" y="26" on="0"/>
        <pt x="101" y="56" on="1"/>
        <pt x="30" y="123" on="0"/>
        <pt x="30" y="239" on="1"/>
        <pt x="30" y="361" on="0"/>
        <pt x="102" y="431" on="1"/>
        <pt x="162" y="491" on="0"/>
        <pt x="253" y="491" on="1"/>
        <pt x="322" y="491" on="0"/>
        <pt x="370" y="458" on="1"/>
        <pt x="424" y="420" on="0"/>
        <pt x="424" y="354" on="1"/>
        <pt x="424" y="275" on="0"/>
        <pt x="359" y="234" on="1"/>
        <pt x="301" y="197" on="0"/>
        <pt x="207" y="197" on="1"/>
        <pt x="180" y="197" on="1"/>
        <pt x="167" y="197" on="0"/>
      </contour>
      <contour>
        <pt x="135" y="561" on="1"/>
        <pt x="261" y="722" on="1"/>
        <pt x="297" y="736" on="1"/>
        <pt x="374" y="630" on="1"/>
        <pt x="181" y="509" on="1"/>
      </contour>
      <contour>
        <pt x="157" y="282" on="1"/>
        <pt x="162" y="281" on="0"/>
        <pt x="172" y="281" on="1"/>
        <pt x="190" y="281" on="1"/>
        <pt x="263" y="281" on="0"/>
        <pt x="291" y="317" on="1"/>
        <pt x="301" y="330" on="0"/>
        <pt x="301" y="373" on="0"/>
        <pt x="275" y="396" on="0"/>
        <pt x="237" y="396" on="0"/>
        <pt x="203" y="378" on="0"/>
        <pt x="190" y="362" on="1"/>
        <pt x="161" y="330" on="0"/>
      </contour>
    </TTGlyph>
    <TTGlyph name="ecircumflex" xMin="30" yMin="-4" xMax="424" yMax="700">
      <contour>
        <pt x="156" y="198" on="1"/>
        <pt x="170" y="91" on="0"/>
        <pt x="277" y="91" on="1"/>
        <pt x="323" y="91" on="0"/>
        <pt x="379" y="126" on="0"/>
        <pt x="397" y="143" on="1"/>
        <pt x="420" y="56" on="1"/>
        <pt x="392" y="19" on="0"/>
        <pt x="314" y="2" on="1"/>
        <pt x="288" y="-4" on="0"/>
        <pt x="214" y="-4" on="0"/>
        <pt x="133" y="26" on="0"/>
        <pt x="101" y="56" on="1"/>
        <pt x="30" y="123" on="0"/>
        <pt x="30" y="239" on="1"/>
        <pt x="30" y="361" on="0"/>
        <pt x="102" y="431" on="1"/>
        <pt x="162" y="491" on="0"/>
        <pt x="253" y="491" on="1"/>
        <pt x="322" y="491" on="0"/>
        <pt x="370" y="458" on="1"/>
        <pt x="424" y="420" on="0"/>
        <pt x="424" y="354" on="1"/>
        <pt x="424" y="275" on="0"/>
        <pt x="359" y="234" on="1"/>
        <pt x="301" y="197" on="0"/>
        <pt x="207" y="197" on="1"/>
        <pt x="180" y="197" on="1"/>
        <pt x="167" y="197" on="0"/>
      </contour>
      <contour>
        <pt x="103" y="541" on="1"/>
        <pt x="236" y="700" on="1"/>
        <pt x="269" y="700" on="1"/>
        <pt x="403" y="540" on="1"/>
        <pt x="397" y="529" on="1"/>
        <pt x="319" y="529" on="1"/>
        <pt x="252" y="581" on="1"/>
        <pt x="185" y="529" on="1"/>
        <pt x="108" y="529" on="1"/>
      </contour>
      <contour>
        <pt x="157" y="282" on="1"/>
        <pt x="162" y="281" on="0"/>
        <pt x="172" y="281" on="1"/>
        <pt x="190" y="281" on="1"/>
        <pt x="263" y="281" on="0"/>
        <pt x="291" y="317" on="1"/>
        <pt x="301" y="330" on="0"/>
        <pt x="301" y="373" on="0"/>
        <pt x="275" y="396" on="0"/>
        <pt x="237" y="396" on="0"/>
        <pt x="203" y="378" on="0"/>
        <pt x="190" y="362" on="1"/>
        <pt x="161" y="330" on="0"/>
      </contour>
    </TTGlyph>
    <TTGlyph name="edieresis" xMin="30" yMin="-4" xMax="424" yMax="696">
      <contour>
        <pt x="156" y="198" on="1"/>
        <pt x="170" y="91" on="0"/>
        <pt x="277" y="91" on="1"/>
        <pt x="323" y="91" on="0"/>
        <pt x="379" y="126" on="0"/>
        <pt x="397" y="143" on="1"/>
        <pt x="420" y="56" on="1"/>
        <pt x="392" y="19" on="0"/>
        <pt x="314" y="2" on="1"/>
        <pt x="288" y="-4" on="0"/>
        <pt x="214" y="-4" on="0"/>
        <pt x="133" y="26" on="0"/>
        <pt x="101" y="56" on="1"/>
        <pt x="30" y="123" on="0"/>
        <pt x="30" y="239" on="1"/>
        <pt x="30" y="361" on="0"/>
        <pt x="102" y="431" on="1"/>
        <pt x="162" y="491" on="0"/>
        <pt x="253" y="491" on="1"/>
        <pt x="322" y="491" on="0"/>
        <pt x="370" y="458" on="1"/>
        <pt x="424" y="420" on="0"/>
        <pt x="424" y="354" on="1"/>
        <pt x="424" y="275" on="0"/>
        <pt x="359" y="234" on="1"/>
        <pt x="301" y="197" on="0"/>
        <pt x="207" y="197" on="1"/>
        <pt x="180" y="197" on="1"/>
        <pt x="167" y="197" on="0"/>
      </contour>
      <contour>
        <pt x="263" y="634" on="1"/>
        <pt x="263" y="660" on="0"/>
        <pt x="299" y="696" on="0"/>
        <pt x="325" y="696" on="1"/>
        <pt x="351" y="696" on="0"/>
        <pt x="387" y="660" on="0"/>
        <pt x="387" y="634" on="1"/>
        <pt x="387" y="608" on="0"/>
        <pt x="351" y="572" on="0"/>
        <pt x="325" y="572" on="1"/>
        <pt x="299" y="572" on="0"/>
        <pt x="263" y="608" on="0"/>
      </contour>
      <contour>
        <pt x="102" y="634" on="1"/>
        <pt x="102" y="660" on="0"/>
        <pt x="138" y="696" on="0"/>
        <pt x="164" y="696" on="1"/>
        <pt x="190" y="696" on="0"/>
        <pt x="226" y="660" on="0"/>
        <pt x="226" y="634" on="1"/>
        <pt x="226" y="608" on="0"/>
        <pt x="190" y="572" on="0"/>
        <pt x="164" y="572" on="1"/>
        <pt x="138" y="572" on="0"/>
        <pt x="102" y="608" on="0"/>
      </contour>
      <contour>
        <pt x="157" y="282" on="1"/>
        <pt x="162" y="281" on="0"/>
        <pt x="172" y="281" on="1"/>
        <pt x="190" y="281" on="1"/>
        <pt x="263" y="281" on="0"/>
        <pt x="291" y="317" on="1"/>
        <pt x="301" y="330" on="0"/>
        <pt x="301" y="373" on="0"/>
        <pt x="275" y="396" on="0"/>
        <pt x="237" y="396" on="0"/>
        <pt x="203" y="378" on="0"/>
        <pt x="190" y="362" on="1"/>
        <pt x="161" y="330" on="0"/>
      </contour>
    </TTGlyph>
    <TTGlyph name="egrave" xMin="30" yMin="-4" xMax="424" yMax="736">
      <contour>
        <pt x="248" y="491" on="1"/>
        <pt x="213" y="491" on="0"/>
        <pt x="133" y="462" on="0"/>
        <pt x="102" y="431" on="1"/>
        <pt x="30" y="361" on="0"/>
        <pt x="30" y="239" on="1"/>
        <pt x="30" y="123" on="0"/>
        <pt x="101" y="56" on="1"/>
        <pt x="165" y="-4" on="0"/>
        <pt x="257" y="-4" on="1"/>
        <pt x="312" y="-4" on="0"/>
        <pt x="362" y="17" on="1"/>
        <pt x="403" y="34" on="0"/>
        <pt x="420" y="56" on="1"/>
        <pt x="397" y="143" on="1"/>
        <pt x="379" y="126" on="0"/>
        <pt x="323" y="91" on="0"/>
        <pt x="247" y="91" on="0"/>
        <pt x="203" y="108" on="0"/>
        <pt x="189" y="122" on="1"/>
        <pt x="162" y="149" on="0"/>
        <pt x="156" y="198" on="1"/>
        <pt x="167" y="197" on="0"/>
        <pt x="180" y="197" on="1"/>
        <pt x="207" y="197" on="1"/>
        <pt x="301" y="197" on="0"/>
        <pt x="359" y="234" on="1"/>
        <pt x="424" y="275" on="0"/>
        <pt x="424" y="354" on="1"/>
        <pt x="424" y="420" on="0"/>
        <pt x="370" y="458" on="1"/>
        <pt x="322" y="491" on="0"/>
      </contour>
      <contour>
        <pt x="295" y="509" on="1"/>
        <pt x="102" y="630" on="1"/>
        <pt x="179" y="736" on="1"/>
        <pt x="215" y="722" on="1"/>
        <pt x="341" y="561" on="1"/>
      </contour>
      <contour>
        <pt x="157" y="282" on="1"/>
        <pt x="161" y="330" on="0"/>
        <pt x="190" y="362" on="1"/>
        <pt x="219" y="396" on="0"/>
        <pt x="255" y="396" on="1"/>
        <pt x="275" y="396" on="0"/>
        <pt x="301" y="373" on="0"/>
        <pt x="301" y="330" on="0"/>
        <pt x="281" y="304" on="0"/>
        <pt x="265" y="296" on="1"/>
        <pt x="235" y="281" on="0"/>
        <pt x="190" y="281" on="1"/>
        <pt x="172" y="281" on="1"/>
        <pt x="162" y="281" on="0"/>
      </contour>
    </TTGlyph>
    <TTGlyph name="eight" xMin="33" yMin="-5" xMax="512" yMax="696">
      <contour>
        <pt x="149" y="376" on="1"/>
        <pt x="69" y="433" on="0"/>
        <pt x="69" y="521" on="1"/>
        <pt x="69" y="608" on="0"/>
        <pt x="137" y="656" on="1"/>
        <pt x="194" y="696" on="0"/>
        <pt x="276" y="696" on="1"/>
        <pt x="357" y="696" on="0"/>
        <pt x="414" y="657" on="1"/>
        <pt x="480" y="611" on="0"/>
        <pt x="480" y="528" on="1"/>
        <pt x="480" y="478" on="0"/>
        <pt x="424" y="403" on="0"/>
        <pt x="384" y="374" on="1"/>
        <pt x="448" y="338" on="0"/>
        <pt x="469" y="312" on="1"/>
        <pt x="512" y="259" on="0"/>
        <pt x="512" y="145" on="0"/>
        <pt x="472" y="71" on="0"/>
        <pt x="438" y="46" on="1"/>
        <pt x="369" y="-5" on="0"/>
        <pt x="270" y="-5" on="1"/>
        <pt x="170" y="-5" on="0"/>
        <pt x="104" y="42" on="1"/>
        <pt x="33" y="94" on="0"/>
        <pt x="33" y="184" on="1"/>
        <pt x="33" y="247" on="0"/>
        <pt x="94" y="347" on="0"/>
      </contour>
      <contour>
        <pt x="215" y="296" on="0"/>
        <pt x="171" y="232" on="0"/>
        <pt x="171" y="164" on="0"/>
        <pt x="197" y="125" on="0"/>
        <pt x="214" y="116" on="1"/>
        <pt x="243" y="100" on="0"/>
        <pt x="288" y="100" on="0"/>
        <pt x="323" y="110" on="0"/>
        <pt x="338" y="122" on="1"/>
        <pt x="374" y="149" on="0"/>
        <pt x="374" y="198" on="1"/>
        <pt x="374" y="257" on="0"/>
        <pt x="298" y="296" on="1"/>
        <pt x="275" y="308" on="0"/>
        <pt x="251" y="320" on="1"/>
      </contour>
      <contour>
        <pt x="282" y="424" on="1"/>
        <pt x="355" y="480" on="0"/>
        <pt x="355" y="532" on="1"/>
        <pt x="355" y="562" on="0"/>
        <pt x="316" y="610" on="0"/>
        <pt x="236" y="610" on="0"/>
        <pt x="195" y="565" on="0"/>
        <pt x="195" y="494" on="0"/>
        <pt x="245" y="444" on="0"/>
      </contour>
    </TTGlyph>
    <TTGlyph name="emdash" xMin="53" yMin="301" xMax="574" yMax="396">
      <contour>
        <pt x="53" y="396" on="1"/>
        <pt x="574" y="396" on="1"/>
        <pt x="574" y="301" on="1"/>
        <pt x="53" y="301" on="1"/>
      </contour>
    </TTGlyph>
    <TTGlyph name="endash" xMin="53" yMin="301" xMax="424" yMax="396">
      <contour>
        <pt x="53" y="396" on="1"/>
        <pt x="424" y="396" on="1"/>
        <pt x="424" y="301" on="1"/>
        <pt x="53" y="301" on="1"/>
      </contour>
    </TTGlyph>
    <TTGlyph name="equal" xMin="54" yMin="205" xMax="409" yMax="460">
      <contour>
        <pt x="54" y="304" on="1"/>
        <pt x="409" y="304" on="1"/>
        <pt x="409" y="205" on="1"/>
        <pt x="54" y="205" on="1"/>
      </contour>
      <contour>
        <pt x="54" y="460" on="1"/>
        <pt x="409" y="460" on="1"/>
        <pt x="409" y="360" on="1"/>
        <pt x="54" y="360" on="1"/>
      </contour>
    </TTGlyph>
    <TTGlyph name="eth" xMin="29" yMin="-4" xMax="510" yMax="736">
      <contour>
        <pt x="203" y="582" on="1"/>
        <pt x="178" y="596" on="0"/>
        <pt x="133" y="615" on="1"/>
        <pt x="185" y="736" on="1"/>
        <pt x="259" y="708" on="0"/>
        <pt x="313" y="669" on="1"/>
        <pt x="396" y="735" on="1"/>
        <pt x="462" y="633" on="1"/>
        <pt x="399" y="595" on="1"/>
        <pt x="510" y="475" on="0"/>
        <pt x="510" y="326" on="1"/>
        <pt x="510" y="207" on="0"/>
        <pt x="463" y="116" on="1"/>
        <pt x="424" y="43" on="0"/>
        <pt x="348" y="12" on="1"/>
        <pt x="308" y="-4" on="0"/>
        <pt x="203" y="-4" on="0"/>
        <pt x="119" y="32" on="0"/>
        <pt x="90" y="62" on="1"/>
        <pt x="29" y="127" on="0"/>
        <pt x="29" y="218" on="1"/>
        <pt x="29" y="322" on="0"/>
        <pt x="143" y="455" on="0"/>
        <pt x="236" y="455" on="1"/>
        <pt x="320" y="455" on="0"/>
        <pt x="369" y="408" on="1"/>
        <pt x="345" y="475" on="0"/>
        <pt x="283" y="526" on="1"/>
        <pt x="170" y="459" on="1"/>
        <pt x="133" y="526" on="1"/>
      </contour>
      <contour>
        <pt x="263" y="101" on="1"/>
        <pt x="367" y="101" on="0"/>
        <pt x="381" y="254" on="1"/>
        <pt x="374" y="306" on="0"/>
        <pt x="337" y="333" on="1"/>
        <pt x="306" y="356" on="0"/>
        <pt x="235" y="356" on="0"/>
        <pt x="192" y="333" on="0"/>
        <pt x="179" y="314" on="1"/>
        <pt x="155" y="280" on="0"/>
        <pt x="155" y="225" on="1"/>
        <pt x="155" y="176" on="0"/>
        <pt x="184" y="140" on="1"/>
        <pt x="217" y="101" on="0"/>
      </contour>
    </TTGlyph>
    <TTGlyph name="exclam" xMin="58" yMin="-4" xMax="223" yMax="689">
      <contour>
        <pt x="97" y="247" on="1"/>
        <pt x="58" y="675" on="1"/>
        <pt x="202" y="689" on="1"/>
        <pt x="223" y="651" on="1"/>
        <pt x="175" y="247" on="1"/>
      </contour>
      <contour>
        <pt x="70" y="63" on="1"/>
        <pt x="70" y="91" on="0"/>
        <pt x="110" y="129" on="0"/>
        <pt x="165" y="129" on="0"/>
        <pt x="204" y="91" on="0"/>
        <pt x="204" y="63" on="1"/>
        <pt x="204" y="35" on="0"/>
        <pt x="165" y="-4" on="0"/>
        <pt x="110" y="-4" on="0"/>
        <pt x="70" y="35" on="0"/>
      </contour>
    </TTGlyph>
    <TTGlyph name="exclamdown" xMin="51" yMin="-201" xMax="216" yMax="492">
      <contour>
        <pt x="168" y="241" on="1"/>
        <pt x="216" y="-163" on="1"/>
        <pt x="195" y="-201" on="1"/>
        <pt x="51" y="-187" on="1"/>
        <pt x="90" y="241" on="1"/>
      </contour>
      <contour>
        <pt x="63" y="425" on="1"/>
        <pt x="63" y="453" on="0"/>
        <pt x="103" y="492" on="0"/>
        <pt x="158" y="492" on="0"/>
        <pt x="197" y="453" on="0"/>
        <pt x="197" y="425" on="1"/>
        <pt x="197" y="397" on="0"/>
        <pt x="158" y="359" on="0"/>
        <pt x="103" y="359" on="0"/>
        <pt x="63" y="397" on="0"/>
      </contour>
    </TTGlyph>
    <TTGlyph name="f" xMin="12" yMin="0" xMax="414" yMax="734">
      <contour>
        <pt x="316" y="63" on="1"/>
        <pt x="315" y="0" on="1"/>
        <pt x="59" y="0" on="1"/>
        <pt x="45" y="63" on="1"/>
        <pt x="99" y="76" on="1"/>
        <pt x="99" y="400" on="1"/>
        <pt x="27" y="400" on="1"/>
        <pt x="12" y="481" on="1"/>
        <pt x="19" y="491" on="1"/>
        <pt x="100" y="491" on="1"/>
        <pt x="100" y="541" on="1"/>
        <pt x="100" y="640" on="0"/>
        <pt x="150" y="691" on="1"/>
        <pt x="192" y="734" on="0"/>
        <pt x="261" y="734" on="1"/>
        <pt x="322" y="734" on="0"/>
        <pt x="376" y="694" on="1"/>
        <pt x="396" y="678" on="0"/>
        <pt x="414" y="653" on="1"/>
        <pt x="300" y="584" on="1"/>
        <pt x="260" y="639" on="1"/>
        <pt x="237" y="639" on="0"/>
        <pt x="220" y="614" on="0"/>
        <pt x="220" y="592" on="1"/>
        <pt x="220" y="491" on="1"/>
        <pt x="334" y="491" on="1"/>
        <pt x="339" y="491" on="0"/>
        <pt x="339" y="485" on="1"/>
        <pt x="339" y="400" on="1"/>
        <pt x="220" y="400" on="1"/>
        <pt x="220" y="74" on="1"/>
      </contour>
    </TTGlyph>
    <TTGlyph name="five" xMin="11" yMin="-4" xMax="483" yMax="691">
      <contour>
        <pt x="173" y="372" on="1"/>
        <pt x="129" y="372" on="0"/>
        <pt x="74" y="355" on="1"/>
        <pt x="74" y="658" on="1"/>
        <pt x="104" y="691" on="1"/>
        <pt x="467" y="691" on="1"/>
        <pt x="467" y="585" on="1"/>
        <pt x="205" y="585" on="1"/>
        <pt x="205" y="470" on="1"/>
        <pt x="223" y="472" on="0"/>
        <pt x="295" y="472" on="0"/>
        <pt x="384" y="440" on="0"/>
        <pt x="416" y="410" on="1"/>
        <pt x="483" y="347" on="0"/>
        <pt x="483" y="240" on="1"/>
        <pt x="483" y="126" on="0"/>
        <pt x="408" y="60" on="1"/>
        <pt x="336" y="-4" on="0"/>
        <pt x="220" y="-4" on="1"/>
        <pt x="88" y="-4" on="0"/>
        <pt x="11" y="73" on="1"/>
        <pt x="71" y="171" on="1"/>
        <pt x="110" y="124" on="0"/>
        <pt x="166" y="106" on="1"/>
        <pt x="186" y="100" on="0"/>
        <pt x="237" y="100" on="0"/>
        <pt x="287" y="120" on="0"/>
        <pt x="306" y="138" on="1"/>
        <pt x="345" y="178" on="0"/>
        <pt x="345" y="237" on="1"/>
        <pt x="345" y="301" on="0"/>
        <pt x="296" y="338" on="1"/>
        <pt x="250" y="372" on="0"/>
      </contour>
    </TTGlyph>
    <TTGlyph name="four" xMin="-5" yMin="0" xMax="503" yMax="691">
      <contour>
        <pt x="500" y="62" on="1"/>
        <pt x="500" y="9" on="0"/>
        <pt x="503" y="0" on="1"/>
        <pt x="152" y="0" on="1"/>
        <pt x="152" y="83" on="1"/>
        <pt x="295" y="98" on="1"/>
        <pt x="295" y="187" on="1"/>
        <pt x="33" y="187" on="1"/>
        <pt x="-5" y="275" on="1"/>
        <pt x="278" y="691" on="1"/>
        <pt x="425" y="691" on="1"/>
        <pt x="425" y="292" on="1"/>
        <pt x="503" y="292" on="1"/>
        <pt x="503" y="187" on="1"/>
        <pt x="425" y="187" on="1"/>
        <pt x="425" y="94" on="1"/>
        <pt x="500" y="81" on="1"/>
      </contour>
      <contour>
        <pt x="295" y="292" on="1"/>
        <pt x="295" y="549" on="1"/>
        <pt x="117" y="292" on="1"/>
      </contour>
    </TTGlyph>
    <TTGlyph name="g" xMin="22" yMin="-272" xMax="504" yMax="503">
      <contour>
        <pt x="112" y="155" on="1"/>
        <pt x="33" y="205" on="0"/>
        <pt x="33" y="302" on="1"/>
        <pt x="33" y="388" on="0"/>
        <pt x="96" y="442" on="1"/>
        <pt x="153" y="491" on="0"/>
        <pt x="306" y="491" on="0"/>
        <pt x="361" y="448" on="1"/>
        <pt x="470" y="503" on="1"/>
        <pt x="493" y="500" on="1"/>
        <pt x="504" y="401" on="1"/>
        <pt x="411" y="390" on="1"/>
        <pt x="432" y="350" on="0"/>
        <pt x="432" y="257" on="0"/>
        <pt x="397" y="189" on="0"/>
        <pt x="369" y="166" on="1"/>
        <pt x="314" y="122" on="0"/>
        <pt x="232" y="122" on="1"/>
        <pt x="218" y="122" on="1"/>
        <pt x="212" y="122" on="0"/>
        <pt x="206" y="123" on="1"/>
        <pt x="188" y="96" on="1"/>
        <pt x="190" y="82" on="1"/>
        <pt x="292" y="61" on="1"/>
        <pt x="449" y="28" on="0"/>
        <pt x="449" y="-81" on="1"/>
        <pt x="449" y="-168" on="0"/>
        <pt x="380" y="-222" on="1"/>
        <pt x="316" y="-272" on="0"/>
        <pt x="215" y="-272" on="1"/>
        <pt x="128" y="-272" on="0"/>
        <pt x="74" y="-229" on="1"/>
        <pt x="22" y="-187" on="0"/>
        <pt x="22" y="-123" on="1"/>
        <pt x="22" y="-40" on="0"/>
        <pt x="99" y="6" on="1"/>
        <pt x="75" y="32" on="0"/>
        <pt x="75" y="120" on="0"/>
      </contour>
      <contour>
        <pt x="232" y="397" on="1"/>
        <pt x="177" y="397" on="0"/>
        <pt x="162" y="341" on="1"/>
        <pt x="157" y="325" on="0"/>
        <pt x="157" y="271" on="0"/>
        <pt x="193" y="216" on="0"/>
        <pt x="272" y="216" on="0"/>
        <pt x="308" y="271" on="0"/>
        <pt x="308" y="325" on="0"/>
        <pt x="299" y="357" on="0"/>
        <pt x="290" y="370" on="1"/>
        <pt x="270" y="397" on="0"/>
      </contour>
      <contour>
        <pt x="170" y="-34" on="1"/>
        <pt x="131" y="-59" on="0"/>
        <pt x="131" y="-93" on="1"/>
        <pt x="131" y="-132" on="0"/>
        <pt x="188" y="-146" on="1"/>
        <pt x="210" y="-152" on="0"/>
        <pt x="263" y="-152" on="0"/>
        <pt x="302" y="-144" on="0"/>
        <pt x="318" y="-137" on="1"/>
        <pt x="353" y="-122" on="0"/>
        <pt x="353" y="-98" on="1"/>
        <pt x="353" y="-83" on="0"/>
        <pt x="318" y="-67" on="0"/>
        <pt x="265" y="-55" on="0"/>
        <pt x="200" y="-44" on="0"/>
      </contour>
    </TTGlyph>
    <TTGlyph name="germandbls" xMin="29" yMin="-4" xMax="547" yMax="735">
      <contour>
        <pt x="79" y="626" on="0"/>
        <pt x="186" y="735" on="0"/>
        <pt x="280" y="735" on="1"/>
        <pt x="421" y="735" on="0"/>
        <pt x="464" y="642" on="1"/>
        <pt x="480" y="608" on="0"/>
        <pt x="480" y="515" on="0"/>
        <pt x="449" y="457" on="0"/>
        <pt x="413" y="420" on="0"/>
        <pt x="382" y="396" on="0"/>
        <pt x="382" y="376" on="0"/>
        <pt x="390" y="363" on="0"/>
        <pt x="406" y="349" on="0"/>
        <pt x="432" y="332" on="0"/>
        <pt x="478" y="298" on="0"/>
        <pt x="516" y="259" on="0"/>
        <pt x="527" y="240" on="1"/>
        <pt x="547" y="207" on="0"/>
        <pt x="547" y="124" on="0"/>
        <pt x="519" y="63" on="0"/>
        <pt x="494" y="41" on="1"/>
        <pt x="444" y="-4" on="0"/>
        <pt x="362" y="-4" on="1"/>
        <pt x="313" y="-4" on="0"/>
        <pt x="255" y="15" on="0"/>
        <pt x="239" y="20" on="1"/>
        <pt x="290" y="141" on="1"/>
        <pt x="346" y="90" on="1"/>
        <pt x="385" y="90" on="0"/>
        <pt x="410" y="122" on="1"/>
        <pt x="421" y="136" on="0"/>
        <pt x="421" y="184" on="0"/>
        <pt x="398" y="221" on="0"/>
        <pt x="364" y="252" on="0"/>
        <pt x="323" y="280" on="0"/>
        <pt x="306" y="296" on="1"/>
        <pt x="266" y="334" on="0"/>
        <pt x="266" y="410" on="0"/>
        <pt x="294" y="451" on="0"/>
        <pt x="329" y="485" on="0"/>
        <pt x="357" y="525" on="0"/>
        <pt x="357" y="592" on="0"/>
        <pt x="316" y="640" on="0"/>
        <pt x="258" y="640" on="0"/>
        <pt x="227" y="622" on="0"/>
        <pt x="218" y="607" on="1"/>
        <pt x="200" y="579" on="0"/>
        <pt x="200" y="532" on="1"/>
        <pt x="200" y="0" on="1"/>
        <pt x="36" y="0" on="1"/>
        <pt x="29" y="72" on="1"/>
        <pt x="79" y="83" on="1"/>
        <pt x="79" y="531" on="1"/>
      </contour>
    </TTGlyph>
    <TTGlyph name="grave" xMin="57" yMin="447" xMax="281" yMax="682">
      <contour>
        <pt x="240" y="447" on="1"/>
        <pt x="57" y="591" on="1"/>
        <pt x="134" y="682" on="1"/>
        <pt x="169" y="665" on="1"/>
        <pt x="281" y="488" on="1"/>
      </contour>
    </TTGlyph>
    <TTGlyph name="greater" xMin="59" yMin="75" xMax="386" yMax="603">
      <contour>
        <pt x="59" y="603" on="1"/>
        <pt x="386" y="400" on="1"/>
        <pt x="386" y="279" on="1"/>
        <pt x="59" y="75" on="1"/>
        <pt x="59" y="206" on="1"/>
        <pt x="285" y="339" on="1"/>
        <pt x="59" y="471" on="1"/>
      </contour>
    </TTGlyph>
    <TTGlyph name="guillemotleft" xMin="1" yMin="123" xMax="436" yMax="553">
      <contour>
        <pt x="281" y="486" on="1"/>
        <pt x="133" y="337" on="1"/>
        <pt x="280" y="190" on="1"/>
        <pt x="214" y="123" on="1"/>
        <pt x="1" y="339" on="1"/>
        <pt x="214" y="553" on="1"/>
      </contour>
      <contour>
        <pt x="436" y="465" on="1"/>
        <pt x="309" y="337" on="1"/>
        <pt x="435" y="211" on="1"/>
        <pt x="369" y="144" on="1"/>
        <pt x="176" y="339" on="1"/>
        <pt x="369" y="532" on="1"/>
      </contour>
    </TTGlyph>
    <TTGlyph name="guillemotright" xMin="33" yMin="123" xMax="469" yMax="553">
      <contour>
        <pt x="256" y="553" on="1"/>
        <pt x="469" y="337" on="1"/>
        <pt x="256" y="123" on="1"/>
        <pt x="190" y="190" on="1"/>
        <pt x="337" y="337" on="1"/>
        <pt x="189" y="486" on="1"/>
      </contour>
      <contour>
        <pt x="100" y="532" on="1"/>
        <pt x="293" y="337" on="1"/>
        <pt x="100" y="144" on="1"/>
        <pt x="34" y="211" on="1"/>
        <pt x="160" y="337" on="1"/>
        <pt x="33" y="465" on="1"/>
      </contour>
    </TTGlyph>
    <TTGlyph name="guilsinglleft" xMin="2" yMin="50" xMax="270" yMax="550">
      <contour>
        <pt x="2" y="314" on="1"/>
        <pt x="265" y="550" on="1"/>
        <pt x="270" y="548" on="1"/>
        <pt x="270" y="417" on="1"/>
        <pt x="151" y="300" on="1"/>
        <pt x="270" y="184" on="1"/>
        <pt x="270" y="53" on="1"/>
        <pt x="264" y="50" on="1"/>
        <pt x="2" y="288" on="1"/>
      </contour>
    </TTGlyph>
    <TTGlyph name="guilsinglright" xMin="57" yMin="50" xMax="325" yMax="550">
      <contour>
        <pt x="325" y="288" on="1"/>
        <pt x="63" y="50" on="1"/>
        <pt x="57" y="53" on="1"/>
        <pt x="57" y="184" on="1"/>
        <pt x="176" y="300" on="1"/>
        <pt x="57" y="417" on="1"/>
        <pt x="57" y="548" on="1"/>
        <pt x="62" y="550" on="1"/>
        <pt x="325" y="314" on="1"/>
      </contour>
    </TTGlyph>
    <TTGlyph name="h" xMin="18" yMin="0" xMax="526" yMax="737">
      <contour>
        <pt x="526" y="64" on="1"/>
        <pt x="525" y="0" on="1"/>
        <pt x="300" y="0" on="1"/>
        <pt x="300" y="64" on="1"/>
        <pt x="350" y="75" on="1"/>
        <pt x="350" y="331" on="1"/>
        <pt x="350" y="393" on="0"/>
        <pt x="288" y="393" on="1"/>
        <pt x="247" y="393" on="0"/>
        <pt x="212" y="366" on="1"/>
        <pt x="204" y="360" on="0"/>
        <pt x="201" y="356" on="1"/>
        <pt x="201" y="75" on="1"/>
        <pt x="258" y="64" on="1"/>
        <pt x="257" y="0" on="1"/>
        <pt x="35" y="0" on="1"/>
        <pt x="23" y="64" on="1"/>
        <pt x="80" y="77" on="1"/>
        <pt x="80" y="648" on="1"/>
        <pt x="28" y="648" on="1"/>
        <pt x="18" y="716" on="1"/>
        <pt x="166" y="737" on="1"/>
        <pt x="201" y="700" on="1"/>
        <pt x="201" y="455" on="1"/>
        <pt x="220" y="469" on="0"/>
        <pt x="284" y="491" on="0"/>
        <pt x="348" y="491" on="0"/>
        <pt x="404" y="475" on="0"/>
        <pt x="425" y="459" on="1"/>
        <pt x="471" y="424" on="0"/>
        <pt x="471" y="359" on="1"/>
        <pt x="471" y="76" on="1"/>
      </contour>
    </TTGlyph>
    <TTGlyph name="hyphen" xMin="53" yMin="250" xMax="369" yMax="344">
      <contour>
        <pt x="53" y="250" on="1"/>
        <pt x="53" y="332" on="1"/>
        <pt x="71" y="344" on="1"/>
        <pt x="363" y="344" on="1"/>
        <pt x="369" y="344" on="0"/>
        <pt x="369" y="337" on="1"/>
        <pt x="369" y="250" on="1"/>
      </contour>
    </TTGlyph>
    <TTGlyph name="i" xMin="26" yMin="0" xMax="264" yMax="735">
      <contour>
        <pt x="111" y="590" on="0"/>
        <pt x="68" y="633" on="0"/>
        <pt x="68" y="692" on="0"/>
        <pt x="111" y="735" on="0"/>
        <pt x="141" y="735" on="1"/>
        <pt x="171" y="735" on="0"/>
        <pt x="213" y="692" on="0"/>
        <pt x="213" y="633" on="0"/>
        <pt x="171" y="590" on="0"/>
        <pt x="141" y="590" on="1"/>
      </contour>
      <contour>
        <pt x="26" y="466" on="1"/>
        <pt x="175" y="492" on="1"/>
        <pt x="209" y="456" on="1"/>
        <pt x="209" y="75" on="1"/>
        <pt x="264" y="64" on="1"/>
        <pt x="264" y="0" on="1"/>
        <pt x="43" y="0" on="1"/>
        <pt x="32" y="64" on="1"/>
        <pt x="88" y="77" on="1"/>
        <pt x="88" y="398" on="1"/>
        <pt x="37" y="398" on="1"/>
      </contour>
    </TTGlyph>
    <TTGlyph name="iacute" xMin="26" yMin="0" xMax="265" yMax="736">
      <contour>
        <pt x="26" y="466" on="1"/>
        <pt x="175" y="492" on="1"/>
        <pt x="209" y="456" on="1"/>
        <pt x="209" y="75" on="1"/>
        <pt x="264" y="64" on="1"/>
        <pt x="264" y="0" on="1"/>
        <pt x="43" y="0" on="1"/>
        <pt x="32" y="64" on="1"/>
        <pt x="88" y="77" on="1"/>
        <pt x="88" y="398" on="1"/>
        <pt x="37" y="398" on="1"/>
      </contour>
      <contour>
        <pt x="26" y="561" on="1"/>
        <pt x="152" y="722" on="1"/>
        <pt x="188" y="736" on="1"/>
        <pt x="265" y="630" on="1"/>
        <pt x="72" y="509" on="1"/>
      </contour>
    </TTGlyph>
    <TTGlyph name="icircumflex" xMin="-4" yMin="0" xMax="296" yMax="700">
      <contour>
        <pt x="-4" y="541" on="1"/>
        <pt x="129" y="700" on="1"/>
        <pt x="162" y="700" on="1"/>
        <pt x="296" y="540" on="1"/>
        <pt x="290" y="529" on="1"/>
        <pt x="212" y="529" on="1"/>
        <pt x="145" y="581" on="1"/>
        <pt x="78" y="529" on="1"/>
        <pt x="1" y="529" on="1"/>
      </contour>
      <contour>
        <pt x="26" y="466" on="1"/>
        <pt x="175" y="492" on="1"/>
        <pt x="209" y="456" on="1"/>
        <pt x="209" y="75" on="1"/>
        <pt x="264" y="64" on="1"/>
        <pt x="264" y="0" on="1"/>
        <pt x="43" y="0" on="1"/>
        <pt x="32" y="64" on="1"/>
        <pt x="88" y="77" on="1"/>
        <pt x="88" y="398" on="1"/>
        <pt x="37" y="398" on="1"/>
      </contour>
    </TTGlyph>
    <TTGlyph name="idieresis" xMin="-4" yMin="0" xMax="271" yMax="696">
      <contour>
        <pt x="-4" y="634" on="1"/>
        <pt x="-4" y="660" on="0"/>
        <pt x="32" y="696" on="0"/>
        <pt x="58" y="696" on="1"/>
        <pt x="84" y="696" on="0"/>
        <pt x="120" y="660" on="0"/>
        <pt x="120" y="634" on="1"/>
        <pt x="120" y="608" on="0"/>
        <pt x="84" y="572" on="0"/>
        <pt x="58" y="572" on="1"/>
        <pt x="32" y="572" on="0"/>
        <pt x="-4" y="608" on="0"/>
      </contour>
      <contour>
        <pt x="147" y="634" on="1"/>
        <pt x="147" y="660" on="0"/>
        <pt x="183" y="696" on="0"/>
        <pt x="209" y="696" on="1"/>
        <pt x="235" y="696" on="0"/>
        <pt x="271" y="660" on="0"/>
        <pt x="271" y="634" on="1"/>
        <pt x="271" y="608" on="0"/>
        <pt x="235" y="572" on="0"/>
        <pt x="209" y="572" on="1"/>
        <pt x="183" y="572" on="0"/>
        <pt x="147" y="608" on="0"/>
      </contour>
      <contour>
        <pt x="26" y="466" on="1"/>
        <pt x="175" y="492" on="1"/>
        <pt x="209" y="456" on="1"/>
        <pt x="209" y="75" on="1"/>
        <pt x="264" y="64" on="1"/>
        <pt x="264" y="0" on="1"/>
        <pt x="43" y="0" on="1"/>
        <pt x="32" y="64" on="1"/>
        <pt x="88" y="77" on="1"/>
        <pt x="88" y="398" on="1"/>
        <pt x="37" y="398" on="1"/>
      </contour>
    </TTGlyph>
    <TTGlyph name="igrave" xMin="22" yMin="0" xMax="264" yMax="736">
      <contour>
        <pt x="175" y="492" on="1"/>
        <pt x="175" y="492" on="0"/>
        <pt x="26" y="466" on="1"/>
        <pt x="37" y="398" on="1"/>
        <pt x="88" y="398" on="1"/>
        <pt x="88" y="77" on="1"/>
        <pt x="32" y="64" on="1"/>
        <pt x="43" y="0" on="1"/>
        <pt x="264" y="0" on="1"/>
        <pt x="264" y="64" on="1"/>
        <pt x="209" y="75" on="1"/>
        <pt x="209" y="456" on="1"/>
      </contour>
      <contour>
        <pt x="215" y="509" on="1"/>
        <pt x="22" y="630" on="1"/>
        <pt x="99" y="736" on="1"/>
        <pt x="135" y="722" on="1"/>
        <pt x="261" y="561" on="1"/>
      </contour>
    </TTGlyph>
    <TTGlyph name="j" xMin="-27" yMin="-268" xMax="200" yMax="735">
      <contour>
        <pt x="27" y="-148" on="1"/>
        <pt x="40" y="-161" on="0"/>
        <pt x="72" y="-161" on="0"/>
        <pt x="79" y="-129" on="0"/>
        <pt x="79" y="-105" on="1"/>
        <pt x="79" y="398" on="1"/>
        <pt x="28" y="398" on="1"/>
        <pt x="17" y="466" on="1"/>
        <pt x="165" y="492" on="1"/>
        <pt x="200" y="456" on="1"/>
        <pt x="200" y="-103" on="1"/>
        <pt x="200" y="-204" on="0"/>
        <pt x="148" y="-244" on="1"/>
        <pt x="117" y="-268" on="0"/>
        <pt x="67" y="-268" on="1"/>
        <pt x="14" y="-268" on="0"/>
        <pt x="-27" y="-233" on="1"/>
      </contour>
      <contour>
        <pt x="95" y="590" on="0"/>
        <pt x="52" y="633" on="0"/>
        <pt x="52" y="692" on="0"/>
        <pt x="95" y="735" on="0"/>
        <pt x="154" y="735" on="0"/>
        <pt x="197" y="692" on="0"/>
        <pt x="197" y="633" on="0"/>
        <pt x="154" y="590" on="0"/>
      </contour>
    </TTGlyph>
    <TTGlyph name="k" xMin="18" yMin="0" xMax="494" yMax="737">
      <contour>
        <pt x="248" y="64" on="1"/>
        <pt x="247" y="0" on="1"/>
        <pt x="35" y="0" on="1"/>
        <pt x="23" y="64" on="1"/>
        <pt x="80" y="77" on="1"/>
        <pt x="80" y="648" on="1"/>
        <pt x="28" y="648" on="1"/>
        <pt x="18" y="716" on="1"/>
        <pt x="166" y="737" on="1"/>
        <pt x="201" y="700" on="1"/>
        <pt x="201" y="272" on="1"/>
        <pt x="329" y="413" on="1"/>
        <pt x="276" y="413" on="1"/>
        <pt x="266" y="491" on="1"/>
        <pt x="443" y="491" on="1"/>
        <pt x="478" y="426" on="1"/>
        <pt x="339" y="287" on="1"/>
        <pt x="446" y="73" on="1"/>
        <pt x="493" y="62" on="1"/>
        <pt x="494" y="0" on="1"/>
        <pt x="343" y="0" on="1"/>
        <pt x="250" y="198" on="1"/>
        <pt x="201" y="149" on="1"/>
        <pt x="201" y="75" on="1"/>
      </contour>
    </TTGlyph>
    <TTGlyph name="l" xMin="16" yMin="0" xMax="265" yMax="737">
      <contour>
        <pt x="200" y="700" on="1"/>
        <pt x="200" y="79" on="1"/>
        <pt x="265" y="63" on="1"/>
        <pt x="265" y="0" on="1"/>
        <pt x="34" y="0" on="1"/>
        <pt x="23" y="63" on="1"/>
        <pt x="79" y="77" on="1"/>
        <pt x="79" y="648" on="1"/>
        <pt x="27" y="648" on="1"/>
        <pt x="16" y="716" on="1"/>
        <pt x="165" y="737" on="1"/>
      </contour>
    </TTGlyph>
    <TTGlyph name="less" xMin="29" yMin="75" xMax="356" yMax="603">
      <contour>
        <pt x="356" y="471" on="1"/>
        <pt x="130" y="339" on="1"/>
        <pt x="356" y="206" on="1"/>
        <pt x="356" y="75" on="1"/>
        <pt x="29" y="279" on="1"/>
        <pt x="29" y="400" on="1"/>
        <pt x="356" y="603" on="1"/>
      </contour>
    </TTGlyph>
    <TTGlyph name="logicalnot" xMin="41" yMin="260" xMax="516" yMax="480">
      <contour>
        <pt x="411" y="375" on="1"/>
        <pt x="41" y="375" on="1"/>
        <pt x="41" y="468" on="1"/>
        <pt x="51" y="480" on="1"/>
        <pt x="503" y="480" on="1"/>
        <pt x="516" y="467" on="1"/>
        <pt x="516" y="267" on="1"/>
        <pt x="516" y="260" on="0"/>
        <pt x="508" y="260" on="1"/>
        <pt x="411" y="260" on="1"/>
      </contour>
    </TTGlyph>
    <TTGlyph name="m" xMin="26" yMin="0" xMax="799" yMax="492">
      <contour>
        <pt x="531" y="64" on="1"/>
        <pt x="530" y="0" on="1"/>
        <pt x="310" y="0" on="1"/>
        <pt x="310" y="64" on="1"/>
        <pt x="358" y="75" on="1"/>
        <pt x="358" y="331" on="1"/>
        <pt x="358" y="393" on="0"/>
        <pt x="296" y="393" on="1"/>
        <pt x="255" y="393" on="0"/>
        <pt x="220" y="366" on="1"/>
        <pt x="212" y="360" on="0"/>
        <pt x="209" y="356" on="1"/>
        <pt x="209" y="75" on="1"/>
        <pt x="266" y="63" on="1"/>
        <pt x="265" y="0" on="1"/>
        <pt x="43" y="0" on="1"/>
        <pt x="30" y="63" on="1"/>
        <pt x="88" y="77" on="1"/>
        <pt x="88" y="398" on="1"/>
        <pt x="37" y="398" on="1"/>
        <pt x="26" y="466" on="1"/>
        <pt x="174" y="492" on="1"/>
        <pt x="209" y="455" on="1"/>
        <pt x="228" y="469" on="0"/>
        <pt x="292" y="491" on="0"/>
        <pt x="325" y="491" on="1"/>
        <pt x="407" y="491" on="0"/>
        <pt x="448" y="444" on="1"/>
        <pt x="513" y="491" on="0"/>
        <pt x="597" y="491" on="1"/>
        <pt x="701" y="491" on="0"/>
        <pt x="736" y="418" on="1"/>
        <pt x="748" y="393" on="0"/>
        <pt x="748" y="359" on="1"/>
        <pt x="748" y="76" on="1"/>
        <pt x="799" y="64" on="1"/>
        <pt x="798" y="0" on="1"/>
        <pt x="571" y="0" on="1"/>
        <pt x="571" y="63" on="1"/>
        <pt x="627" y="75" on="1"/>
        <pt x="627" y="331" on="1"/>
        <pt x="627" y="393" on="0"/>
        <pt x="565" y="393" on="1"/>
        <pt x="524" y="393" on="0"/>
        <pt x="490" y="366" on="1"/>
        <pt x="481" y="360" on="0"/>
        <pt x="478" y="356" on="1"/>
        <pt x="478" y="74" on="1"/>
      </contour>
    </TTGlyph>
    <TTGlyph name="macron" xMin="57" yMin="629" xMax="386" yMax="726">
      <contour>
        <pt x="57" y="726" on="1"/>
        <pt x="386" y="726" on="1"/>
        <pt x="386" y="629" on="1"/>
        <pt x="57" y="629" on="1"/>
      </contour>
    </TTGlyph>
    <TTGlyph name="mu" xMin="25" yMin="-274" xMax="527" yMax="492">
      <contour>
        <pt x="205" y="3" on="1"/>
        <pt x="209" y="-21" on="0"/>
        <pt x="209" y="-41" on="1"/>
        <pt x="209" y="-274" on="1"/>
        <pt x="88" y="-274" on="1"/>
        <pt x="88" y="398" on="1"/>
        <pt x="35" y="398" on="1"/>
        <pt x="25" y="465" on="1"/>
        <pt x="175" y="492" on="1"/>
        <pt x="209" y="458" on="1"/>
        <pt x="209" y="151" on="1"/>
        <pt x="217" y="92" on="0"/>
        <pt x="276" y="92" on="1"/>
        <pt x="303" y="92" on="0"/>
        <pt x="349" y="124" on="0"/>
        <pt x="357" y="144" on="1"/>
        <pt x="357" y="401" on="1"/>
        <pt x="312" y="398" on="1"/>
        <pt x="301" y="465" on="1"/>
        <pt x="443" y="492" on="1"/>
        <pt x="478" y="454" on="1"/>
        <pt x="478" y="105" on="1"/>
        <pt x="478" y="83" on="0"/>
        <pt x="494" y="83" on="1"/>
        <pt x="508" y="85" on="1"/>
        <pt x="527" y="29" on="1"/>
        <pt x="521" y="22" on="0"/>
        <pt x="481" y="-4" on="0"/>
        <pt x="450" y="-4" on="1"/>
        <pt x="391" y="-4" on="0"/>
        <pt x="369" y="43" on="1"/>
        <pt x="326" y="-4" on="0"/>
        <pt x="262" y="-4" on="1"/>
        <pt x="238" y="-4" on="0"/>
      </contour>
    </TTGlyph>
    <TTGlyph name="multiply" xMin="35" yMin="130" xMax="430" yMax="526">
      <contour>
        <pt x="35" y="201" on="1"/>
        <pt x="162" y="328" on="1"/>
        <pt x="35" y="455" on="1"/>
        <pt x="105" y="525" on="1"/>
        <pt x="232" y="398" on="1"/>
        <pt x="359" y="526" on="1"/>
        <pt x="430" y="456" on="1"/>
        <pt x="303" y="328" on="1"/>
        <pt x="430" y="202" on="1"/>
        <pt x="359" y="131" on="1"/>
        <pt x="232" y="257" on="1"/>
        <pt x="105" y="130" on="1"/>
      </contour>
    </TTGlyph>
    <TTGlyph name="n" xMin="26" yMin="0" xMax="534" yMax="492">
      <contour>
        <pt x="26" y="466" on="1"/>
        <pt x="174" y="492" on="1"/>
        <pt x="209" y="455" on="1"/>
        <pt x="228" y="469" on="0"/>
        <pt x="292" y="491" on="0"/>
        <pt x="356" y="491" on="0"/>
        <pt x="412" y="475" on="0"/>
        <pt x="433" y="459" on="1"/>
        <pt x="479" y="424" on="0"/>
        <pt x="479" y="359" on="1"/>
        <pt x="479" y="73" on="1"/>
        <pt x="534" y="64" on="1"/>
        <pt x="533" y="0" on="1"/>
        <pt x="308" y="0" on="1"/>
        <pt x="308" y="64" on="1"/>
        <pt x="358" y="75" on="1"/>
        <pt x="358" y="331" on="1"/>
        <pt x="358" y="393" on="0"/>
        <pt x="296" y="393" on="1"/>
        <pt x="255" y="393" on="0"/>
        <pt x="220" y="366" on="1"/>
        <pt x="212" y="360" on="0"/>
        <pt x="209" y="356" on="1"/>
        <pt x="209" y="75" on="1"/>
        <pt x="266" y="63" on="1"/>
        <pt x="265" y="0" on="1"/>
        <pt x="43" y="0" on="1"/>
        <pt x="32" y="64" on="1"/>
        <pt x="88" y="77" on="1"/>
        <pt x="88" y="398" on="1"/>
        <pt x="37" y="398" on="1"/>
      </contour>
    </TTGlyph>
    <TTGlyph name="nine" xMin="27" yMin="-4" xMax="506" yMax="691">
      <contour>
        <pt x="367" y="289" on="1"/>
        <pt x="322" y="249" on="0"/>
        <pt x="253" y="249" on="1"/>
        <pt x="156" y="249" on="0"/>
        <pt x="100" y="302" on="1"/>
        <pt x="39" y="358" on="0"/>
        <pt x="39" y="458" on="1"/>
        <pt x="39" y="559" on="0"/>
        <pt x="96" y="622" on="1"/>
        <pt x="157" y="691" on="0"/>
        <pt x="271" y="691" on="1"/>
        <pt x="389" y="691" on="0"/>
        <pt x="452" y="586" on="1"/>
        <pt x="506" y="494" on="0"/>
        <pt x="506" y="338" on="1"/>
        <pt x="506" y="192" on="0"/>
        <pt x="436" y="96" on="1"/>
        <pt x="361" y="-4" on="0"/>
        <pt x="234" y="-4" on="1"/>
        <pt x="138" y="-4" on="0"/>
        <pt x="60" y="48" on="1"/>
        <pt x="39" y="61" on="0"/>
        <pt x="27" y="73" on="1"/>
        <pt x="98" y="167" on="1"/>
        <pt x="165" y="104" on="0"/>
        <pt x="243" y="101" on="1"/>
        <pt x="334" y="104" on="0"/>
        <pt x="358" y="212" on="1"/>
        <pt x="365" y="247" on="0"/>
      </contour>
      <contour>
        <pt x="262" y="354" on="1"/>
        <pt x="291" y="354" on="0"/>
        <pt x="352" y="392" on="0"/>
        <pt x="366" y="427" on="1"/>
        <pt x="359" y="541" on="0"/>
        <pt x="309" y="574" on="1"/>
        <pt x="290" y="586" on="0"/>
        <pt x="238" y="586" on="0"/>
        <pt x="204" y="563" on="0"/>
        <pt x="194" y="546" on="1"/>
        <pt x="175" y="514" on="0"/>
        <pt x="175" y="419" on="0"/>
        <pt x="217" y="354" on="0"/>
      </contour>
    </TTGlyph>
    <TTGlyph name="ntilde" xMin="26" yMin="0" xMax="534" yMax="698">
      <contour>
        <pt x="465" y="628" on="1"/>
        <pt x="414" y="555" on="0"/>
        <pt x="365" y="555" on="1"/>
        <pt x="341" y="555" on="0"/>
        <pt x="289" y="583" on="0"/>
        <pt x="262" y="596" on="0"/>
        <pt x="220" y="596" on="0"/>
        <pt x="191" y="565" on="0"/>
        <pt x="186" y="548" on="1"/>
        <pt x="122" y="590" on="1"/>
        <pt x="123" y="609" on="1"/>
        <pt x="143" y="659" on="0"/>
        <pt x="194" y="682" on="1"/>
        <pt x="215" y="691" on="0"/>
        <pt x="261" y="691" on="0"/>
        <pt x="297" y="678" on="0"/>
        <pt x="327" y="663" on="0"/>
        <pt x="349" y="648" on="0"/>
        <pt x="355" y="647" on="1"/>
        <pt x="392" y="698" on="1"/>
      </contour>
      <contour>
        <pt x="26" y="466" on="1"/>
        <pt x="174" y="492" on="1"/>
        <pt x="209" y="455" on="1"/>
        <pt x="228" y="469" on="0"/>
        <pt x="292" y="491" on="0"/>
        <pt x="356" y="491" on="0"/>
        <pt x="412" y="475" on="0"/>
        <pt x="433" y="459" on="1"/>
        <pt x="479" y="424" on="0"/>
        <pt x="479" y="359" on="1"/>
        <pt x="479" y="73" on="1"/>
        <pt x="534" y="64" on="1"/>
        <pt x="533" y="0" on="1"/>
        <pt x="308" y="0" on="1"/>
        <pt x="308" y="64" on="1"/>
        <pt x="358" y="75" on="1"/>
        <pt x="358" y="331" on="1"/>
        <pt x="358" y="393" on="0"/>
        <pt x="296" y="393" on="1"/>
        <pt x="255" y="393" on="0"/>
        <pt x="220" y="366" on="1"/>
        <pt x="212" y="360" on="0"/>
        <pt x="209" y="356" on="1"/>
        <pt x="209" y="75" on="1"/>
        <pt x="266" y="63" on="1"/>
        <pt x="265" y="0" on="1"/>
        <pt x="43" y="0" on="1"/>
        <pt x="32" y="64" on="1"/>
        <pt x="88" y="77" on="1"/>
        <pt x="88" y="398" on="1"/>
        <pt x="37" y="398" on="1"/>
      </contour>
    </TTGlyph>
    <TTGlyph name="numbersign" xMin="29" yMin="48" xMax="642" yMax="670">
      <contour>
        <pt x="355" y="512" on="1"/>
        <pt x="433" y="512" on="1"/>
        <pt x="485" y="670" on="1"/>
        <pt x="595" y="670" on="1"/>
        <pt x="608" y="656" on="1"/>
        <pt x="561" y="512" on="1"/>
        <pt x="636" y="512" on="1"/>
        <pt x="642" y="512" on="0"/>
        <pt x="642" y="504" on="1"/>
        <pt x="642" y="407" on="1"/>
        <pt x="526" y="407" on="1"/>
        <pt x="487" y="288" on="1"/>
        <pt x="594" y="288" on="1"/>
        <pt x="600" y="288" on="0"/>
        <pt x="600" y="279" on="1"/>
        <pt x="600" y="183" on="1"/>
        <pt x="453" y="183" on="1"/>
        <pt x="409" y="48" on="1"/>
        <pt x="302" y="48" on="1"/>
        <pt x="286" y="61" on="1"/>
        <pt x="326" y="183" on="1"/>
        <pt x="244" y="183" on="1"/>
        <pt x="199" y="48" on="1"/>
        <pt x="92" y="48" on="1"/>
        <pt x="76" y="61" on="1"/>
        <pt x="117" y="183" on="1"/>
        <pt x="47" y="183" on="1"/>
        <pt x="29" y="254" on="1"/>
        <pt x="47" y="288" on="1"/>
        <pt x="152" y="288" on="1"/>
        <pt x="192" y="407" on="1"/>
        <pt x="78" y="407" on="1"/>
        <pt x="60" y="479" on="1"/>
        <pt x="78" y="512" on="1"/>
        <pt x="228" y="512" on="1"/>
        <pt x="281" y="670" on="1"/>
        <pt x="390" y="670" on="1"/>
        <pt x="404" y="656" on="1"/>
      </contour>
      <contour>
        <pt x="280" y="288" on="1"/>
        <pt x="360" y="288" on="1"/>
        <pt x="399" y="407" on="1"/>
        <pt x="320" y="407" on="1"/>
      </contour>
    </TTGlyph>
    <TTGlyph name="o" xMin="29" yMin="-4" xMax="470" yMax="491">
      <contour>
        <pt x="29" y="246" on="1"/>
        <pt x="29" y="360" on="0"/>
        <pt x="98" y="429" on="1"/>
        <pt x="160" y="491" on="0"/>
        <pt x="249" y="491" on="1"/>
        <pt x="339" y="491" on="0"/>
        <pt x="401" y="429" on="1"/>
        <pt x="470" y="360" on="0"/>
        <pt x="470" y="246" on="1"/>
        <pt x="470" y="130" on="0"/>
        <pt x="401" y="60" on="1"/>
        <pt x="339" y="-4" on="0"/>
        <pt x="249" y="-4" on="1"/>
        <pt x="160" y="-4" on="0"/>
        <pt x="98" y="60" on="1"/>
        <pt x="29" y="130" on="0"/>
      </contour>
      <contour>
        <pt x="153" y="240" on="1"/>
        <pt x="153" y="124" on="0"/>
        <pt x="212" y="98" on="1"/>
        <pt x="229" y="90" on="0"/>
        <pt x="249" y="90" on="1"/>
        <pt x="318" y="90" on="0"/>
        <pt x="338" y="170" on="1"/>
        <pt x="346" y="198" on="0"/>
        <pt x="346" y="240" on="1"/>
        <pt x="346" y="360" on="0"/>
        <pt x="286" y="388" on="1"/>
        <pt x="269" y="397" on="0"/>
        <pt x="249" y="397" on="1"/>
        <pt x="182" y="397" on="0"/>
        <pt x="160" y="312" on="1"/>
        <pt x="153" y="282" on="0"/>
      </contour>
    </TTGlyph>
    <TTGlyph name="oacute" xMin="29" yMin="-4" xMax="470" yMax="736">
      <contour>
        <pt x="29" y="246" on="1"/>
        <pt x="29" y="360" on="0"/>
        <pt x="98" y="429" on="1"/>
        <pt x="160" y="491" on="0"/>
        <pt x="249" y="491" on="1"/>
        <pt x="339" y="491" on="0"/>
        <pt x="401" y="429" on="1"/>
        <pt x="470" y="360" on="0"/>
        <pt x="470" y="246" on="1"/>
        <pt x="470" y="130" on="0"/>
        <pt x="401" y="60" on="1"/>
        <pt x="339" y="-4" on="0"/>
        <pt x="249" y="-4" on="1"/>
        <pt x="160" y="-4" on="0"/>
        <pt x="98" y="60" on="1"/>
        <pt x="29" y="130" on="0"/>
      </contour>
      <contour>
        <pt x="153" y="240" on="1"/>
        <pt x="153" y="124" on="0"/>
        <pt x="212" y="98" on="1"/>
        <pt x="229" y="90" on="0"/>
        <pt x="249" y="90" on="1"/>
        <pt x="318" y="90" on="0"/>
        <pt x="338" y="170" on="1"/>
        <pt x="346" y="198" on="0"/>
        <pt x="346" y="240" on="1"/>
        <pt x="346" y="360" on="0"/>
        <pt x="286" y="388" on="1"/>
        <pt x="269" y="397" on="0"/>
        <pt x="249" y="397" on="1"/>
        <pt x="182" y="397" on="0"/>
        <pt x="160" y="312" on="1"/>
        <pt x="153" y="282" on="0"/>
      </contour>
      <contour>
        <pt x="143" y="561" on="1"/>
        <pt x="269" y="722" on="1"/>
        <pt x="305" y="736" on="1"/>
        <pt x="382" y="630" on="1"/>
        <pt x="189" y="509" on="1"/>
      </contour>
    </TTGlyph>
    <TTGlyph name="ocircumflex" xMin="29" yMin="-4" xMax="470" yMax="700">
      <contour>
        <pt x="96" y="541" on="1"/>
        <pt x="229" y="700" on="1"/>
        <pt x="262" y="700" on="1"/>
        <pt x="396" y="540" on="1"/>
        <pt x="390" y="529" on="1"/>
        <pt x="312" y="529" on="1"/>
        <pt x="245" y="581" on="1"/>
        <pt x="178" y="529" on="1"/>
        <pt x="101" y="529" on="1"/>
      </contour>
      <contour>
        <pt x="29" y="246" on="1"/>
        <pt x="29" y="360" on="0"/>
        <pt x="98" y="429" on="1"/>
        <pt x="160" y="491" on="0"/>
        <pt x="249" y="491" on="1"/>
        <pt x="339" y="491" on="0"/>
        <pt x="401" y="429" on="1"/>
        <pt x="470" y="360" on="0"/>
        <pt x="470" y="246" on="1"/>
        <pt x="470" y="130" on="0"/>
        <pt x="401" y="60" on="1"/>
        <pt x="339" y="-4" on="0"/>
        <pt x="249" y="-4" on="1"/>
        <pt x="160" y="-4" on="0"/>
        <pt x="98" y="60" on="1"/>
        <pt x="29" y="130" on="0"/>
      </contour>
      <contour>
        <pt x="153" y="240" on="1"/>
        <pt x="153" y="124" on="0"/>
        <pt x="212" y="98" on="1"/>
        <pt x="229" y="90" on="0"/>
        <pt x="249" y="90" on="1"/>
        <pt x="318" y="90" on="0"/>
        <pt x="338" y="170" on="1"/>
        <pt x="346" y="198" on="0"/>
        <pt x="346" y="240" on="1"/>
        <pt x="346" y="360" on="0"/>
        <pt x="286" y="388" on="1"/>
        <pt x="269" y="397" on="0"/>
        <pt x="249" y="397" on="1"/>
        <pt x="182" y="397" on="0"/>
        <pt x="160" y="312" on="1"/>
        <pt x="153" y="282" on="0"/>
      </contour>
    </TTGlyph>
    <TTGlyph name="odieresis" xMin="29" yMin="-4" xMax="470" yMax="696">
      <contour>
        <pt x="105" y="634" on="1"/>
        <pt x="105" y="660" on="0"/>
        <pt x="141" y="696" on="0"/>
        <pt x="167" y="696" on="1"/>
        <pt x="193" y="696" on="0"/>
        <pt x="229" y="660" on="0"/>
        <pt x="229" y="634" on="1"/>
        <pt x="229" y="608" on="0"/>
        <pt x="193" y="572" on="0"/>
        <pt x="167" y="572" on="1"/>
        <pt x="141" y="572" on="0"/>
        <pt x="105" y="608" on="0"/>
      </contour>
      <contour>
        <pt x="267" y="634" on="1"/>
        <pt x="267" y="660" on="0"/>
        <pt x="303" y="696" on="0"/>
        <pt x="329" y="696" on="1"/>
        <pt x="355" y="696" on="0"/>
        <pt x="391" y="660" on="0"/>
        <pt x="391" y="634" on="1"/>
        <pt x="391" y="608" on="0"/>
        <pt x="355" y="572" on="0"/>
        <pt x="329" y="572" on="1"/>
        <pt x="303" y="572" on="0"/>
        <pt x="267" y="608" on="0"/>
      </contour>
      <contour>
        <pt x="29" y="246" on="1"/>
        <pt x="29" y="360" on="0"/>
        <pt x="98" y="429" on="1"/>
        <pt x="160" y="491" on="0"/>
        <pt x="249" y="491" on="1"/>
        <pt x="339" y="491" on="0"/>
        <pt x="401" y="429" on="1"/>
        <pt x="470" y="360" on="0"/>
        <pt x="470" y="246" on="1"/>
        <pt x="470" y="130" on="0"/>
        <pt x="401" y="60" on="1"/>
        <pt x="339" y="-4" on="0"/>
        <pt x="249" y="-4" on="1"/>
        <pt x="160" y="-4" on="0"/>
        <pt x="98" y="60" on="1"/>
        <pt x="29" y="130" on="0"/>
      </contour>
      <contour>
        <pt x="153" y="240" on="1"/>
        <pt x="153" y="124" on="0"/>
        <pt x="212" y="98" on="1"/>
        <pt x="229" y="90" on="0"/>
        <pt x="249" y="90" on="1"/>
        <pt x="318" y="90" on="0"/>
        <pt x="338" y="170" on="1"/>
        <pt x="346" y="198" on="0"/>
        <pt x="346" y="240" on="1"/>
        <pt x="346" y="360" on="0"/>
        <pt x="286" y="388" on="1"/>
        <pt x="269" y="397" on="0"/>
        <pt x="249" y="397" on="1"/>
        <pt x="182" y="397" on="0"/>
        <pt x="160" y="312" on="1"/>
        <pt x="153" y="282" on="0"/>
      </contour>
    </TTGlyph>
    <TTGlyph name="oe" xMin="29" yMin="-4" xMax="740" yMax="491">
      <contour>
        <pt x="408" y="421" on="1"/>
        <pt x="472" y="491" on="0"/>
        <pt x="569" y="491" on="1"/>
        <pt x="638" y="491" on="0"/>
        <pt x="686" y="458" on="1"/>
        <pt x="740" y="420" on="0"/>
        <pt x="740" y="354" on="1"/>
        <pt x="740" y="275" on="0"/>
        <pt x="675" y="234" on="1"/>
        <pt x="617" y="197" on="0"/>
        <pt x="523" y="197" on="1"/>
        <pt x="496" y="197" on="1"/>
        <pt x="483" y="197" on="0"/>
        <pt x="472" y="198" on="1"/>
        <pt x="486" y="91" on="0"/>
        <pt x="593" y="91" on="1"/>
        <pt x="639" y="91" on="0"/>
        <pt x="695" y="126" on="0"/>
        <pt x="713" y="143" on="1"/>
        <pt x="736" y="56" on="1"/>
        <pt x="708" y="19" on="0"/>
        <pt x="630" y="2" on="1"/>
        <pt x="604" y="-4" on="0"/>
        <pt x="573" y="-4" on="1"/>
        <pt x="472" y="-4" on="0"/>
        <pt x="406" y="66" on="1"/>
        <pt x="342" y="-4" on="0"/>
        <pt x="249" y="-4" on="1"/>
        <pt x="160" y="-4" on="0"/>
        <pt x="98" y="60" on="1"/>
        <pt x="29" y="130" on="0"/>
        <pt x="29" y="246" on="1"/>
        <pt x="29" y="360" on="0"/>
        <pt x="98" y="429" on="1"/>
        <pt x="160" y="491" on="0"/>
        <pt x="344" y="491" on="0"/>
      </contour>
      <contour>
        <pt x="153" y="240" on="1"/>
        <pt x="153" y="124" on="0"/>
        <pt x="212" y="98" on="1"/>
        <pt x="229" y="90" on="0"/>
        <pt x="249" y="90" on="1"/>
        <pt x="318" y="90" on="0"/>
        <pt x="338" y="170" on="1"/>
        <pt x="346" y="198" on="0"/>
        <pt x="346" y="240" on="1"/>
        <pt x="346" y="360" on="0"/>
        <pt x="286" y="388" on="1"/>
        <pt x="269" y="397" on="0"/>
        <pt x="249" y="397" on="1"/>
        <pt x="182" y="397" on="0"/>
        <pt x="160" y="312" on="1"/>
        <pt x="153" y="282" on="0"/>
      </contour>
      <contour>
        <pt x="473" y="282" on="1"/>
        <pt x="478" y="281" on="0"/>
        <pt x="488" y="281" on="1"/>
        <pt x="506" y="281" on="1"/>
        <pt x="579" y="281" on="0"/>
        <pt x="607" y="317" on="1"/>
        <pt x="617" y="330" on="0"/>
        <pt x="617" y="373" on="0"/>
        <pt x="591" y="396" on="0"/>
        <pt x="553" y="396" on="0"/>
        <pt x="519" y="378" on="0"/>
        <pt x="506" y="362" on="1"/>
        <pt x="477" y="330" on="0"/>
      </contour>
    </TTGlyph>
    <TTGlyph name="ograve" xMin="29" yMin="-4" xMax="470" yMax="736">
      <contour>
        <pt x="29" y="246" on="1"/>
        <pt x="29" y="130" on="0"/>
        <pt x="98" y="60" on="1"/>
        <pt x="160" y="-4" on="0"/>
        <pt x="249" y="-4" on="1"/>
        <pt x="339" y="-4" on="0"/>
        <pt x="401" y="60" on="1"/>
        <pt x="470" y="130" on="0"/>
        <pt x="470" y="246" on="1"/>
        <pt x="470" y="360" on="0"/>
        <pt x="401" y="429" on="1"/>
        <pt x="339" y="491" on="0"/>
        <pt x="249" y="491" on="1"/>
        <pt x="160" y="491" on="0"/>
        <pt x="98" y="429" on="1"/>
        <pt x="29" y="360" on="0"/>
      </contour>
      <contour>
        <pt x="153" y="240" on="1"/>
        <pt x="153" y="359" on="0"/>
        <pt x="212" y="388" on="1"/>
        <pt x="229" y="397" on="0"/>
        <pt x="249" y="397" on="1"/>
        <pt x="317" y="397" on="0"/>
        <pt x="338" y="312" on="1"/>
        <pt x="346" y="282" on="0"/>
        <pt x="346" y="240" on="1"/>
        <pt x="346" y="123" on="0"/>
        <pt x="286" y="98" on="1"/>
        <pt x="269" y="90" on="0"/>
        <pt x="249" y="90" on="1"/>
        <pt x="181" y="90" on="0"/>
        <pt x="160" y="170" on="1"/>
        <pt x="153" y="198" on="0"/>
      </contour>
      <contour>
        <pt x="310" y="509" on="1"/>
        <pt x="117" y="630" on="1"/>
        <pt x="194" y="736" on="1"/>
        <pt x="230" y="722" on="1"/>
        <pt x="356" y="561" on="1"/>
      </contour>
    </TTGlyph>
    <TTGlyph name="one" xMin="20" yMin="1" xMax="349" yMax="694">
      <contour>
        <pt x="347" y="38" on="1"/>
        <pt x="346" y="1" on="1"/>
        <pt x="37" y="1" on="1"/>
        <pt x="34" y="83" on="1"/>
        <pt x="133" y="98" on="1"/>
        <pt x="133" y="555" on="1"/>
        <pt x="40" y="538" on="1"/>
        <pt x="20" y="625" on="1"/>
        <pt x="249" y="694" on="1"/>
        <pt x="264" y="685" on="1"/>
        <pt x="264" y="93" on="1"/>
        <pt x="349" y="80" on="1"/>
        <pt x="349" y="74" on="0"/>
        <pt x="348" y="62" on="1"/>
      </contour>
    </TTGlyph>
    <TTGlyph name="onehalf" xMin="29" yMin="-1" xMax="755" yMax="714">
      <contour>
        <pt x="472" y="-1" on="1"/>
        <pt x="453" y="68" on="1"/>
        <pt x="460" y="77" on="0"/>
        <pt x="491" y="109" on="0"/>
        <pt x="529" y="149" on="0"/>
        <pt x="569" y="192" on="0"/>
        <pt x="585" y="213" on="1"/>
        <pt x="622" y="262" on="0"/>
        <pt x="622" y="280" on="1"/>
        <pt x="622" y="291" on="0"/>
        <pt x="609" y="304" on="0"/>
        <pt x="585" y="304" on="0"/>
        <pt x="580" y="302" on="1"/>
        <pt x="562" y="249" on="1"/>
        <pt x="445" y="294" on="1"/>
        <pt x="471" y="350" on="0"/>
        <pt x="555" y="399" on="0"/>
        <pt x="625" y="399" on="0"/>
        <pt x="677" y="388" on="0"/>
        <pt x="696" y="375" on="1"/>
        <pt x="740" y="346" on="0"/>
        <pt x="740" y="284" on="1"/>
        <pt x="740" y="235" on="0"/>
        <pt x="688" y="166" on="1"/>
        <pt x="650" y="116" on="0"/>
        <pt x="612" y="88" on="1"/>
        <pt x="679" y="88" on="1"/>
        <pt x="703" y="149" on="1"/>
        <pt x="755" y="149" on="1"/>
        <pt x="739" y="-1" on="1"/>
      </contour>
      <contour>
        <pt x="263" y="0" on="1"/>
        <pt x="138" y="0" on="1"/>
        <pt x="135" y="13" on="1"/>
        <pt x="453" y="691" on="1"/>
        <pt x="581" y="691" on="1"/>
        <pt x="580" y="677" on="1"/>
      </contour>
      <contour>
        <pt x="45" y="371" on="1"/>
        <pt x="91" y="378" on="1"/>
        <pt x="91" y="608" on="1"/>
        <pt x="37" y="600" on="1"/>
        <pt x="29" y="666" on="1"/>
        <pt x="193" y="714" on="1"/>
        <pt x="206" y="702" on="1"/>
        <pt x="206" y="381" on="1"/>
        <pt x="244" y="373" on="1"/>
        <pt x="244" y="315" on="1"/>
        <pt x="45" y="315" on="1"/>
      </contour>
    </TTGlyph>
    <TTGlyph name="onequarter" xMin="29" yMin="0" xMax="726" yMax="714">
      <contour>
        <pt x="254" y="0" on="1"/>
        <pt x="129" y="0" on="1"/>
        <pt x="126" y="13" on="1"/>
        <pt x="444" y="691" on="1"/>
        <pt x="572" y="691" on="1"/>
        <pt x="571" y="677" on="1"/>
      </contour>
      <contour>
        <pt x="725" y="101" on="1"/>
        <pt x="680" y="101" on="1"/>
        <pt x="680" y="66" on="1"/>
        <pt x="726" y="58" on="1"/>
        <pt x="726" y="0" on="1"/>
        <pt x="486" y="0" on="1"/>
        <pt x="480" y="49" on="1"/>
        <pt x="564" y="63" on="1"/>
        <pt x="564" y="101" on="1"/>
        <pt x="394" y="101" on="1"/>
        <pt x="394" y="181" on="1"/>
        <pt x="564" y="400" on="1"/>
        <pt x="680" y="400" on="1"/>
        <pt x="680" y="185" on="1"/>
        <pt x="725" y="185" on="1"/>
      </contour>
      <contour>
        <pt x="45" y="371" on="1"/>
        <pt x="91" y="378" on="1"/>
        <pt x="91" y="608" on="1"/>
        <pt x="37" y="600" on="1"/>
        <pt x="29" y="666" on="1"/>
        <pt x="193" y="714" on="1"/>
        <pt x="206" y="702" on="1"/>
        <pt x="206" y="381" on="1"/>
        <pt x="248" y="373" on="1"/>
        <pt x="248" y="315" on="1"/>
        <pt x="45" y="315" on="1"/>
      </contour>
      <contour>
        <pt x="564" y="185" on="1"/>
        <pt x="564" y="269" on="1"/>
        <pt x="490" y="185" on="1"/>
      </contour>
    </TTGlyph>
    <TTGlyph name="onesuperior" xMin="26" yMin="402" xMax="226" yMax="727">
      <contour>
        <pt x="46" y="447" on="1"/>
        <pt x="84" y="455" on="1"/>
        <pt x="84" y="652" on="1"/>
        <pt x="35" y="644" on="1"/>
        <pt x="26" y="689" on="1"/>
        <pt x="175" y="727" on="1"/>
        <pt x="192" y="715" on="1"/>
        <pt x="189" y="667" on="1"/>
        <pt x="189" y="458" on="1"/>
        <pt x="226" y="449" on="1"/>
        <pt x="226" y="402" on="1"/>
        <pt x="49" y="402" on="1"/>
      </contour>
    </TTGlyph>
    <TTGlyph name="ordfeminine" xMin="32" yMin="401" xMax="360" yMax="724">
      <contour>
        <pt x="33" y="643" on="1"/>
        <pt x="63" y="724" on="0"/>
        <pt x="176" y="724" on="1"/>
        <pt x="290" y="724" on="0"/>
        <pt x="313" y="642" on="1"/>
        <pt x="320" y="618" on="0"/>
        <pt x="319" y="590" on="0"/>
        <pt x="319" y="585" on="1"/>
        <pt x="319" y="499" on="1"/>
        <pt x="319" y="491" on="0"/>
        <pt x="321" y="491" on="1"/>
        <pt x="328" y="491" on="1"/>
        <pt x="342" y="493" on="1"/>
        <pt x="360" y="433" on="1"/>
        <pt x="326" y="404" on="0"/>
        <pt x="252" y="404" on="0"/>
        <pt x="228" y="435" on="1"/>
        <pt x="196" y="401" on="0"/>
        <pt x="138" y="401" on="1"/>
        <pt x="99" y="401" on="0"/>
        <pt x="68" y="424" on="1"/>
        <pt x="32" y="451" on="0"/>
        <pt x="32" y="529" on="0"/>
        <pt x="66" y="569" on="0"/>
        <pt x="92" y="580" on="1"/>
        <pt x="135" y="598" on="0"/>
        <pt x="209" y="598" on="1"/>
        <pt x="209" y="610" on="1"/>
        <pt x="209" y="620" on="0"/>
        <pt x="196" y="645" on="0"/>
        <pt x="177" y="645" on="1"/>
        <pt x="164" y="645" on="0"/>
        <pt x="155" y="640" on="1"/>
        <pt x="146" y="617" on="1"/>
      </contour>
      <contour>
        <pt x="209" y="545" on="1"/>
        <pt x="136" y="545" on="0"/>
        <pt x="136" y="510" on="1"/>
        <pt x="136" y="502" on="0"/>
        <pt x="148" y="482" on="0"/>
        <pt x="195" y="482" on="0"/>
        <pt x="209" y="501" on="1"/>
      </contour>
    </TTGlyph>
    <TTGlyph name="ordmasculine" xMin="30" yMin="399" xMax="324" yMax="726">
      <contour>
        <pt x="109" y="399" on="0"/>
        <pt x="30" y="481" on="0"/>
        <pt x="30" y="647" on="0"/>
        <pt x="109" y="726" on="0"/>
        <pt x="176" y="726" on="1"/>
        <pt x="243" y="726" on="0"/>
        <pt x="324" y="647" on="0"/>
        <pt x="324" y="481" on="0"/>
        <pt x="243" y="399" on="0"/>
        <pt x="176" y="399" on="1"/>
      </contour>
      <contour>
        <pt x="148" y="632" on="0"/>
        <pt x="135" y="592" on="0"/>
        <pt x="135" y="529" on="0"/>
        <pt x="148" y="492" on="0"/>
        <pt x="176" y="492" on="1"/>
        <pt x="204" y="492" on="0"/>
        <pt x="219" y="529" on="0"/>
        <pt x="219" y="592" on="0"/>
        <pt x="204" y="632" on="0"/>
        <pt x="176" y="632" on="1"/>
      </contour>
    </TTGlyph>
    <TTGlyph name="oslash" xMin="29" yMin="-105" xMax="470" yMax="585">
      <contour>
        <pt x="107" y="51" on="1"/>
        <pt x="29" y="122" on="0"/>
        <pt x="29" y="246" on="1"/>
        <pt x="29" y="360" on="0"/>
        <pt x="98" y="429" on="1"/>
        <pt x="160" y="491" on="0"/>
        <pt x="249" y="491" on="1"/>
        <pt x="267" y="491" on="0"/>
        <pt x="285" y="488" on="1"/>
        <pt x="325" y="585" on="1"/>
        <pt x="443" y="585" on="1"/>
        <pt x="442" y="572" on="1"/>
        <pt x="388" y="440" on="1"/>
        <pt x="470" y="372" on="0"/>
        <pt x="470" y="246" on="1"/>
        <pt x="470" y="130" on="0"/>
        <pt x="401" y="60" on="1"/>
        <pt x="339" y="-4" on="0"/>
        <pt x="249" y="-4" on="1"/>
        <pt x="229" y="-4" on="0"/>
        <pt x="209" y="0" on="1"/>
        <pt x="167" y="-105" on="1"/>
        <pt x="52" y="-105" on="1"/>
        <pt x="49" y="-92" on="1"/>
      </contour>
      <contour>
        <pt x="338" y="170" on="1"/>
        <pt x="346" y="198" on="0"/>
        <pt x="346" y="283" on="0"/>
        <pt x="337" y="315" on="1"/>
        <pt x="249" y="90" on="1"/>
        <pt x="318" y="90" on="0"/>
      </contour>
      <contour>
        <pt x="160" y="312" on="1"/>
        <pt x="153" y="282" on="0"/>
        <pt x="153" y="203" on="0"/>
        <pt x="159" y="178" on="1"/>
        <pt x="248" y="397" on="1"/>
        <pt x="182" y="397" on="0"/>
      </contour>
    </TTGlyph>
    <TTGlyph name="otilde" xMin="29" yMin="-4" xMax="470" yMax="697">
      <contour>
        <pt x="436" y="627" on="1"/>
        <pt x="385" y="554" on="0"/>
        <pt x="335" y="554" on="1"/>
        <pt x="310" y="554" on="0"/>
        <pt x="260" y="582" on="0"/>
        <pt x="233" y="595" on="0"/>
        <pt x="191" y="595" on="0"/>
        <pt x="162" y="564" on="0"/>
        <pt x="157" y="547" on="1"/>
        <pt x="93" y="589" on="1"/>
        <pt x="94" y="608" on="1"/>
        <pt x="114" y="658" on="0"/>
        <pt x="165" y="681" on="1"/>
        <pt x="185" y="690" on="0"/>
        <pt x="232" y="690" on="0"/>
        <pt x="268" y="677" on="0"/>
        <pt x="298" y="662" on="0"/>
        <pt x="320" y="647" on="0"/>
        <pt x="326" y="646" on="1"/>
        <pt x="362" y="697" on="1"/>
      </contour>
      <contour>
        <pt x="29" y="246" on="1"/>
        <pt x="29" y="360" on="0"/>
        <pt x="98" y="429" on="1"/>
        <pt x="160" y="491" on="0"/>
        <pt x="249" y="491" on="1"/>
        <pt x="339" y="491" on="0"/>
        <pt x="401" y="429" on="1"/>
        <pt x="470" y="360" on="0"/>
        <pt x="470" y="246" on="1"/>
        <pt x="470" y="130" on="0"/>
        <pt x="401" y="60" on="1"/>
        <pt x="339" y="-4" on="0"/>
        <pt x="249" y="-4" on="1"/>
        <pt x="160" y="-4" on="0"/>
        <pt x="98" y="60" on="1"/>
        <pt x="29" y="130" on="0"/>
      </contour>
      <contour>
        <pt x="153" y="240" on="1"/>
        <pt x="153" y="124" on="0"/>
        <pt x="212" y="98" on="1"/>
        <pt x="229" y="90" on="0"/>
        <pt x="249" y="90" on="1"/>
        <pt x="318" y="90" on="0"/>
        <pt x="338" y="170" on="1"/>
        <pt x="346" y="198" on="0"/>
        <pt x="346" y="240" on="1"/>
        <pt x="346" y="360" on="0"/>
        <pt x="286" y="388" on="1"/>
        <pt x="269" y="397" on="0"/>
        <pt x="249" y="397" on="1"/>
        <pt x="182" y="397" on="0"/>
        <pt x="160" y="312" on="1"/>
        <pt x="153" y="282" on="0"/>
      </contour>
    </TTGlyph>
    <TTGlyph name="p" xMin="16" yMin="-273" xMax="484" yMax="491">
      <contour>
        <pt x="319" y="-208" on="1"/>
        <pt x="318" y="-273" on="1"/>
        <pt x="45" y="-273" on="1"/>
        <pt x="29" y="-210" on="1"/>
        <pt x="80" y="-195" on="1"/>
        <pt x="80" y="402" on="1"/>
        <pt x="29" y="395" on="1"/>
        <pt x="16" y="467" on="1"/>
        <pt x="166" y="491" on="1"/>
        <pt x="189" y="468" on="1"/>
        <pt x="232" y="491" on="0"/>
        <pt x="332" y="491" on="0"/>
        <pt x="404" y="458" on="0"/>
        <pt x="430" y="427" on="1"/>
        <pt x="484" y="363" on="0"/>
        <pt x="484" y="251" on="1"/>
        <pt x="484" y="115" on="0"/>
        <pt x="414" y="50" on="1"/>
        <pt x="355" y="-4" on="0"/>
        <pt x="261" y="-4" on="1"/>
        <pt x="231" y="-4" on="0"/>
        <pt x="201" y="4" on="1"/>
        <pt x="201" y="-182" on="1"/>
      </contour>
      <contour>
        <pt x="201" y="103" on="1"/>
        <pt x="220" y="90" on="0"/>
        <pt x="302" y="90" on="0"/>
        <pt x="360" y="165" on="0"/>
        <pt x="360" y="324" on="0"/>
        <pt x="306" y="397" on="0"/>
        <pt x="226" y="397" on="0"/>
        <pt x="201" y="379" on="1"/>
      </contour>
    </TTGlyph>
    <TTGlyph name="paragraph" xMin="27" yMin="-17" xMax="595" yMax="691">
      <contour>
        <pt x="430" y="0" on="1"/>
        <pt x="430" y="591" on="1"/>
        <pt x="377" y="591" on="1"/>
        <pt x="377" y="104" on="1"/>
        <pt x="377" y="77" on="0"/>
        <pt x="346" y="41" on="1"/>
        <pt x="321" y="11" on="0"/>
        <pt x="277" y="-17" on="1"/>
        <pt x="197" y="88" on="1"/>
        <pt x="259" y="130" on="1"/>
        <pt x="259" y="299" on="1"/>
        <pt x="153" y="301" on="0"/>
        <pt x="89" y="358" on="1"/>
        <pt x="27" y="412" on="0"/>
        <pt x="27" y="500" on="1"/>
        <pt x="27" y="576" on="0"/>
        <pt x="76" y="628" on="1"/>
        <pt x="136" y="691" on="0"/>
        <pt x="246" y="691" on="1"/>
        <pt x="595" y="691" on="1"/>
        <pt x="595" y="591" on="1"/>
        <pt x="561" y="591" on="1"/>
        <pt x="561" y="0" on="1"/>
      </contour>
    </TTGlyph>
    <TTGlyph name="parenleft" xMin="47" yMin="-162" xMax="282" yMax="742">
      <contour>
        <pt x="183" y="291" on="1"/>
        <pt x="183" y="77" on="0"/>
        <pt x="282" y="-162" on="1"/>
        <pt x="156" y="-162" on="1"/>
        <pt x="47" y="66" on="0"/>
        <pt x="47" y="290" on="1"/>
        <pt x="47" y="434" on="0"/>
        <pt x="86" y="572" on="1"/>
        <pt x="113" y="665" on="0"/>
        <pt x="156" y="742" on="1"/>
        <pt x="282" y="742" on="1"/>
        <pt x="218" y="621" on="0"/>
        <pt x="192" y="439" on="1"/>
        <pt x="183" y="370" on="0"/>
      </contour>
    </TTGlyph>
    <TTGlyph name="parenright" xMin="28" yMin="-162" xMax="264" yMax="742">
      <contour>
        <pt x="264" y="290" on="1"/>
        <pt x="264" y="68" on="0"/>
        <pt x="154" y="-162" on="1"/>
        <pt x="28" y="-162" on="1"/>
        <pt x="127" y="77" on="0"/>
        <pt x="127" y="291" on="1"/>
        <pt x="127" y="431" on="0"/>
        <pt x="94" y="565" on="1"/>
        <pt x="70" y="664" on="0"/>
        <pt x="28" y="742" on="1"/>
        <pt x="154" y="742" on="1"/>
        <pt x="199" y="662" on="0"/>
        <pt x="220" y="588" on="1"/>
        <pt x="264" y="434" on="0"/>
      </contour>
    </TTGlyph>
</ttFont>
